<svg xmlns="http://www.w3.org/2000/svg" xmlns:xlink="http://www.w3.org/1999/xlink" width="24" zoomAndPan="magnify" viewBox="0 0 375 374.999991" height="24" preserveAspectRatio="xMidYMid meet" version="1.0"><path fill="#00bf63" d="M 171.652344 190.464844 L 226.71875 245.527344 C 234.875 253.683594 234.875 266.835938 226.71875 274.992188 C 218.628906 283.113281 205.410156 283.113281 197.289062 274.992188 L 130.40625 208.109375 C 119.050781 196.753906 119.050781 178.246094 130.40625 166.890625 L 197.289062 100.007812 C 205.410156 91.886719 218.628906 91.886719 226.71875 100.007812 C 234.875 108.132812 234.875 121.316406 226.71875 129.4375 L 171.652344 184.570312 C 170.023438 186.203125 170.023438 188.832031 171.652344 190.464844 Z M 187.5 0 C 83.960938 0 0 83.929688 0 187.5 C 0 291.039062 83.960938 375 187.5 375 C 291.070312 375 375 291.039062 375 187.5 C 375 83.929688 291.070312 0 187.5 0 " fill-opacity="1" fill-rule="nonzero"/></svg>