<svg xmlns="http://www.w3.org/2000/svg" xmlns:xlink="http://www.w3.org/1999/xlink" width="24" zoomAndPan="magnify" viewBox="0 0 375 374.999991" height="24" preserveAspectRatio="xMidYMid meet" version="1.0"><defs><clipPath id="cb94e66e23"><path d="M 0 88 L 154 88 L 154 319.828125 L 0 319.828125 Z M 0 88 " clip-rule="nonzero"/></clipPath><clipPath id="d250455eb0"><path d="M 221 88 L 375 88 L 375 319.828125 L 221 319.828125 Z M 221 88 " clip-rule="nonzero"/></clipPath></defs><g clip-path="url(#cb94e66e23)"><path fill="#a4c195" d="M 0.0234375 319.914062 C 23.480469 311.4375 80.152344 296.441406 153.695312 313.558594 C 130.449219 300.53125 89.9375 288.667969 23.621094 299.46875 L 14.191406 301.007812 L 14.191406 88.527344 C 10.382812 88.496094 5.335938 88.613281 0.0234375 88.851562 L 0.0234375 319.914062 " fill-opacity="1" fill-rule="nonzero"/></g><path fill="#a4c195" d="M 179.382812 311.183594 L 179.382812 106.304688 C 172.710938 97.484375 134.667969 55.257812 30.4375 70.214844 L 30.4375 282.03125 C 46.046875 279.882812 60.304688 278.9375 73.277344 278.9375 C 130.070312 278.9375 162.589844 296.980469 179.382812 311.183594 " fill-opacity="1" fill-rule="nonzero"/><g clip-path="url(#d250455eb0)"><path fill="#a4c195" d="M 374.976562 319.914062 L 374.976562 88.851562 C 369.660156 88.617188 364.613281 88.5 360.808594 88.527344 L 360.808594 301.007812 L 351.378906 299.46875 C 284.949219 288.632812 244.4375 300.527344 221.21875 313.582031 C 294.78125 296.429688 351.511719 311.4375 374.976562 319.914062 " fill-opacity="1" fill-rule="nonzero"/></g><path fill="#a4c195" d="M 344.5625 282.03125 L 344.5625 70.214844 C 240.28125 55.207031 202.382812 97.386719 195.628906 106.308594 L 195.628906 311.183594 C 216.261719 293.742188 260.664062 270.53125 344.5625 282.03125 " fill-opacity="1" fill-rule="nonzero"/></svg>