<svg xmlns="http://www.w3.org/2000/svg" xmlns:xlink="http://www.w3.org/1999/xlink" width="24" zoomAndPan="magnify" viewBox="0 0 375 374.999991" height="24" preserveAspectRatio="xMidYMid meet" version="1.0"><defs><clipPath id="bdeb3564fe"><path d="M 295 123 L 366.683594 123 L 366.683594 280 L 295 280 Z M 295 123 " clip-rule="nonzero"/></clipPath><clipPath id="909778b39e"><path d="M 8.183594 123 L 80 123 L 80 280 L 8.183594 280 Z M 8.183594 123 " clip-rule="nonzero"/></clipPath></defs><path fill="#a4c195" d="M 278.238281 182.980469 C 278.238281 184.003906 278.136719 185.015625 277.9375 186.015625 C 277.738281 187.019531 277.441406 187.992188 277.050781 188.9375 C 276.660156 189.878906 276.179688 190.777344 275.613281 191.628906 C 275.046875 192.476562 274.402344 193.261719 273.679688 193.984375 C 272.957031 194.707031 272.167969 195.351562 271.320312 195.921875 C 270.46875 196.488281 269.574219 196.96875 268.628906 197.359375 C 267.6875 197.75 266.710938 198.046875 265.710938 198.246094 C 264.707031 198.445312 263.695312 198.542969 262.675781 198.542969 C 261.652344 198.542969 260.640625 198.445312 259.636719 198.246094 C 258.636719 198.046875 257.664062 197.75 256.71875 197.359375 C 255.773438 196.96875 254.878906 196.488281 254.027344 195.921875 C 253.179688 195.351562 252.390625 194.707031 251.671875 193.984375 C 250.949219 193.261719 250.300781 192.476562 249.734375 191.628906 C 249.167969 190.777344 248.6875 189.878906 248.296875 188.9375 C 247.90625 187.992188 247.609375 187.019531 247.410156 186.015625 C 247.210938 185.015625 247.113281 184.003906 247.113281 182.980469 C 247.113281 181.960938 247.210938 180.949219 247.410156 179.945312 C 247.609375 178.941406 247.90625 177.96875 248.296875 177.027344 C 248.6875 176.082031 249.167969 175.183594 249.734375 174.335938 C 250.300781 173.484375 250.949219 172.699219 251.671875 171.976562 C 252.390625 171.253906 253.179688 170.609375 254.027344 170.042969 C 254.878906 169.472656 255.773438 168.996094 256.71875 168.605469 C 257.664062 168.210938 258.636719 167.917969 259.636719 167.71875 C 260.640625 167.519531 261.652344 167.417969 262.675781 167.417969 C 263.695312 167.417969 264.707031 167.519531 265.710938 167.71875 C 266.710938 167.917969 267.6875 168.210938 268.628906 168.605469 C 269.574219 168.996094 270.46875 169.472656 271.320312 170.042969 C 272.167969 170.609375 272.957031 171.253906 273.679688 171.976562 C 274.402344 172.699219 275.046875 173.484375 275.613281 174.335938 C 276.179688 175.183594 276.660156 176.082031 277.050781 177.027344 C 277.441406 177.96875 277.738281 178.941406 277.9375 179.945312 C 278.136719 180.949219 278.238281 181.960938 278.238281 182.980469 Z M 278.238281 182.980469 " fill-opacity="1" fill-rule="nonzero"/><path fill="#a4c195" d="M 244.277344 349.40625 C 244.277344 354.21875 248.1875 358.128906 252.996094 358.128906 C 257.820312 358.128906 261.722656 354.21875 261.722656 349.40625 L 261.730469 276.226562 L 265.613281 276.226562 L 265.589844 349.40625 C 265.589844 354.21875 269.5 358.128906 274.3125 358.128906 C 279.125 358.128906 283.03125 354.21875 283.03125 349.40625 L 283.070312 223.242188 L 286.894531 223.242188 L 286.894531 269.738281 C 286.894531 279.085938 299.097656 279.085938 299.070312 269.738281 L 299.070312 222.246094 C 299.070312 211.910156 293 201.785156 280.910156 201.785156 L 246.035156 201.769531 C 235.015625 201.769531 228.113281 210.753906 228.113281 221.957031 L 228.113281 269.734375 C 228.113281 279.015625 240.382812 279.015625 240.382812 269.734375 L 240.382812 223.242188 L 244.289062 223.242188 Z M 244.277344 349.40625 " fill-opacity="1" fill-rule="nonzero"/><path fill="#a4c195" d="M 345.425781 104.605469 C 345.425781 105.625 345.324219 106.636719 345.125 107.640625 C 344.925781 108.640625 344.632812 109.613281 344.242188 110.558594 C 343.847656 111.503906 343.371094 112.398438 342.800781 113.25 C 342.234375 114.097656 341.589844 114.886719 340.867188 115.609375 C 340.144531 116.332031 339.359375 116.976562 338.507812 117.542969 C 337.660156 118.109375 336.761719 118.589844 335.816406 118.980469 C 334.875 119.371094 333.902344 119.667969 332.898438 119.867188 C 331.898438 120.066406 330.882812 120.164062 329.863281 120.164062 C 328.839844 120.164062 327.828125 120.066406 326.828125 119.867188 C 325.824219 119.667969 324.851562 119.371094 323.90625 118.980469 C 322.964844 118.589844 322.066406 118.109375 321.214844 117.542969 C 320.367188 116.976562 319.582031 116.332031 318.859375 115.609375 C 318.136719 114.886719 317.492188 114.097656 316.921875 113.25 C 316.355469 112.398438 315.875 111.503906 315.484375 110.558594 C 315.09375 109.613281 314.796875 108.640625 314.597656 107.640625 C 314.398438 106.636719 314.300781 105.625 314.300781 104.605469 C 314.300781 103.582031 314.398438 102.570312 314.597656 101.566406 C 314.796875 100.566406 315.09375 99.59375 315.484375 98.648438 C 315.875 97.703125 316.355469 96.808594 316.921875 95.957031 C 317.492188 95.109375 318.136719 94.320312 318.859375 93.597656 C 319.582031 92.875 320.367188 92.230469 321.214844 91.664062 C 322.066406 91.097656 322.964844 90.617188 323.90625 90.226562 C 324.851562 89.835938 325.824219 89.539062 326.828125 89.339844 C 327.828125 89.140625 328.839844 89.042969 329.863281 89.042969 C 330.882812 89.042969 331.898438 89.140625 332.898438 89.339844 C 333.902344 89.539062 334.875 89.835938 335.816406 90.226562 C 336.761719 90.617188 337.660156 91.097656 338.507812 91.664062 C 339.359375 92.230469 340.144531 92.875 340.867188 93.597656 C 341.589844 94.320312 342.234375 95.109375 342.800781 95.957031 C 343.371094 96.808594 343.847656 97.703125 344.242188 98.648438 C 344.632812 99.59375 344.925781 100.566406 345.125 101.566406 C 345.324219 102.570312 345.425781 103.582031 345.425781 104.605469 Z M 345.425781 104.605469 " fill-opacity="1" fill-rule="nonzero"/><g clip-path="url(#bdeb3564fe)"><path fill="#a4c195" d="M 311.464844 271.027344 C 311.464844 275.839844 315.375 279.75 320.1875 279.75 C 325.007812 279.75 328.910156 275.839844 328.910156 271.027344 L 328.921875 197.847656 L 332.804688 197.847656 L 332.78125 271.027344 C 332.78125 275.839844 336.6875 279.75 341.5 279.75 C 346.316406 279.75 350.21875 275.839844 350.21875 271.027344 L 350.257812 144.863281 L 354.082031 144.863281 L 354.082031 191.359375 C 354.082031 200.707031 366.285156 200.707031 366.257812 191.359375 L 366.257812 143.867188 C 366.257812 133.53125 360.191406 123.40625 348.097656 123.40625 L 313.222656 123.390625 C 302.203125 123.390625 295.304688 132.375 295.304688 143.582031 L 295.304688 191.355469 C 295.304688 200.640625 307.574219 200.640625 307.574219 191.355469 L 307.574219 144.863281 L 311.476562 144.863281 Z M 311.464844 271.027344 " fill-opacity="1" fill-rule="nonzero"/></g><path fill="#a4c195" d="M 278.648438 27.574219 C 278.648438 28.59375 278.550781 29.605469 278.351562 30.609375 C 278.152344 31.609375 277.855469 32.582031 277.464844 33.527344 C 277.074219 34.46875 276.59375 35.367188 276.027344 36.214844 C 275.460938 37.066406 274.816406 37.851562 274.09375 38.574219 C 273.371094 39.296875 272.585938 39.941406 271.734375 40.507812 C 270.886719 41.078125 269.988281 41.554688 269.042969 41.945312 C 268.101562 42.335938 267.128906 42.632812 266.125 42.832031 C 265.125 43.03125 264.113281 43.132812 263.089844 43.132812 C 262.070312 43.132812 261.058594 43.03125 260.054688 42.832031 C 259.054688 42.632812 258.082031 42.335938 257.136719 41.945312 C 256.191406 41.554688 255.296875 41.078125 254.445312 40.507812 C 253.597656 39.941406 252.8125 39.296875 252.089844 38.574219 C 251.367188 37.851562 250.722656 37.066406 250.15625 36.214844 C 249.585938 35.367188 249.109375 34.46875 248.71875 33.527344 C 248.324219 32.582031 248.03125 31.609375 247.832031 30.609375 C 247.632812 29.605469 247.53125 28.59375 247.53125 27.574219 C 247.53125 26.550781 247.632812 25.539062 247.832031 24.539062 C 248.03125 23.535156 248.324219 22.5625 248.71875 21.617188 C 249.109375 20.675781 249.585938 19.777344 250.15625 18.929688 C 250.722656 18.078125 251.367188 17.292969 252.089844 16.570312 C 252.8125 15.847656 253.597656 15.203125 254.445312 14.636719 C 255.296875 14.070312 256.191406 13.589844 257.136719 13.199219 C 258.082031 12.808594 259.054688 12.511719 260.054688 12.3125 C 261.058594 12.113281 262.070312 12.015625 263.089844 12.015625 C 264.113281 12.015625 265.125 12.113281 266.125 12.3125 C 267.128906 12.511719 268.101562 12.808594 269.042969 13.199219 C 269.988281 13.589844 270.886719 14.070312 271.734375 14.636719 C 272.585938 15.203125 273.371094 15.847656 274.09375 16.570312 C 274.816406 17.292969 275.460938 18.078125 276.027344 18.929688 C 276.59375 19.777344 277.074219 20.675781 277.464844 21.617188 C 277.855469 22.5625 278.152344 23.535156 278.351562 24.539062 C 278.550781 25.539062 278.648438 26.550781 278.648438 27.574219 Z M 278.648438 27.574219 " fill-opacity="1" fill-rule="nonzero"/><path fill="#a4c195" d="M 281.332031 46.378906 L 246.457031 46.363281 C 235.4375 46.363281 228.535156 55.347656 228.535156 66.554688 L 228.535156 114.328125 C 228.535156 123.613281 240.804688 123.613281 240.804688 114.328125 L 240.804688 67.832031 L 244.710938 67.832031 L 244.695312 169.398438 C 251.085938 168.039062 256.941406 166.460938 262.144531 164.695312 L 262.148438 120.816406 L 266.03125 120.816406 L 266.019531 163.289062 C 273.6875 160.355469 279.648438 156.972656 283.464844 153.292969 L 283.492188 67.828125 L 287.3125 67.828125 L 287.3125 114.324219 C 287.3125 123.671875 299.519531 123.671875 299.492188 114.324219 L 299.492188 66.835938 C 299.492188 56.503906 293.421875 46.378906 281.332031 46.378906 Z M 281.332031 46.378906 " fill-opacity="1" fill-rule="nonzero"/><path fill="#a4c195" d="M 127.476562 182.980469 C 127.476562 184.003906 127.375 185.015625 127.175781 186.015625 C 126.976562 187.019531 126.683594 187.992188 126.292969 188.9375 C 125.898438 189.878906 125.421875 190.777344 124.851562 191.628906 C 124.285156 192.476562 123.640625 193.261719 122.917969 193.984375 C 122.195312 194.707031 121.410156 195.351562 120.558594 195.921875 C 119.710938 196.488281 118.8125 196.96875 117.871094 197.359375 C 116.925781 197.75 115.953125 198.046875 114.949219 198.246094 C 113.949219 198.445312 112.9375 198.542969 111.914062 198.542969 C 110.890625 198.542969 109.878906 198.445312 108.878906 198.246094 C 107.875 198.046875 106.902344 197.75 105.957031 197.359375 C 105.015625 196.96875 104.117188 196.488281 103.269531 195.921875 C 102.417969 195.351562 101.632812 194.707031 100.910156 193.984375 C 100.1875 193.261719 99.542969 192.476562 98.972656 191.628906 C 98.40625 190.777344 97.925781 189.878906 97.535156 188.9375 C 97.144531 187.992188 96.851562 187.019531 96.652344 186.015625 C 96.449219 185.015625 96.351562 184.003906 96.351562 182.980469 C 96.351562 181.960938 96.449219 180.949219 96.652344 179.945312 C 96.851562 178.941406 97.144531 177.96875 97.535156 177.027344 C 97.925781 176.082031 98.40625 175.183594 98.972656 174.335938 C 99.542969 173.484375 100.1875 172.699219 100.910156 171.976562 C 101.632812 171.253906 102.417969 170.609375 103.269531 170.042969 C 104.117188 169.472656 105.015625 168.996094 105.957031 168.605469 C 106.902344 168.210938 107.875 167.917969 108.878906 167.71875 C 109.878906 167.519531 110.890625 167.417969 111.914062 167.417969 C 112.9375 167.417969 113.949219 167.519531 114.949219 167.71875 C 115.953125 167.917969 116.925781 168.210938 117.871094 168.605469 C 118.8125 168.996094 119.710938 169.472656 120.558594 170.042969 C 121.410156 170.609375 122.195312 171.253906 122.917969 171.976562 C 123.640625 172.699219 124.285156 173.484375 124.851562 174.335938 C 125.421875 175.183594 125.898438 176.082031 126.292969 177.027344 C 126.683594 177.96875 126.976562 178.941406 127.175781 179.945312 C 127.375 180.949219 127.476562 181.960938 127.476562 182.980469 Z M 127.476562 182.980469 " fill-opacity="1" fill-rule="nonzero"/><path fill="#a4c195" d="M 130.296875 223.242188 L 134.199219 223.242188 L 134.199219 269.734375 C 134.199219 279.015625 146.46875 279.015625 146.46875 269.734375 L 146.46875 221.957031 C 146.46875 210.75 139.566406 201.769531 128.546875 201.769531 L 93.671875 201.785156 C 81.582031 201.785156 75.515625 211.910156 75.515625 222.246094 L 75.515625 269.734375 C 75.484375 279.082031 87.691406 279.082031 87.691406 269.734375 L 87.691406 223.234375 L 91.511719 223.234375 L 91.554688 349.402344 C 91.554688 354.214844 95.457031 358.121094 100.269531 358.121094 C 105.085938 358.121094 108.992188 354.214844 108.992188 349.402344 L 108.96875 276.222656 L 112.851562 276.222656 L 112.859375 349.402344 C 112.859375 354.214844 116.765625 358.121094 121.585938 358.121094 C 126.394531 358.121094 130.308594 354.214844 130.308594 349.402344 Z M 130.296875 223.242188 " fill-opacity="1" fill-rule="nonzero"/><path fill="#a4c195" d="M 60.289062 104.605469 C 60.289062 105.625 60.1875 106.636719 59.988281 107.640625 C 59.789062 108.640625 59.492188 109.613281 59.101562 110.558594 C 58.710938 111.503906 58.234375 112.398438 57.664062 113.25 C 57.097656 114.097656 56.453125 114.886719 55.730469 115.609375 C 55.007812 116.332031 54.222656 116.976562 53.371094 117.542969 C 52.523438 118.109375 51.625 118.589844 50.679688 118.980469 C 49.738281 119.371094 48.761719 119.667969 47.761719 119.867188 C 46.757812 120.066406 45.746094 120.164062 44.726562 120.164062 C 43.703125 120.164062 42.691406 120.066406 41.6875 119.867188 C 40.6875 119.667969 39.714844 119.371094 38.769531 118.980469 C 37.824219 118.589844 36.929688 118.109375 36.078125 117.542969 C 35.230469 116.976562 34.445312 116.332031 33.722656 115.609375 C 33 114.886719 32.351562 114.097656 31.785156 113.25 C 31.21875 112.398438 30.738281 111.503906 30.347656 110.558594 C 29.957031 109.613281 29.660156 108.640625 29.460938 107.640625 C 29.261719 106.636719 29.164062 105.625 29.164062 104.605469 C 29.164062 103.582031 29.261719 102.570312 29.460938 101.566406 C 29.660156 100.566406 29.957031 99.59375 30.347656 98.648438 C 30.738281 97.703125 31.21875 96.808594 31.785156 95.957031 C 32.351562 95.109375 33 94.320312 33.722656 93.597656 C 34.445312 92.875 35.230469 92.230469 36.078125 91.664062 C 36.929688 91.097656 37.824219 90.617188 38.769531 90.226562 C 39.714844 89.835938 40.6875 89.539062 41.6875 89.339844 C 42.691406 89.140625 43.703125 89.042969 44.726562 89.042969 C 45.746094 89.042969 46.757812 89.140625 47.761719 89.339844 C 48.761719 89.539062 49.738281 89.835938 50.679688 90.226562 C 51.625 90.617188 52.523438 91.097656 53.371094 91.664062 C 54.222656 92.230469 55.007812 92.875 55.730469 93.597656 C 56.453125 94.320312 57.097656 95.109375 57.664062 95.957031 C 58.234375 96.808594 58.710938 97.703125 59.101562 98.648438 C 59.492188 99.59375 59.789062 100.566406 59.988281 101.566406 C 60.1875 102.570312 60.289062 103.582031 60.289062 104.605469 Z M 60.289062 104.605469 " fill-opacity="1" fill-rule="nonzero"/><g clip-path="url(#909778b39e)"><path fill="#a4c195" d="M 63.105469 144.863281 L 67.011719 144.863281 L 67.011719 191.355469 C 67.011719 200.640625 79.28125 200.640625 79.28125 191.355469 L 79.28125 143.582031 C 79.28125 132.371094 72.378906 123.390625 61.359375 123.390625 L 26.484375 123.40625 C 14.394531 123.40625 8.324219 133.53125 8.324219 143.867188 L 8.324219 191.355469 C 8.296875 200.703125 20.5 200.703125 20.5 191.355469 L 20.5 144.859375 L 24.324219 144.859375 L 24.363281 271.023438 C 24.363281 275.835938 28.269531 279.746094 33.082031 279.746094 C 37.898438 279.746094 41.804688 275.835938 41.804688 271.023438 L 41.78125 197.84375 L 45.664062 197.84375 L 45.671875 271.023438 C 45.671875 275.835938 49.574219 279.746094 54.398438 279.746094 C 59.207031 279.746094 63.121094 275.835938 63.121094 271.023438 Z M 63.105469 144.863281 " fill-opacity="1" fill-rule="nonzero"/></g><path fill="#a4c195" d="M 127.054688 27.574219 C 127.054688 28.59375 126.957031 29.605469 126.757812 30.609375 C 126.558594 31.609375 126.261719 32.582031 125.871094 33.527344 C 125.480469 34.46875 125 35.367188 124.433594 36.214844 C 123.867188 37.066406 123.222656 37.851562 122.5 38.574219 C 121.777344 39.296875 120.988281 39.941406 120.140625 40.507812 C 119.292969 41.078125 118.394531 41.554688 117.449219 41.945312 C 116.507812 42.335938 115.535156 42.632812 114.53125 42.832031 C 113.53125 43.03125 112.519531 43.132812 111.496094 43.132812 C 110.476562 43.132812 109.464844 43.03125 108.460938 42.832031 C 107.460938 42.632812 106.488281 42.335938 105.542969 41.945312 C 104.597656 41.554688 103.703125 41.078125 102.851562 40.507812 C 102.003906 39.941406 101.21875 39.296875 100.496094 38.574219 C 99.773438 37.851562 99.128906 37.066406 98.5625 36.214844 C 97.992188 35.367188 97.515625 34.46875 97.125 33.527344 C 96.730469 32.582031 96.4375 31.609375 96.238281 30.609375 C 96.039062 29.605469 95.9375 28.59375 95.9375 27.574219 C 95.9375 26.550781 96.039062 25.539062 96.238281 24.539062 C 96.4375 23.535156 96.730469 22.5625 97.125 21.617188 C 97.515625 20.675781 97.992188 19.777344 98.5625 18.929688 C 99.128906 18.078125 99.773438 17.292969 100.496094 16.570312 C 101.21875 15.847656 102.003906 15.203125 102.851562 14.636719 C 103.703125 14.070312 104.597656 13.589844 105.542969 13.199219 C 106.488281 12.808594 107.460938 12.511719 108.460938 12.3125 C 109.464844 12.113281 110.476562 12.015625 111.496094 12.015625 C 112.519531 12.015625 113.53125 12.113281 114.53125 12.3125 C 115.535156 12.511719 116.507812 12.808594 117.449219 13.199219 C 118.394531 13.589844 119.292969 14.070312 120.140625 14.636719 C 120.988281 15.203125 121.777344 15.847656 122.5 16.570312 C 123.222656 17.292969 123.867188 18.078125 124.433594 18.929688 C 125 19.777344 125.480469 20.675781 125.871094 21.617188 C 126.261719 22.5625 126.558594 23.535156 126.757812 24.539062 C 126.957031 25.539062 127.054688 26.550781 127.054688 27.574219 Z M 127.054688 27.574219 " fill-opacity="1" fill-rule="nonzero"/><path fill="#a4c195" d="M 93.257812 46.378906 L 128.132812 46.363281 C 139.152344 46.363281 146.050781 55.347656 146.050781 66.554688 L 146.050781 114.328125 C 146.050781 123.613281 133.78125 123.613281 133.78125 114.328125 L 133.78125 67.832031 L 129.878906 67.832031 L 129.890625 169.394531 C 123.503906 168.035156 117.644531 166.457031 112.445312 164.691406 L 112.441406 120.8125 L 108.554688 120.8125 L 108.566406 163.285156 C 100.902344 160.351562 94.941406 156.96875 91.125 153.289062 L 91.097656 67.828125 L 87.273438 67.828125 L 87.273438 114.324219 C 87.273438 123.671875 75.070312 123.671875 75.097656 114.324219 L 75.097656 66.835938 C 75.097656 56.503906 81.164062 46.378906 93.257812 46.378906 Z M 93.257812 46.378906 " fill-opacity="1" fill-rule="nonzero"/><path fill="#a4c195" d="M 202.339844 199.878906 C 202.339844 208.292969 195.667969 215.089844 187.289062 215.371094 C 178.953125 215.089844 172.242188 208.292969 172.242188 199.878906 C 172.242188 195.671875 173.941406 191.867188 176.652344 189.078125 C 179.359375 186.285156 183.125 184.546875 187.289062 184.386719 C 195.664062 184.667969 202.339844 191.464844 202.339844 199.878906 Z M 202.339844 199.878906 " fill-opacity="1" fill-rule="nonzero"/><path fill="#a4c195" d="M 223.171875 239.160156 L 223.171875 286.605469 C 223.210938 295.953125 210.996094 295.953125 210.996094 286.605469 L 210.996094 240.128906 L 207.191406 240.128906 L 207.152344 366.296875 C 207.152344 371.113281 203.222656 374.996094 198.414062 374.996094 C 193.601562 374.996094 189.675781 371.113281 189.675781 366.296875 L 189.71875 293.117188 L 184.867188 293.117188 L 184.90625 366.296875 C 184.90625 371.113281 180.980469 374.996094 176.167969 374.996094 C 171.355469 374.996094 167.472656 371.113281 167.472656 366.296875 L 167.429688 240.128906 L 163.589844 240.128906 L 163.589844 286.605469 C 163.589844 295.953125 151.371094 295.953125 151.414062 286.605469 L 151.414062 239.160156 C 151.414062 228.800781 157.480469 218.6875 169.574219 218.6875 L 205.011719 218.6875 C 217.105469 218.6875 223.171875 228.800781 223.171875 239.160156 Z M 223.171875 239.160156 " fill-opacity="1" fill-rule="nonzero"/><path fill="#a4c195" d="M 202.296875 15.613281 C 202.296875 24.027344 195.625 30.824219 187.289062 31.109375 C 178.953125 30.824219 172.28125 24.027344 172.28125 15.613281 C 172.28125 7.199219 178.953125 0.40625 187.289062 0.121094 C 195.625 0.40625 202.296875 7.199219 202.296875 15.613281 Z M 202.296875 15.613281 " fill-opacity="1" fill-rule="nonzero"/><path fill="#a4c195" d="M 223.171875 54.855469 L 223.171875 102.347656 C 223.171875 111.695312 210.996094 111.695312 210.996094 102.347656 L 210.996094 55.867188 L 207.152344 55.867188 L 207.113281 175.726562 C 201.449219 176.050781 195.621094 176.253906 189.671875 176.292969 L 189.671875 108.859375 L 184.898438 108.859375 L 184.898438 176.292969 C 178.949219 176.253906 173.128906 176.050781 167.460938 175.726562 L 167.417969 55.867188 L 163.621094 55.867188 L 163.621094 102.347656 C 163.621094 111.695312 151.398438 111.695312 151.441406 102.347656 L 151.441406 54.855469 C 151.441406 44.539062 157.507812 34.425781 169.605469 34.425781 L 187.28125 34.386719 L 205 34.425781 C 217.105469 34.425781 223.171875 44.539062 223.171875 54.855469 Z M 223.171875 54.855469 " fill-opacity="1" fill-rule="nonzero"/></svg>