<svg xmlns="http://www.w3.org/2000/svg" xmlns:xlink="http://www.w3.org/1999/xlink" width="24" zoomAndPan="magnify" viewBox="0 0 375 374.999991" height="24" preserveAspectRatio="xMidYMid meet" version="1.0"><path fill="#9fc7aa" d="M 367.636719 47.246094 L 334.277344 13.929688 C 330.832031 10.484375 326.304688 8.761719 321.78125 8.761719 C 317.261719 8.761719 312.738281 10.480469 309.292969 13.921875 L 282.609375 40.53125 L 340.953125 98.777344 L 367.636719 72.175781 C 374.535156 65.285156 374.535156 54.113281 367.636719 47.246094 Z M 367.636719 47.246094 " fill-opacity="1" fill-rule="nonzero"/><path fill="#9fc7aa" d="M 109.382812 213.4375 L 167.734375 271.6875 L 328.464844 111.253906 L 270.113281 53.003906 Z M 109.382812 213.4375 " fill-opacity="1" fill-rule="nonzero"/><path fill="#9fc7aa" d="M 96.789062 225.902344 L 84.332031 296.5625 L 155.140625 284.144531 Z M 96.789062 225.902344 " fill-opacity="1" fill-rule="nonzero"/><path fill="#9fc7aa" d="M 258.09375 328.050781 L 38.089844 328.050781 L 38.089844 108.046875 L 193.351562 108.046875 L 231.613281 69.859375 L 24.59375 69.859375 C 11.003906 69.859375 -0.105469 80.972656 -0.105469 94.558594 L -0.105469 341.546875 C -0.105469 355.136719 11.003906 366.246094 24.59375 366.246094 L 271.582031 366.246094 C 285.167969 366.246094 296.28125 355.136719 296.28125 341.546875 L 296.28125 164.960938 L 258.09375 203.082031 Z M 258.09375 328.050781 " fill-opacity="1" fill-rule="nonzero"/></svg>