<svg xmlns="http://www.w3.org/2000/svg" xmlns:xlink="http://www.w3.org/1999/xlink" width="97" zoomAndPan="magnify" viewBox="0 0 375 374.999991" height="77" preserveAspectRatio="xMidYMid meet" version="1.0"><defs><clipPath id="50fc8cddf2"><path d="M 0 40.78125 L 375 40.78125 L 375 334.03125 L 0 334.03125 Z M 0 40.78125 " clip-rule="nonzero"/></clipPath></defs><g clip-path="url(#50fc8cddf2)"><path fill="#00bf63" d="M 114.90625 119.792969 C 120.058594 84.328125 150.605469 57.082031 187.5 57.082031 C 224.394531 57.082031 254.941406 84.328125 260.09375 119.792969 C 260.445312 122.226562 261.878906 124.367188 263.988281 125.625 C 266.097656 126.882812 268.664062 127.121094 270.972656 126.273438 C 277.972656 123.699219 285.542969 122.292969 293.464844 122.292969 C 329.476562 122.292969 358.671875 151.488281 358.671875 187.5 C 358.671875 223.511719 329.476562 252.707031 293.464844 252.707031 L 236.40625 252.707031 C 231.90625 252.707031 228.253906 256.359375 228.253906 260.859375 C 228.253906 265.359375 231.90625 269.011719 236.40625 269.011719 L 293.464844 269.011719 C 338.480469 269.011719 374.972656 232.515625 374.972656 187.5 C 374.972656 142.484375 338.480469 105.988281 293.464844 105.988281 C 286.902344 105.988281 280.511719 106.765625 274.386719 108.234375 C 264.503906 69.457031 229.355469 40.78125 187.5 40.78125 C 145.644531 40.78125 110.496094 69.457031 100.613281 108.234375 C 94.488281 106.765625 88.097656 105.988281 81.535156 105.988281 C 36.519531 105.988281 0.0273438 142.484375 0.0273438 187.5 C 0.0273438 232.515625 36.519531 269.011719 81.535156 269.011719 L 138.59375 269.011719 C 143.09375 269.011719 146.746094 265.359375 146.746094 260.859375 C 146.746094 256.359375 143.09375 252.707031 138.59375 252.707031 L 81.535156 252.707031 C 45.523438 252.707031 16.328125 223.511719 16.328125 187.5 C 16.328125 151.488281 45.523438 122.292969 81.535156 122.292969 C 89.457031 122.292969 97.027344 123.699219 104.027344 126.273438 C 106.335938 127.121094 108.902344 126.882812 111.011719 125.625 C 113.121094 124.367188 114.554688 122.226562 114.90625 119.792969 Z M 242.171875 189.886719 L 193.265625 140.980469 C 190.082031 137.796875 184.917969 137.796875 181.734375 140.980469 L 132.832031 189.886719 C 129.648438 193.070312 129.648438 198.230469 132.832031 201.414062 C 136.011719 204.597656 141.175781 204.597656 144.355469 201.414062 L 179.347656 166.421875 L 179.347656 326.066406 C 179.347656 330.570312 183 334.21875 187.5 334.21875 C 192 334.21875 195.652344 330.570312 195.652344 326.066406 L 195.652344 166.421875 L 230.640625 201.414062 C 233.824219 204.597656 238.988281 204.597656 242.171875 201.414062 C 245.351562 198.230469 245.351562 193.070312 242.171875 189.886719 Z M 242.171875 189.886719 " fill-opacity="1" fill-rule="evenodd"/></g></svg>