<svg xmlns="http://www.w3.org/2000/svg" xmlns:xlink="http://www.w3.org/1999/xlink" width="24" zoomAndPan="magnify" viewBox="0 0 375 374.999991" height="24" preserveAspectRatio="xMidYMid meet" version="1.0"><path fill="#9fc7aa" d="M 187.335938 -0.109375 C 83.808594 -0.109375 -0.113281 83.816406 -0.113281 187.339844 C -0.113281 290.859375 83.808594 374.785156 187.335938 374.785156 C 290.851562 374.785156 374.789062 290.855469 374.789062 187.339844 C 374.789062 83.8125 290.851562 -0.109375 187.335938 -0.109375 Z M 138.558594 101.714844 L 178.1875 62.085938 C 180.785156 59.496094 184.175781 58.207031 187.566406 58.207031 C 187.601562 58.207031 187.636719 58.207031 187.664062 58.207031 C 187.699219 58.207031 187.734375 58.207031 187.761719 58.207031 C 191.15625 58.207031 194.550781 59.496094 197.148438 62.085938 L 236.773438 101.714844 C 241.957031 106.894531 241.957031 115.300781 236.773438 120.480469 C 234.183594 123.074219 230.78125 124.367188 227.390625 124.367188 C 223.988281 124.367188 220.59375 123.074219 218.003906 120.480469 L 200.492188 102.96875 L 200.492188 174.070312 C 200.492188 181.398438 194.546875 187.339844 187.214844 187.339844 C 179.882812 187.339844 173.945312 181.398438 173.945312 174.070312 L 173.945312 103.867188 L 157.328125 120.484375 C 154.730469 123.074219 151.339844 124.371094 147.945312 124.371094 C 144.546875 124.371094 141.152344 123.074219 138.558594 120.484375 C 133.375 115.300781 133.375 106.894531 138.558594 101.714844 Z M 289.277344 261.464844 C 289.277344 279.378906 271.710938 293.414062 249.28125 293.414062 L 125.398438 293.414062 C 102.972656 293.414062 85.402344 279.378906 85.402344 261.464844 L 85.402344 175.230469 C 85.402344 157.3125 102.972656 143.277344 125.398438 143.277344 L 142.128906 143.277344 C 144.03125 143.617188 145.972656 143.816406 147.949219 143.816406 C 149.910156 143.816406 151.839844 143.613281 153.734375 143.277344 L 154.5 143.277344 L 154.5 169.207031 L 125.398438 169.207031 C 116.320312 169.207031 111.332031 173.730469 111.332031 175.230469 L 111.332031 261.464844 C 111.332031 262.964844 116.320312 267.484375 125.398438 267.484375 L 249.285156 267.484375 C 258.363281 267.484375 263.351562 262.960938 263.351562 261.464844 L 263.351562 175.230469 C 263.351562 173.730469 258.363281 169.207031 249.285156 169.207031 L 219.9375 169.207031 L 219.9375 143.277344 L 221.734375 143.277344 C 223.582031 143.597656 225.464844 143.816406 227.390625 143.816406 C 229.363281 143.816406 231.304688 143.617188 233.210938 143.277344 L 249.285156 143.277344 C 271.714844 143.277344 289.28125 157.316406 289.28125 175.230469 L 289.28125 261.464844 Z M 289.277344 261.464844 " fill-opacity="1" fill-rule="nonzero"/></svg>