<svg xmlns="http://www.w3.org/2000/svg" xmlns:xlink="http://www.w3.org/1999/xlink" width="24" zoomAndPan="magnify" viewBox="0 0 375 374.999991" height="24" preserveAspectRatio="xMidYMid meet" version="1.0"><path fill="#00bf63" d="M 187.5 0 C 83.875 0 0 83.859375 0 187.5 C 0 291.125 83.859375 375 187.5 375 C 291.125 375 375 291.140625 375 187.5 C 375 83.875 291.140625 0 187.5 0 Z M 187.5 352.941406 C 96.277344 352.941406 22.058594 278.722656 22.058594 187.5 C 22.058594 96.277344 96.277344 22.058594 187.5 22.058594 C 278.722656 22.058594 352.941406 96.277344 352.941406 187.5 C 352.941406 278.722656 278.722656 352.941406 187.5 352.941406 Z M 187.5 352.941406 " fill-opacity="1" fill-rule="nonzero"/><path fill="#00bf63" d="M 286.765625 253.675781 L 174.574219 253.675781 C 170.019531 240.839844 157.761719 231.617188 143.382812 231.617188 C 129.003906 231.617188 116.742188 240.839844 112.191406 253.675781 L 88.234375 253.675781 C 82.144531 253.675781 77.207031 258.613281 77.207031 264.707031 C 77.207031 270.796875 82.144531 275.734375 88.234375 275.734375 L 112.191406 275.734375 C 116.742188 288.574219 129.003906 297.792969 143.382812 297.792969 C 157.761719 297.792969 170.019531 288.574219 174.574219 275.734375 L 286.765625 275.734375 C 292.855469 275.734375 297.792969 270.796875 297.792969 264.707031 C 297.792969 258.613281 292.855469 253.675781 286.765625 253.675781 Z M 286.765625 253.675781 " fill-opacity="1" fill-rule="nonzero"/><path fill="#00bf63" d="M 286.765625 110.292969 L 174.574219 110.292969 C 170.019531 97.457031 157.761719 88.234375 143.382812 88.234375 C 129.003906 88.234375 116.742188 97.457031 112.191406 110.292969 L 88.234375 110.292969 C 82.144531 110.292969 77.207031 115.230469 77.207031 121.324219 C 77.207031 127.414062 82.144531 132.351562 88.234375 132.351562 L 112.191406 132.351562 C 116.742188 145.191406 129.003906 154.410156 143.382812 154.410156 C 157.761719 154.410156 170.019531 145.191406 174.574219 132.351562 L 286.765625 132.351562 C 292.855469 132.351562 297.792969 127.414062 297.792969 121.324219 C 297.792969 115.230469 292.855469 110.292969 286.765625 110.292969 Z M 286.765625 110.292969 " fill-opacity="1" fill-rule="nonzero"/><path fill="#00bf63" d="M 286.765625 176.46875 L 262.808594 176.46875 C 258.257812 163.632812 245.996094 154.410156 231.617188 154.410156 C 217.238281 154.410156 204.980469 163.632812 200.425781 176.46875 L 88.234375 176.46875 C 82.144531 176.46875 77.207031 181.410156 77.207031 187.5 C 77.207031 193.589844 82.144531 198.53125 88.234375 198.53125 L 200.425781 198.53125 C 204.980469 211.367188 217.238281 220.589844 231.617188 220.589844 C 245.996094 220.589844 258.257812 211.367188 262.808594 198.53125 L 286.765625 198.53125 C 292.855469 198.53125 297.792969 193.589844 297.792969 187.5 C 297.792969 181.410156 292.855469 176.46875 286.765625 176.46875 Z M 286.765625 176.46875 " fill-opacity="1" fill-rule="nonzero"/></svg>