<svg xmlns="http://www.w3.org/2000/svg" xmlns:xlink="http://www.w3.org/1999/xlink" width="24" zoomAndPan="magnify" viewBox="0 0 375 374.999991" height="24" preserveAspectRatio="xMidYMid meet" version="1.0"><defs><clipPath id="66514e4eb2"><path d="M 0 51.796875 L 375 51.796875 L 375 323.296875 L 0 323.296875 Z M 0 51.796875 " clip-rule="nonzero"/></clipPath></defs><g clip-path="url(#66514e4eb2)"><path fill="#9fc7aa" d="M 29.207031 51.832031 L 345.828125 51.832031 C 361.785156 51.832031 374.832031 64.878906 374.832031 80.835938 C 374.832031 96.792969 361.785156 109.835938 345.828125 109.835938 L 29.207031 109.835938 C 13.25 109.835938 0.207031 96.792969 0.207031 80.835938 C 0.207031 64.878906 13.25 51.832031 29.207031 51.832031 Z M 115.125 265.238281 L 259.929688 265.238281 C 275.886719 265.238281 288.933594 278.28125 288.933594 294.238281 C 288.933594 310.195312 275.886719 323.238281 259.929688 323.238281 L 115.125 323.238281 C 99.167969 323.238281 86.125 310.195312 86.125 294.238281 C 86.125 278.28125 99.167969 265.238281 115.125 265.238281 Z M 70.257812 158.535156 L 304.816406 158.535156 C 320.753906 158.535156 333.816406 171.582031 333.816406 187.535156 C 333.816406 203.492188 320.769531 216.539062 304.816406 216.539062 L 70.257812 216.539062 C 54.320312 216.539062 41.257812 203.492188 41.257812 187.535156 C 41.257812 171.582031 54.304688 158.535156 70.257812 158.535156 Z M 70.257812 158.535156 " fill-opacity="1" fill-rule="evenodd"/></g></svg>