<svg xmlns="http://www.w3.org/2000/svg" xmlns:xlink="http://www.w3.org/1999/xlink" width="24" zoomAndPan="magnify" viewBox="0 0 375 374.999991" height="24" preserveAspectRatio="xMidYMid meet" version="1.0"><path fill="#9fc7aa" d="M 187.5 0 C 84.074219 0 0 84.074219 0 187.5 C 0 290.925781 84.074219 375 187.5 375 C 290.925781 375 375 290.925781 375 187.5 C 375 84.074219 290.925781 0 187.5 0 Z M 292.863281 205.644531 L 205.644531 205.644531 L 205.644531 292.863281 C 205.644531 302.78125 197.539062 311.007812 187.5 311.007812 C 177.460938 311.007812 169.355469 302.78125 169.355469 292.863281 L 169.355469 205.644531 L 82.136719 205.644531 C 72.21875 205.644531 63.992188 197.539062 63.992188 187.5 C 63.992188 177.460938 72.21875 169.355469 82.136719 169.355469 L 169.355469 169.355469 L 169.355469 82.136719 C 169.355469 72.21875 177.460938 63.992188 187.5 63.992188 C 197.539062 63.992188 205.644531 72.21875 205.644531 82.136719 L 205.644531 169.355469 L 292.863281 169.355469 C 302.78125 169.355469 311.007812 177.460938 311.007812 187.5 C 311.007812 197.539062 302.78125 205.644531 292.863281 205.644531 Z M 292.863281 205.644531 " fill-opacity="1" fill-rule="nonzero"/></svg>