<svg xmlns="http://www.w3.org/2000/svg" xmlns:xlink="http://www.w3.org/1999/xlink" width="24" zoomAndPan="magnify" viewBox="0 0 375 374.999991" height="24" preserveAspectRatio="xMidYMid meet" version="1.0"><defs><clipPath id="110ccca770"><path d="M 9.164062 9.164062 L 367.664062 9.164062 L 367.664062 367.664062 L 9.164062 367.664062 Z M 9.164062 9.164062 " clip-rule="nonzero"/></clipPath></defs><g clip-path="url(#110ccca770)"><path fill="#00bf63" d="M 277.53125 9.421875 L 98.960938 9.421875 C 49.585938 9.421875 9.421875 49.585938 9.421875 98.960938 L 9.421875 277.53125 C 9.421875 326.90625 49.585938 367.070312 98.960938 367.070312 L 277.53125 367.070312 C 326.90625 367.070312 367.070312 326.90625 367.070312 277.53125 L 367.070312 98.960938 C 367.070312 49.585938 326.90625 9.421875 277.53125 9.421875 Z M 252.203125 201.035156 L 201.035156 201.035156 L 201.035156 252.203125 C 201.035156 259.238281 195.28125 264.992188 188.246094 264.992188 C 181.210938 264.992188 175.453125 259.238281 175.453125 252.203125 L 175.453125 201.035156 L 124.289062 201.035156 C 117.253906 201.035156 111.496094 195.28125 111.496094 188.246094 C 111.496094 181.210938 117.253906 175.453125 124.289062 175.453125 L 175.453125 175.453125 L 175.453125 124.289062 C 175.453125 117.253906 181.210938 111.496094 188.246094 111.496094 C 195.28125 111.496094 201.035156 117.253906 201.035156 124.289062 L 201.035156 175.453125 L 252.203125 175.453125 C 259.238281 175.453125 264.992188 181.210938 264.992188 188.246094 C 264.992188 195.28125 259.238281 201.035156 252.203125 201.035156 Z M 252.203125 201.035156 " fill-opacity="1" fill-rule="nonzero"/></g></svg>