<svg xmlns="http://www.w3.org/2000/svg" xmlns:xlink="http://www.w3.org/1999/xlink" width="24" zoomAndPan="magnify" viewBox="0 0 375 374.999991" height="24" preserveAspectRatio="xMidYMid meet" version="1.0"><path fill="#00bf63" d="M 187.5 0 C 184.429688 0 181.363281 0.0742188 178.300781 0.226562 C 175.234375 0.375 172.175781 0.601562 169.121094 0.902344 C 166.066406 1.203125 163.023438 1.578125 159.988281 2.03125 C 156.953125 2.480469 153.929688 3.003906 150.921875 3.601562 C 147.910156 4.203125 144.917969 4.875 141.941406 5.617188 C 138.964844 6.363281 136.007812 7.183594 133.070312 8.074219 C 130.136719 8.964844 127.222656 9.925781 124.332031 10.960938 C 121.445312 11.996094 118.582031 13.097656 115.746094 14.273438 C 112.910156 15.445312 110.105469 16.691406 107.332031 18.003906 C 104.558594 19.3125 101.820312 20.691406 99.113281 22.140625 C 96.40625 23.585938 93.738281 25.097656 91.105469 26.675781 C 88.472656 28.253906 85.882812 29.894531 83.332031 31.597656 C 80.777344 33.304688 78.269531 35.070312 75.804688 36.898438 C 73.339844 38.726562 70.921875 40.613281 68.550781 42.558594 C 66.179688 44.507812 63.855469 46.511719 61.582031 48.570312 C 59.308594 50.632812 57.085938 52.746094 54.917969 54.917969 C 52.746094 57.085938 50.632812 59.308594 48.570312 61.582031 C 46.511719 63.855469 44.507812 66.179688 42.558594 68.550781 C 40.613281 70.921875 38.726562 73.339844 36.898438 75.804688 C 35.070312 78.269531 33.304688 80.777344 31.597656 83.332031 C 29.894531 85.882812 28.253906 88.472656 26.675781 91.105469 C 25.097656 93.738281 23.585938 96.40625 22.140625 99.113281 C 20.691406 101.820312 19.3125 104.558594 18.003906 107.332031 C 16.691406 110.105469 15.445312 112.910156 14.273438 115.746094 C 13.097656 118.582031 11.996094 121.445312 10.960938 124.332031 C 9.925781 127.222656 8.964844 130.136719 8.074219 133.070312 C 7.183594 136.007812 6.363281 138.964844 5.621094 141.941406 C 4.875 144.917969 4.203125 147.910156 3.601562 150.921875 C 3.003906 153.929688 2.480469 156.953125 2.03125 159.988281 C 1.578125 163.023438 1.203125 166.066406 0.902344 169.121094 C 0.601562 172.175781 0.375 175.234375 0.226562 178.300781 C 0.0742188 181.363281 0 184.429688 0 187.5 C 0 190.570312 0.0742188 193.636719 0.226562 196.699219 C 0.375 199.765625 0.601562 202.824219 0.902344 205.878906 C 1.203125 208.933594 1.578125 211.976562 2.03125 215.011719 C 2.480469 218.046875 3.003906 221.070312 3.601562 224.078125 C 4.203125 227.089844 4.875 230.082031 5.621094 233.058594 C 6.363281 236.035156 7.183594 238.992188 8.074219 241.929688 C 8.964844 244.863281 9.925781 247.777344 10.960938 250.667969 C 11.996094 253.554688 13.097656 256.417969 14.273438 259.253906 C 15.445312 262.089844 16.691406 264.894531 18.003906 267.667969 C 19.3125 270.441406 20.691406 273.179688 22.140625 275.886719 C 23.585938 278.59375 25.097656 281.261719 26.675781 283.894531 C 28.253906 286.527344 29.894531 289.117188 31.597656 291.667969 C 33.304688 294.222656 35.070312 296.730469 36.898438 299.195312 C 38.726562 301.660156 40.613281 304.078125 42.558594 306.449219 C 44.507812 308.820312 46.511719 311.144531 48.570312 313.417969 C 50.632812 315.691406 52.746094 317.914062 54.917969 320.082031 C 57.085938 322.253906 59.308594 324.367188 61.582031 326.429688 C 63.855469 328.488281 66.179688 330.492188 68.550781 332.441406 C 70.921875 334.386719 73.339844 336.273438 75.804688 338.101562 C 78.269531 339.929688 80.777344 341.695312 83.332031 343.402344 C 85.882812 345.105469 88.472656 346.746094 91.105469 348.324219 C 93.738281 349.902344 96.40625 351.414062 99.113281 352.859375 C 101.820312 354.308594 104.558594 355.6875 107.332031 356.996094 C 110.105469 358.308594 112.910156 359.554688 115.746094 360.726562 C 118.582031 361.902344 121.445312 363.003906 124.332031 364.039062 C 127.222656 365.074219 130.136719 366.035156 133.070312 366.925781 C 136.007812 367.816406 138.964844 368.636719 141.941406 369.378906 C 144.917969 370.125 147.910156 370.796875 150.921875 371.398438 C 153.929688 371.996094 156.953125 372.519531 159.988281 372.96875 C 163.023438 373.421875 166.066406 373.796875 169.121094 374.097656 C 172.175781 374.398438 175.234375 374.625 178.300781 374.773438 C 181.363281 374.925781 184.429688 375 187.5 375 C 190.570312 375 193.636719 374.925781 196.699219 374.773438 C 199.765625 374.625 202.824219 374.398438 205.878906 374.097656 C 208.933594 373.796875 211.976562 373.421875 215.011719 372.96875 C 218.046875 372.519531 221.070312 371.996094 224.078125 371.398438 C 227.089844 370.796875 230.082031 370.125 233.058594 369.378906 C 236.035156 368.636719 238.992188 367.816406 241.929688 366.925781 C 244.863281 366.035156 247.777344 365.074219 250.667969 364.039062 C 253.554688 363.003906 256.417969 361.902344 259.253906 360.726562 C 262.089844 359.554688 264.894531 358.308594 267.667969 356.996094 C 270.441406 355.6875 273.179688 354.308594 275.886719 352.859375 C 278.59375 351.414062 281.261719 349.902344 283.894531 348.324219 C 286.527344 346.746094 289.117188 345.105469 291.667969 343.402344 C 294.222656 341.695312 296.730469 339.929688 299.195312 338.101562 C 301.660156 336.273438 304.078125 334.386719 306.449219 332.4375 C 308.820312 330.492188 311.144531 328.488281 313.417969 326.429688 C 315.691406 324.367188 317.914062 322.253906 320.082031 320.082031 C 322.253906 317.914062 324.367188 315.691406 326.429688 313.417969 C 328.488281 311.144531 330.492188 308.820312 332.441406 306.449219 C 334.386719 304.078125 336.273438 301.660156 338.101562 299.195312 C 339.929688 296.730469 341.695312 294.222656 343.402344 291.667969 C 345.105469 289.117188 346.746094 286.527344 348.324219 283.894531 C 349.902344 281.261719 351.414062 278.59375 352.859375 275.886719 C 354.308594 273.179688 355.6875 270.441406 356.996094 267.667969 C 358.308594 264.894531 359.554688 262.089844 360.726562 259.253906 C 361.902344 256.417969 363.003906 253.554688 364.039062 250.667969 C 365.074219 247.777344 366.035156 244.863281 366.925781 241.929688 C 367.816406 238.992188 368.636719 236.035156 369.378906 233.058594 C 370.125 230.082031 370.796875 227.089844 371.398438 224.078125 C 371.996094 221.070312 372.519531 218.046875 372.96875 215.011719 C 373.421875 211.976562 373.796875 208.933594 374.097656 205.878906 C 374.398438 202.824219 374.625 199.765625 374.773438 196.699219 C 374.925781 193.636719 375 190.570312 375 187.5 C 375 184.429688 374.925781 181.363281 374.773438 178.300781 C 374.621094 175.234375 374.394531 172.175781 374.09375 169.121094 C 373.792969 166.070312 373.417969 163.023438 372.96875 159.988281 C 372.515625 156.953125 371.992188 153.933594 371.394531 150.921875 C 370.792969 147.914062 370.121094 144.917969 369.375 141.941406 C 368.628906 138.96875 367.8125 136.011719 366.921875 133.074219 C 366.03125 130.136719 365.066406 127.226562 364.035156 124.335938 C 363 121.445312 361.894531 118.585938 360.722656 115.75 C 359.546875 112.914062 358.304688 110.113281 356.992188 107.335938 C 355.679688 104.5625 354.300781 101.824219 352.851562 99.117188 C 351.40625 96.410156 349.894531 93.742188 348.316406 91.109375 C 346.738281 88.480469 345.097656 85.886719 343.394531 83.335938 C 341.6875 80.785156 339.921875 78.277344 338.09375 75.8125 C 336.265625 73.347656 334.378906 70.929688 332.433594 68.558594 C 330.484375 66.1875 328.480469 63.863281 326.421875 61.589844 C 324.359375 59.316406 322.246094 57.09375 320.074219 54.925781 C 317.90625 52.753906 315.683594 50.640625 313.410156 48.578125 C 311.136719 46.519531 308.8125 44.515625 306.441406 42.566406 C 304.070312 40.621094 301.652344 38.734375 299.1875 36.90625 C 296.722656 35.078125 294.214844 33.3125 291.664062 31.605469 C 289.113281 29.902344 286.519531 28.261719 283.890625 26.683594 C 281.257812 25.105469 278.589844 23.59375 275.882812 22.148438 C 273.175781 20.699219 270.4375 19.320312 267.664062 18.007812 C 264.886719 16.695312 262.085938 15.453125 259.25 14.277344 C 256.414062 13.105469 253.550781 12 250.664062 10.964844 C 247.773438 9.933594 244.863281 8.96875 241.925781 8.078125 C 238.988281 7.1875 236.03125 6.371094 233.058594 5.625 C 230.082031 4.878906 227.085938 4.207031 224.078125 3.605469 C 221.066406 3.007812 218.046875 2.484375 215.011719 2.03125 C 211.976562 1.582031 208.929688 1.207031 205.878906 0.90625 C 202.824219 0.605469 199.765625 0.378906 196.699219 0.226562 C 193.636719 0.0742188 190.570312 0 187.5 0 Z M 304.160156 157.675781 C 303.996094 158.203125 303.792969 158.714844 303.546875 159.207031 C 303.300781 159.703125 303.019531 160.171875 302.699219 160.621094 C 302.378906 161.070312 302.023438 161.492188 301.636719 161.882812 C 301.246094 162.277344 300.828125 162.632812 300.382812 162.960938 C 299.9375 163.285156 299.46875 163.574219 298.976562 163.824219 C 298.484375 164.074219 297.976562 164.28125 297.453125 164.449219 C 296.925781 164.617188 296.390625 164.742188 295.84375 164.824219 C 295.300781 164.910156 294.75 164.945312 294.199219 164.941406 L 283.769531 164.941406 L 283.769531 270.351562 C 283.769531 271.398438 283.714844 272.441406 283.613281 273.480469 C 283.507812 274.519531 283.355469 275.554688 283.148438 276.578125 C 282.945312 277.605469 282.691406 278.617188 282.386719 279.617188 C 282.082031 280.617188 281.730469 281.601562 281.328125 282.566406 C 280.929688 283.53125 280.480469 284.476562 279.988281 285.398438 C 279.496094 286.320312 278.957031 287.214844 278.375 288.085938 C 277.796875 288.953125 277.171875 289.792969 276.507812 290.601562 C 275.847656 291.40625 275.144531 292.183594 274.40625 292.921875 C 273.667969 293.660156 272.890625 294.363281 272.085938 295.023438 C 271.277344 295.6875 270.4375 296.3125 269.570312 296.890625 C 268.699219 297.472656 267.804688 298.011719 266.882812 298.503906 C 265.960938 298.996094 265.015625 299.445312 264.050781 299.84375 C 263.085938 300.246094 262.101562 300.597656 261.101562 300.902344 C 260.101562 301.207031 259.089844 301.460938 258.0625 301.664062 C 257.039062 301.871094 256.003906 302.023438 254.964844 302.128906 C 253.925781 302.230469 252.882812 302.285156 251.835938 302.285156 L 220.371094 302.285156 C 219.964844 302.28125 219.5625 302.238281 219.167969 302.15625 C 218.769531 302.074219 218.382812 301.957031 218.011719 301.796875 C 217.636719 301.640625 217.28125 301.449219 216.945312 301.222656 C 216.609375 300.992188 216.300781 300.734375 216.015625 300.449219 C 215.730469 300.160156 215.472656 299.847656 215.25 299.507812 C 215.027344 299.171875 214.835938 298.8125 214.683594 298.4375 C 214.53125 298.0625 214.414062 297.675781 214.335938 297.28125 C 214.257812 296.882812 214.21875 296.480469 214.21875 296.074219 L 214.21875 240.9375 C 214.21875 239.996094 214.125 239.0625 213.9375 238.136719 C 213.753906 237.214844 213.480469 236.316406 213.121094 235.449219 C 212.757812 234.578125 212.316406 233.75 211.792969 232.96875 C 211.269531 232.183594 210.671875 231.460938 210.007812 230.792969 C 209.339844 230.128906 208.617188 229.53125 207.832031 229.007812 C 207.050781 228.484375 206.222656 228.042969 205.351562 227.679688 C 204.484375 227.320312 203.585938 227.046875 202.664062 226.863281 C 201.738281 226.675781 200.804688 226.582031 199.863281 226.582031 L 175.136719 226.582031 C 174.195312 226.582031 173.261719 226.675781 172.335938 226.863281 C 171.414062 227.046875 170.515625 227.320312 169.648438 227.679688 C 168.777344 228.042969 167.949219 228.484375 167.167969 229.007812 C 166.382812 229.53125 165.660156 230.128906 164.992188 230.792969 C 164.328125 231.460938 163.730469 232.183594 163.207031 232.96875 C 162.683594 233.75 162.242188 234.578125 161.878906 235.449219 C 161.519531 236.316406 161.246094 237.214844 161.0625 238.136719 C 160.875 239.0625 160.78125 239.996094 160.78125 240.9375 L 160.78125 296.074219 C 160.78125 296.480469 160.742188 296.882812 160.664062 297.28125 C 160.585938 297.675781 160.46875 298.0625 160.316406 298.4375 C 160.164062 298.8125 159.972656 299.171875 159.75 299.507812 C 159.527344 299.847656 159.269531 300.160156 158.984375 300.449219 C 158.699219 300.734375 158.390625 300.992188 158.054688 301.222656 C 157.71875 301.449219 157.363281 301.640625 156.988281 301.796875 C 156.617188 301.957031 156.230469 302.074219 155.832031 302.15625 C 155.4375 302.238281 155.035156 302.28125 154.628906 302.285156 L 123.164062 302.285156 C 122.117188 302.285156 121.074219 302.230469 120.035156 302.128906 C 118.996094 302.023438 117.960938 301.871094 116.9375 301.664062 C 115.910156 301.460938 114.898438 301.207031 113.898438 300.902344 C 112.898438 300.597656 111.914062 300.246094 110.949219 299.84375 C 109.984375 299.445312 109.039062 298.996094 108.117188 298.503906 C 107.195312 298.011719 106.300781 297.472656 105.429688 296.890625 C 104.5625 296.3125 103.722656 295.6875 102.914062 295.023438 C 102.105469 294.363281 101.332031 293.660156 100.59375 292.921875 C 99.855469 292.183594 99.152344 291.40625 98.492188 290.601562 C 97.828125 289.792969 97.203125 288.953125 96.625 288.085938 C 96.042969 287.214844 95.503906 286.320312 95.011719 285.398438 C 94.519531 284.476562 94.070312 283.53125 93.671875 282.566406 C 93.269531 281.601562 92.917969 280.617188 92.613281 279.617188 C 92.308594 278.617188 92.054688 277.605469 91.851562 276.578125 C 91.644531 275.554688 91.492188 274.519531 91.386719 273.480469 C 91.285156 272.441406 91.230469 271.398438 91.230469 270.351562 L 91.230469 164.941406 L 80.800781 164.941406 C 79.695312 164.941406 78.617188 164.773438 77.5625 164.433594 C 76.511719 164.089844 75.539062 163.59375 74.644531 162.945312 C 73.75 162.292969 72.976562 161.519531 72.328125 160.625 C 71.679688 159.730469 71.1875 158.753906 70.847656 157.703125 C 70.507812 156.648438 70.34375 155.570312 70.347656 154.464844 C 70.351562 153.359375 70.527344 152.28125 70.871094 151.230469 C 71.21875 150.179688 71.71875 149.207031 72.375 148.316406 C 73.03125 147.425781 73.808594 146.660156 74.707031 146.015625 L 168.984375 78.691406 C 170.328125 77.734375 171.734375 76.882812 173.210938 76.144531 C 174.683594 75.402344 176.207031 74.78125 177.777344 74.277344 C 179.347656 73.773438 180.949219 73.394531 182.582031 73.140625 C 184.210938 72.886719 185.851562 72.757812 187.5 72.757812 C 189.148438 72.757812 190.789062 72.886719 192.417969 73.140625 C 194.050781 73.394531 195.648438 73.773438 197.222656 74.277344 C 198.792969 74.78125 200.316406 75.402344 201.789062 76.144531 C 203.265625 76.882812 204.671875 77.734375 206.015625 78.691406 L 300.292969 146.015625 C 300.742188 146.332031 301.160156 146.683594 301.554688 147.066406 C 301.945312 147.453125 302.304688 147.863281 302.632812 148.304688 C 302.957031 148.746094 303.246094 149.210938 303.5 149.699219 C 303.753906 150.1875 303.964844 150.691406 304.140625 151.210938 C 304.3125 151.730469 304.441406 152.265625 304.53125 152.804688 C 304.621094 153.347656 304.664062 153.894531 304.667969 154.441406 C 304.667969 154.992188 304.625 155.535156 304.542969 156.078125 C 304.457031 156.621094 304.328125 157.152344 304.160156 157.675781 Z M 304.160156 157.675781 " fill-opacity="1" fill-rule="nonzero"/></svg>