<svg xmlns="http://www.w3.org/2000/svg" xmlns:xlink="http://www.w3.org/1999/xlink" width="24" zoomAndPan="magnify" viewBox="0 0 375 374.999991" height="24" preserveAspectRatio="xMidYMid meet" version="1.0"><defs><clipPath id="93275fc3c7"><path d="M 9 25.546875 L 366 25.546875 L 366 349.546875 L 9 349.546875 Z M 9 25.546875 " clip-rule="nonzero"/></clipPath></defs><g clip-path="url(#93275fc3c7)"><path fill="#9fc7aa" d="M 270.976562 25.613281 C 230.085938 25.613281 200.546875 49.074219 187.476562 61.890625 C 174.402344 49.074219 144.914062 25.613281 104.023438 25.613281 C 69.113281 25.613281 38.355469 45.628906 21.789062 79.121094 C 0 123.152344 8.460938 179.292969 44.132812 226.007812 C 86.746094 276.523438 148.359375 325.675781 172.882812 344.472656 C 177.1875 347.765625 182.304688 349.386719 187.476562 349.386719 C 192.644531 349.386719 197.761719 347.765625 202.066406 344.472656 C 226.589844 325.675781 288.203125 276.523438 331.121094 225.652344 C 366.539062 179.292969 375 123.152344 353.210938 79.121094 C 336.644531 45.628906 305.886719 25.613281 270.976562 25.613281 Z M 316.273438 213.746094 C 274.878906 262.84375 214.53125 310.980469 190.515625 329.371094 C 188.742188 330.742188 186.257812 330.742188 184.484375 329.371094 C 160.46875 310.980469 100.121094 262.84375 59.027344 214.101562 C 21.992188 165.609375 24.320312 116.917969 38.863281 87.53125 C 52.1875 60.625 76.511719 44.613281 104.023438 44.613281 C 149.726562 44.613281 179.773438 81.398438 180.078125 81.753906 C 183.675781 86.3125 191.375 86.3125 194.972656 81.753906 C 195.277344 81.398438 225.019531 44.613281 271.027344 44.613281 C 298.539062 44.613281 322.863281 60.675781 336.1875 87.53125 C 350.679688 116.96875 353.007812 165.660156 316.273438 213.746094 Z M 316.273438 213.746094 " fill-opacity="1" fill-rule="nonzero"/></g></svg>