<svg xmlns="http://www.w3.org/2000/svg" xmlns:xlink="http://www.w3.org/1999/xlink" width="24" zoomAndPan="magnify" viewBox="0 0 375 374.999991" height="24" preserveAspectRatio="xMidYMid meet" version="1.0"><path fill="#9fc7aa" d="M 374.90625 132.914062 C 375 170.863281 352.941406 204.230469 328.453125 231.335938 C 318.449219 242.367188 307.980469 252.835938 297.046875 262.929688 C 265.078125 292.558594 230.121094 318.636719 196.941406 346.867188 C 195.632812 347.988281 188.246094 352.941406 187.5 354.808594 C 187.5 354.808594 187.5 354.902344 187.5 354.902344 C 187.5 354.902344 187.5 354.808594 187.5 354.808594 C 186.753906 352.941406 179.367188 347.988281 178.058594 346.867188 C 144.878906 318.636719 109.921875 292.558594 77.953125 262.929688 C 67.109375 252.835938 56.550781 242.367188 46.546875 231.335938 C 22.058594 204.230469 0 170.957031 0.09375 132.914062 C 0.1875 97.488281 18.226562 62.8125 47.296875 42.621094 C 68.699219 27.761719 96.085938 20.097656 121.789062 26.453125 C 124.5 27.105469 127.210938 27.949219 129.828125 28.882812 C 149.082031 35.890625 166.375 48.136719 178.902344 64.402344 C 182.359375 68.886719 185.535156 73.839844 186.84375 79.355469 C 187.21875 81.039062 187.40625 82.71875 187.5 84.402344 C 187.59375 82.71875 187.78125 81.039062 188.152344 79.355469 C 189.460938 73.839844 192.546875 68.886719 196.097656 64.402344 C 208.625 48.136719 225.914062 35.890625 245.171875 28.882812 C 247.789062 27.949219 250.5 27.105469 253.210938 26.453125 C 278.914062 20.097656 306.300781 27.855469 327.703125 42.621094 C 356.867188 62.90625 374.90625 97.488281 374.90625 132.914062 Z M 374.90625 132.914062 " fill-opacity="1" fill-rule="nonzero"/></svg>