<svg xmlns="http://www.w3.org/2000/svg" xmlns:xlink="http://www.w3.org/1999/xlink" width="24" zoomAndPan="magnify" viewBox="0 0 375 374.999991" height="24" preserveAspectRatio="xMidYMid meet" version="1.0"><defs><clipPath id="e99704f2b3"><path d="M 8 34 L 367 34 L 367 346.703125 L 8 346.703125 Z M 8 34 " clip-rule="nonzero"/></clipPath></defs><g clip-path="url(#e99704f2b3)"><path fill="#00bf63" d="M 187.363281 346.972656 C 184.960938 346.957031 183.402344 345.601562 183.046875 345.277344 L 44.339844 206.570312 C 11.328125 176.695312 -0.0234375 131.160156 15.359375 93.359375 C 33.292969 49.300781 78.558594 37.804688 81.605469 37.09375 C 120.5 28.015625 162.070312 44.925781 187.40625 79.425781 C 212.742188 44.925781 254.320312 28.015625 293.203125 37.09375 C 295.160156 37.550781 341.3125 48.777344 359.449219 93.359375 C 374.953125 131.460938 363.304688 176.9375 330.46875 206.570312 L 191.765625 345.277344 C 191.417969 345.59375 189.820312 346.988281 187.363281 346.972656 Z M 187.363281 346.972656 " fill-opacity="1" fill-rule="nonzero"/></g></svg>