<svg xmlns="http://www.w3.org/2000/svg" xmlns:xlink="http://www.w3.org/1999/xlink" width="24" zoomAndPan="magnify" viewBox="0 0 375 374.999991" height="24" preserveAspectRatio="xMidYMid meet" version="1.0"><defs><clipPath id="3e86791311"><path d="M 7 36 L 368 36 L 368 343.363281 L 7 343.363281 Z M 7 36 " clip-rule="nonzero"/></clipPath></defs><g clip-path="url(#3e86791311)"><path fill="#00bf63" d="M 187.5 343.839844 L 179.417969 337.898438 C 125.742188 297.289062 76.367188 251.992188 31.296875 202.007812 C 29.902344 200.503906 28.558594 198.957031 27.265625 197.367188 C 25.976562 195.773438 24.742188 194.140625 23.5625 192.460938 C 22.382812 190.785156 21.261719 189.070312 20.199219 187.320312 C 19.136719 185.566406 18.136719 183.78125 17.195312 181.957031 C 16.253906 180.136719 15.375 178.289062 14.558594 176.40625 C 13.742188 174.527344 12.992188 172.621094 12.308594 170.6875 C 11.621094 168.757812 11.003906 166.804688 10.449219 164.832031 C 9.894531 162.855469 9.410156 160.867188 8.992188 158.859375 C 8.574219 156.851562 8.226562 154.835938 7.945312 152.804688 C 7.664062 150.773438 7.453125 148.738281 7.3125 146.691406 C 7.171875 144.648438 7.097656 142.601562 7.09375 140.550781 C 7.09375 138.5 7.160156 136.453125 7.296875 134.40625 C 7.433594 132.363281 7.640625 130.324219 7.914062 128.292969 C 8.1875 126.261719 8.53125 124.242188 8.945312 122.234375 C 9.359375 120.226562 9.835938 118.234375 10.386719 116.261719 C 10.933594 114.285156 11.546875 112.332031 12.226562 110.398438 C 12.996094 108.136719 13.835938 105.90625 14.746094 103.699219 C 15.660156 101.492188 16.640625 99.320312 17.695312 97.175781 C 18.746094 95.035156 19.871094 92.929688 21.058594 90.859375 C 22.25 88.792969 23.507812 86.761719 24.828125 84.777344 C 26.148438 82.789062 27.535156 80.847656 28.984375 78.949219 C 30.433594 77.050781 31.941406 75.203125 33.507812 73.40625 C 35.078125 71.605469 36.703125 69.859375 38.386719 68.164062 C 40.066406 66.472656 41.800781 64.835938 43.589844 63.253906 C 45.378906 61.675781 47.21875 60.152344 49.105469 58.691406 C 50.992188 57.230469 52.925781 55.832031 54.902344 54.496094 C 56.882812 53.160156 58.902344 51.890625 60.964844 50.6875 C 63.023438 49.484375 65.121094 48.347656 67.257812 47.28125 C 69.390625 46.210938 71.558594 45.214844 73.757812 44.289062 C 75.957031 43.363281 78.1875 42.507812 80.441406 41.726562 C 82.695312 40.945312 84.972656 40.234375 87.277344 39.601562 C 89.578125 38.96875 91.894531 38.410156 94.234375 37.925781 C 127.464844 31.570312 160.140625 42.625 187.5 69.152344 C 214.789062 42.625 247.464844 31.570312 280.695312 37.925781 C 283.035156 38.410156 285.355469 38.96875 287.65625 39.601562 C 289.957031 40.234375 292.234375 40.945312 294.488281 41.726562 C 296.746094 42.507812 298.972656 43.363281 301.171875 44.289062 C 303.371094 45.214844 305.539062 46.210938 307.675781 47.28125 C 309.808594 48.347656 311.90625 49.484375 313.96875 50.6875 C 316.027344 51.890625 318.046875 53.160156 320.027344 54.496094 C 322.003906 55.832031 323.9375 57.230469 325.824219 58.691406 C 327.714844 60.152344 329.550781 61.675781 331.339844 63.253906 C 333.128906 64.835938 334.863281 66.472656 336.546875 68.164062 C 338.226562 69.859375 339.851562 71.605469 341.421875 73.40625 C 342.992188 75.203125 344.5 77.050781 345.945312 78.949219 C 347.394531 80.847656 348.78125 82.789062 350.101562 84.777344 C 351.425781 86.761719 352.679688 88.792969 353.871094 90.859375 C 355.0625 92.929688 356.183594 95.035156 357.238281 97.175781 C 358.289062 99.320312 359.273438 101.492188 360.183594 103.699219 C 361.097656 105.90625 361.9375 108.136719 362.703125 110.398438 C 363.386719 112.332031 364.003906 114.285156 364.554688 116.261719 C 365.105469 118.234375 365.585938 120.226562 366 122.234375 C 366.414062 124.242188 366.761719 126.261719 367.039062 128.292969 C 367.316406 130.324219 367.523438 132.363281 367.660156 134.410156 C 367.796875 136.453125 367.867188 138.503906 367.863281 140.550781 C 367.863281 142.601562 367.792969 144.648438 367.652344 146.695312 C 367.511719 148.742188 367.300781 150.777344 367.019531 152.808594 C 366.738281 154.839844 366.390625 156.859375 365.972656 158.867188 C 365.554688 160.875 365.070312 162.863281 364.515625 164.839844 C 363.960938 166.8125 363.339844 168.765625 362.65625 170.699219 C 361.96875 172.628906 361.21875 174.535156 360.398438 176.417969 C 359.582031 178.296875 358.703125 180.148438 357.761719 181.96875 C 356.820312 183.789062 355.816406 185.574219 354.75 187.328125 C 353.6875 189.078125 352.5625 190.792969 351.382812 192.46875 C 350.199219 194.144531 348.964844 195.777344 347.671875 197.371094 C 346.378906 198.960938 345.03125 200.507812 343.632812 202.007812 C 298.585938 252.054688 249.238281 297.421875 195.582031 338.105469 Z M 112.542969 63.835938 C 108.128906 63.839844 103.75 64.253906 99.414062 65.078125 C 95.933594 65.816406 92.511719 66.777344 89.15625 67.957031 C 85.796875 69.136719 82.527344 70.527344 79.351562 72.125 C 76.171875 73.726562 73.109375 75.523438 70.160156 77.519531 C 67.210938 79.515625 64.40625 81.691406 61.738281 84.046875 C 59.070312 86.40625 56.566406 88.921875 54.222656 91.601562 C 51.878906 94.28125 49.71875 97.101562 47.738281 100.058594 C 45.757812 103.015625 43.976562 106.089844 42.394531 109.277344 C 40.808594 112.464844 39.4375 115.738281 38.273438 119.101562 C 37.316406 121.828125 36.550781 124.605469 35.976562 127.4375 C 35.402344 130.269531 35.023438 133.125 34.839844 136.007812 C 34.660156 138.890625 34.675781 141.773438 34.890625 144.652344 C 35.105469 147.53125 35.515625 150.386719 36.121094 153.210938 C 36.726562 156.035156 37.523438 158.800781 38.511719 161.515625 C 39.5 164.230469 40.667969 166.867188 42.019531 169.417969 C 43.367188 171.972656 44.886719 174.421875 46.574219 176.765625 C 48.261719 179.113281 50.097656 181.332031 52.089844 183.421875 C 93.605469 229.359375 138.742188 271.410156 187.5 309.574219 C 236.359375 271.429688 281.609375 229.402344 323.253906 183.492188 C 325.230469 181.386719 327.050781 179.15625 328.722656 176.800781 C 330.390625 174.445312 331.890625 171.984375 333.222656 169.425781 C 334.554688 166.863281 335.707031 164.222656 336.675781 161.5 C 337.644531 158.78125 338.421875 156.007812 339.011719 153.183594 C 339.601562 150.355469 339.992188 147.503906 340.1875 144.621094 C 340.386719 141.742188 340.382812 138.859375 340.183594 135.980469 C 339.988281 133.101562 339.589844 130.246094 339 127.421875 C 338.410156 124.59375 337.628906 121.820312 336.65625 119.101562 C 335.503906 115.730469 334.136719 112.445312 332.558594 109.246094 C 330.976562 106.050781 329.199219 102.964844 327.222656 100 C 325.246094 97.03125 323.089844 94.203125 320.746094 91.511719 C 318.40625 88.824219 315.902344 86.296875 313.234375 83.929688 C 310.566406 81.5625 307.757812 79.378906 304.808594 77.375 C 301.859375 75.371094 298.792969 73.5625 295.609375 71.957031 C 292.425781 70.347656 289.152344 68.949219 285.792969 67.765625 C 282.429688 66.578125 279.003906 65.613281 275.515625 64.871094 C 255.894531 61.207031 226.878906 63.835938 197.933594 98.378906 L 187.5 110.46875 L 177 98.378906 C 153.992188 70.742188 130.847656 63.835938 112.542969 63.835938 Z M 112.542969 63.835938 " fill-opacity="1" fill-rule="nonzero"/></g></svg>