<svg xmlns="http://www.w3.org/2000/svg" xmlns:xlink="http://www.w3.org/1999/xlink" width="500" zoomAndPan="magnify" viewBox="0 0 375 374.999991" height="500" preserveAspectRatio="xMidYMid meet" version="1.0"><defs><g/><clipPath id="37b453dcff"><path d="M 32 82.25 L 189 82.25 L 189 258 L 32 258 Z M 32 82.25 " clip-rule="nonzero"/></clipPath></defs><path fill="#ffffff" d="M 187.226562 254.730469 C 187.226562 254.730469 170.886719 245.832031 142.222656 244.425781 C 129.597656 243.804688 114.566406 244.636719 97.476562 248.347656 C 97.476562 248.347656 5.371094 132.5625 5.371094 132.5625 C 7.699219 132.035156 11.503906 131.261719 16.460938 130.570312 C 20.441406 130.015625 25.152344 129.511719 30.4375 129.226562 C 31.40625 129.175781 32.148438 128.347656 32.097656 127.375 C 32.042969 126.40625 31.214844 125.664062 30.246094 125.71875 C 24.851562 126.011719 20.035156 126.523438 15.976562 127.089844 C 7.113281 128.324219 1.816406 129.816406 1.816406 129.816406 C 1.246094 129.976562 0.800781 130.410156 0.617188 130.96875 C 0.4375 131.527344 0.546875 132.140625 0.914062 132.601562 L 95.410156 251.390625 C 95.828125 251.917969 96.507812 252.15625 97.167969 252.011719 C 114.339844 248.183594 129.425781 247.3125 142.050781 247.9375 C 169.746094 249.296875 185.550781 257.820312 185.550781 257.820312 C 186.402344 258.285156 187.472656 257.964844 187.929688 257.113281 C 188.394531 256.261719 188.078125 255.191406 187.226562 254.730469 Z M 187.226562 254.730469 " fill-opacity="1" fill-rule="evenodd"/><g clip-path="url(#37b453dcff)"><path fill="#9fc7aa" d="M 188.066406 255.242188 C 188.066406 255.242188 177.957031 238.21875 152.652344 227.4375 C 141.449219 222.664062 127.242188 219.105469 109.59375 218.828125 C 109.59375 218.828125 47.1875 105.117188 36.902344 86.378906 C 43.476562 86.476562 60.375 87.3125 79.390625 92.773438 C 92.929688 96.664062 107.550781 102.90625 120.265625 112.929688 C 121.027344 113.53125 122.132812 113.394531 122.734375 112.636719 C 123.332031 111.875 123.203125 110.769531 122.441406 110.167969 C 109.351562 99.847656 94.304688 93.402344 80.359375 89.398438 C 55.332031 82.203125 33.882812 82.867188 33.882812 82.867188 C 33.269531 82.886719 32.714844 83.222656 32.410156 83.753906 C 32.109375 84.285156 32.101562 84.933594 32.394531 85.46875 L 107.007812 221.417969 C 107.3125 221.976562 107.898438 222.324219 108.53125 222.332031 C 126.105469 222.476562 140.207031 225.953125 151.277344 230.667969 C 175.363281 240.933594 185.046875 257.042969 185.046875 257.042969 C 185.546875 257.878906 186.628906 258.152344 187.460938 257.652344 C 188.292969 257.15625 188.5625 256.074219 188.066406 255.242188 Z M 188.066406 255.242188 " fill-opacity="1" fill-rule="evenodd"/></g><path fill="#9fc7aa" d="M 187.652344 254.996094 C 187.652344 254.996094 174.65625 243.777344 146.996094 238.441406 C 135.417969 236.207031 121.257812 235.003906 104.382812 236.097656 C 104.382812 236.097656 21.542969 109.703125 21.542969 109.703125 C 23.9375 109.53125 27.742188 109.347656 32.617188 109.398438 C 36.636719 109.441406 41.375 109.644531 46.640625 110.148438 C 47.605469 110.242188 48.464844 109.53125 48.558594 108.5625 C 48.648438 107.597656 47.9375 106.742188 46.972656 106.648438 C 41.59375 106.136719 36.757812 105.925781 32.660156 105.882812 C 23.710938 105.789062 18.25 106.472656 18.25 106.472656 C 17.648438 106.546875 17.125 106.933594 16.871094 107.484375 C 16.617188 108.03125 16.664062 108.675781 16.996094 109.179688 L 102.007812 238.886719 C 102.355469 239.417969 102.96875 239.71875 103.597656 239.675781 C 120.566406 238.484375 134.765625 239.664062 146.328125 241.890625 C 172.859375 247.011719 185.367188 257.664062 185.367188 257.664062 C 186.105469 258.292969 187.214844 258.207031 187.84375 257.472656 C 188.476562 256.734375 188.390625 255.625 187.652344 254.996094 Z M 187.652344 254.996094 " fill-opacity="1" fill-rule="evenodd"/><g fill="#ffffff" fill-opacity="1"><g transform="translate(94.330275, 179.301809)"><g><path d="M 30.40625 -11.890625 C 30.40625 -8.140625 29.066406 -5.046875 26.390625 -2.609375 C 23.722656 -0.171875 20.476562 1.046875 16.65625 1.046875 C 13.09375 1.046875 9.820312 -0.148438 6.84375 -2.546875 L 4.875 0.0625 C 4.519531 0.519531 4.191406 0.75 3.890625 0.75 C 3.347656 0.75 3.078125 0.421875 3.078125 -0.234375 L 3.078125 -10.09375 C 3.078125 -10.75 3.304688 -11.078125 3.765625 -11.078125 C 4.191406 -11.078125 4.503906 -10.785156 4.703125 -10.203125 C 5.429688 -7.347656 6.9375 -5.007812 9.21875 -3.1875 C 11.5 -1.375 14.09375 -0.46875 17 -0.46875 C 19.476562 -0.46875 21.679688 -1.203125 23.609375 -2.671875 C 25.585938 -4.296875 26.578125 -6.34375 26.578125 -8.8125 C 26.578125 -11.40625 25.472656 -13.207031 23.265625 -14.21875 C 22.453125 -14.5625 21.609375 -14.890625 20.734375 -15.203125 C 19.867188 -15.515625 18.972656 -15.804688 18.046875 -16.078125 C 15.140625 -16.921875 13.164062 -17.5 12.125 -17.8125 C 6.664062 -19.476562 3.9375 -22.570312 3.9375 -27.09375 C 3.9375 -30.5 5.234375 -33.207031 7.828125 -35.21875 C 10.191406 -37.113281 13.113281 -38.0625 16.59375 -38.0625 C 19.457031 -38.0625 22.316406 -37.328125 25.171875 -35.859375 L 26.75 -37.703125 C 27.019531 -38.097656 27.304688 -38.296875 27.609375 -38.296875 C 28.035156 -38.296875 28.25 -38.023438 28.25 -37.484375 L 28.25 -27.671875 C 28.25 -27.128906 28.019531 -26.859375 27.5625 -26.859375 C 27.050781 -26.859375 26.78125 -27.109375 26.75 -27.609375 C 26.363281 -30.398438 25.28125 -32.585938 23.5 -34.171875 C 21.71875 -35.753906 19.414062 -36.546875 16.59375 -36.546875 C 14.351562 -36.546875 12.4375 -36.046875 10.84375 -35.046875 C 8.988281 -33.804688 8.0625 -32.140625 8.0625 -30.046875 C 8.0625 -27.609375 9.257812 -25.945312 11.65625 -25.0625 C 12.164062 -24.863281 13.289062 -24.523438 15.03125 -24.046875 C 16.769531 -23.566406 19.207031 -22.898438 22.34375 -22.046875 C 27.71875 -20.617188 30.40625 -17.234375 30.40625 -11.890625 Z M 30.40625 -11.890625 "/></g></g></g><g fill="#ffffff" fill-opacity="1"><g transform="translate(123.80182, 179.301809)"><g><path d="M 20.765625 -1.390625 L 26.796875 -1.390625 L 23.140625 -11.484375 L 11.484375 -11.484375 L 7.890625 -1.390625 L 14.859375 -1.390625 L 14.859375 0 L 1.046875 0 L 1.046875 -1.390625 L 6.265625 -1.390625 L 19.375 -37.9375 L 20.421875 -37.9375 L 33.53125 -1.390625 L 38.8125 -1.390625 L 38.8125 0 L 20.765625 0 Z M 12.015625 -12.875 L 22.625 -12.875 L 17.28125 -27.5625 Z M 12.015625 -12.875 "/></g></g></g><g fill="#ffffff" fill-opacity="1"><g transform="translate(160.409305, 179.301809)"><g><path d="M 34.578125 -2.03125 C 34.578125 -0.675781 33.898438 0 32.546875 0 L 1.515625 0 L 1.515625 -1.390625 L 6.671875 -1.390625 L 6.671875 -36.03125 L 1.515625 -36.03125 L 1.515625 -37.421875 L 18.6875 -37.421875 L 18.6875 -36.03125 L 13 -36.03125 L 13 -1.390625 L 25 -1.390625 C 27.476562 -1.390625 29.316406 -2.222656 30.515625 -3.890625 C 31.398438 -5.203125 32.191406 -7.40625 32.890625 -10.5 C 33.085938 -11.382812 33.398438 -11.828125 33.828125 -11.828125 C 34.328125 -11.828125 34.578125 -11.304688 34.578125 -10.265625 Z M 34.578125 -2.03125 "/></g></g></g><g fill="#ffffff" fill-opacity="1"><g transform="translate(193.303781, 179.301809)"><g><path d="M 32.078125 -2.03125 C 32.078125 -0.675781 31.421875 0 30.109375 0 L 1.796875 0 L 1.796875 -1.390625 L 6.84375 -1.390625 L 6.84375 -36.03125 L 1.6875 -36.03125 L 1.6875 -37.421875 L 28.65625 -37.421875 C 29.851562 -37.421875 30.453125 -36.898438 30.453125 -35.859375 L 30.453125 -27.5 C 30.453125 -26.84375 30.222656 -26.515625 29.765625 -26.515625 C 29.296875 -26.515625 29.039062 -26.863281 29 -27.5625 C 28.882812 -29.644531 28.347656 -31.460938 27.390625 -33.015625 C 26.179688 -35.023438 24.378906 -36.03125 21.984375 -36.03125 L 13.171875 -36.03125 L 13.171875 -20.421875 L 17.640625 -20.421875 C 19.109375 -20.421875 20.148438 -20.90625 20.765625 -21.875 C 20.921875 -22.101562 21.09375 -22.5 21.28125 -23.0625 C 21.476562 -23.625 21.675781 -24.347656 21.875 -25.234375 C 22.0625 -25.890625 22.289062 -26.21875 22.5625 -26.21875 C 22.988281 -26.21875 23.203125 -25.910156 23.203125 -25.296875 L 23.203125 -14.15625 C 23.203125 -13.5 22.988281 -13.171875 22.5625 -13.171875 C 22.289062 -13.171875 21.945312 -13.847656 21.53125 -15.203125 C 21.375 -15.628906 21.234375 -16.050781 21.109375 -16.46875 C 20.992188 -16.894531 20.863281 -17.320312 20.71875 -17.75 C 20.132812 -18.601562 19.109375 -19.03125 17.640625 -19.03125 L 13.171875 -19.03125 L 13.171875 -1.390625 L 22.515625 -1.390625 C 25.023438 -1.390625 26.878906 -2.222656 28.078125 -3.890625 C 28.960938 -5.203125 29.753906 -7.40625 30.453125 -10.5 C 30.648438 -11.382812 30.960938 -11.828125 31.390625 -11.828125 C 31.847656 -11.828125 32.078125 -11.304688 32.078125 -10.265625 Z M 32.078125 -2.03125 "/></g></g></g><g fill="#ffffff" fill-opacity="1"><g transform="translate(224.689854, 179.301809)"><g><path d="M 30.171875 -1.390625 L 34.921875 -1.390625 L 34.921875 -34.171875 L 22.046875 0 L 20.890625 0 L 8 -33.9375 L 8 -1.390625 L 12.828125 -1.390625 L 12.828125 0 L 1.796875 0 L 1.796875 -1.390625 L 6.5625 -1.390625 L 6.5625 -36.03125 L 1.796875 -36.03125 L 1.796875 -37.421875 L 13.28125 -37.421875 L 24.078125 -9.6875 L 34.515625 -37.421875 L 46 -37.421875 L 46 -36.03125 L 41.25 -36.03125 L 41.25 -1.390625 L 46 -1.390625 L 46 0 L 30.171875 0 Z M 30.171875 -1.390625 "/></g></g></g><g fill="#9fc7aa" fill-opacity="1"><g transform="translate(272.127995, 180.031219)"><g><path d="M 2.3125 -1.390625 L 7.421875 -1.390625 L 7.421875 -36.015625 L 2.3125 -36.015625 L 2.3125 -37.40625 L 18.90625 -37.40625 L 18.90625 -36.015625 L 13.75 -36.015625 L 13.75 -1.390625 L 18.90625 -1.390625 L 18.90625 0 L 2.3125 0 Z M 2.3125 -1.390625 "/></g></g></g><g fill="#9fc7aa" fill-opacity="1"><g transform="translate(290.454595, 180.031219)"><g><path d="M 34.5625 -2.03125 C 34.5625 -0.675781 33.882812 0 32.53125 0 L 1.515625 0 L 1.515625 -1.390625 L 6.671875 -1.390625 L 6.671875 -36.015625 L 1.515625 -36.015625 L 1.515625 -37.40625 L 18.671875 -37.40625 L 18.671875 -36.015625 L 12.984375 -36.015625 L 12.984375 -1.390625 L 25 -1.390625 C 27.46875 -1.390625 29.304688 -2.222656 30.515625 -3.890625 C 31.398438 -5.203125 32.191406 -7.40625 32.890625 -10.5 C 33.078125 -11.382812 33.382812 -11.828125 33.8125 -11.828125 C 34.3125 -11.828125 34.5625 -11.304688 34.5625 -10.265625 Z M 34.5625 -2.03125 "/></g></g></g><g fill="#9fc7aa" fill-opacity="1"><g transform="translate(323.33823, 180.031219)"><g><path d="M 24.359375 -19.71875 L 24.359375 -1.390625 L 30.046875 -1.390625 L 30.046875 0 L 12.296875 0 L 12.296875 -1.390625 L 18.03125 -1.390625 L 18.03125 -18.328125 L 6.546875 -36.015625 L 1.625 -36.015625 L 1.625 -37.40625 L 18.84375 -37.40625 L 18.84375 -36.015625 L 13.578125 -36.015625 L 23.078125 -21.28125 L 31.90625 -36.015625 L 26.328125 -36.015625 L 26.328125 -37.40625 L 39.03125 -37.40625 L 39.03125 -36.015625 L 34.109375 -36.015625 Z M 24.359375 -19.71875 "/></g></g></g></svg>