<svg xmlns="http://www.w3.org/2000/svg" xmlns:xlink="http://www.w3.org/1999/xlink" width="24" zoomAndPan="magnify" viewBox="0 0 375 374.999991" height="24" preserveAspectRatio="xMidYMid meet" version="1.0"><path fill="#00bf63" d="M 187.5 375 C 291.054688 375 375 291.054688 375 187.5 C 375 83.945312 291.054688 0 187.5 0 C 83.945312 0 0 83.945312 0 187.5 C 0 291.054688 83.945312 375 187.5 375 Z M 217.5 197.5 L 121.640625 197.5 L 139.570312 215.429688 L 125.429688 229.570312 L 90.429688 194.570312 C 86.523438 190.667969 86.523438 184.332031 90.429688 180.429688 L 125.429688 145.429688 L 139.570312 159.570312 L 121.640625 177.5 L 217.5 177.5 Z M 157.5 97.5 C 151.976562 97.5 147.5 101.976562 147.5 107.5 L 147.5 137.5 L 167.5 137.5 L 167.5 117.5 L 267.5 117.5 L 267.5 257.5 L 167.5 257.5 L 167.5 237.5 L 147.5 237.5 L 147.5 267.5 C 147.5 273.023438 151.976562 277.5 157.5 277.5 L 277.5 277.5 C 283.023438 277.5 287.5 273.023438 287.5 267.5 L 287.5 107.5 C 287.5 101.976562 283.023438 97.5 277.5 97.5 Z M 157.5 97.5 " fill-opacity="1" fill-rule="evenodd"/></svg>