<svg xmlns="http://www.w3.org/2000/svg" xmlns:xlink="http://www.w3.org/1999/xlink" width="24" zoomAndPan="magnify" viewBox="0 0 375 374.999991" height="24" preserveAspectRatio="xMidYMid meet" version="1.0"><path fill="#00bf63" d="M 176.894531 64.890625 C 197.484375 77.996094 211.835938 99.832031 214.332031 124.792969 C 222.441406 128.535156 231.800781 131.03125 241.785156 131.03125 C 277.972656 131.03125 307.300781 101.707031 307.300781 65.515625 C 307.300781 29.324219 277.972656 0 241.785156 0 C 206.21875 0.625 176.894531 29.324219 176.894531 64.890625 Z M 133.839844 198.417969 C 170.027344 198.417969 199.355469 169.09375 199.355469 132.902344 C 199.355469 96.714844 170.027344 67.386719 133.839844 67.386719 C 97.648438 67.386719 68.324219 96.714844 68.324219 132.902344 C 68.324219 169.09375 97.648438 198.417969 133.839844 198.417969 Z M 161.292969 202.785156 L 105.761719 202.785156 C 59.589844 202.785156 22.152344 240.226562 22.152344 286.398438 L 22.152344 355.65625 L 26.519531 356.90625 C 70.195312 370.632812 108.882812 375 140.078125 375 C 201.226562 375 236.792969 357.527344 239.289062 356.28125 L 243.65625 353.785156 L 244.28125 353.785156 L 244.28125 286.398438 C 244.90625 240.222656 207.464844 202.785156 161.292969 202.785156 Z M 269.238281 135.398438 L 214.332031 135.398438 C 213.707031 157.238281 204.347656 177.203125 189.371094 191.554688 C 230.554688 204.035156 260.503906 241.472656 260.503906 286.398438 L 260.503906 306.988281 C 314.789062 305.117188 345.984375 289.515625 347.859375 288.894531 L 352.226562 286.398438 L 352.847656 286.398438 L 352.847656 219.011719 C 352.847656 172.835938 315.410156 135.398438 269.238281 135.398438 Z M 269.238281 135.398438 " fill-opacity="1" fill-rule="nonzero"/></svg>