<svg xmlns="http://www.w3.org/2000/svg" xmlns:xlink="http://www.w3.org/1999/xlink" width="24" zoomAndPan="magnify" viewBox="0 0 375 374.999991" height="24" preserveAspectRatio="xMidYMid meet" version="1.0"><defs><clipPath id="7d73b8f942"><path d="M 34 17.109375 L 375 17.109375 L 375 322 L 34 322 Z M 34 17.109375 " clip-rule="nonzero"/></clipPath></defs><g clip-path="url(#7d73b8f942)"><path fill="#a4c195" d="M 343.605469 16.570312 L 64.535156 16.570312 C 63.535156 16.574219 62.542969 16.628906 61.546875 16.730469 C 60.554688 16.835938 59.570312 16.984375 58.59375 17.183594 C 57.613281 17.382812 56.648438 17.628906 55.695312 17.921875 C 54.738281 18.214844 53.800781 18.554688 52.882812 18.9375 C 51.960938 19.324219 51.058594 19.753906 50.179688 20.226562 C 49.300781 20.695312 48.445312 21.210938 47.617188 21.765625 C 46.789062 22.324219 45.988281 22.917969 45.21875 23.550781 C 44.445312 24.183594 43.707031 24.855469 43.003906 25.558594 C 42.296875 26.265625 41.625 27.003906 40.992188 27.777344 C 40.359375 28.546875 39.765625 29.347656 39.207031 30.175781 C 38.652344 31.003906 38.140625 31.859375 37.667969 32.738281 C 37.195312 33.617188 36.765625 34.519531 36.382812 35.4375 C 35.996094 36.359375 35.65625 37.296875 35.363281 38.25 C 35.070312 39.207031 34.824219 40.171875 34.625 41.148438 C 34.429688 42.128906 34.277344 43.113281 34.175781 44.105469 C 34.070312 45.097656 34.015625 46.09375 34.011719 47.09375 L 34.011719 86.335938 L 60.175781 86.335938 L 60.175781 47.09375 C 60.175781 46.808594 60.203125 46.523438 60.257812 46.242188 C 60.3125 45.960938 60.398438 45.6875 60.507812 45.425781 C 60.617188 45.160156 60.75 44.910156 60.910156 44.671875 C 61.066406 44.433594 61.25 44.210938 61.453125 44.007812 C 61.652344 43.808594 61.875 43.625 62.113281 43.46875 C 62.351562 43.308594 62.601562 43.175781 62.867188 43.066406 C 63.128906 42.953125 63.402344 42.871094 63.683594 42.816406 C 63.964844 42.761719 64.25 42.734375 64.535156 42.734375 L 343.605469 42.734375 C 343.890625 42.734375 344.175781 42.761719 344.457031 42.816406 C 344.734375 42.871094 345.007812 42.953125 345.273438 43.066406 C 345.539062 43.175781 345.789062 43.308594 346.027344 43.46875 C 346.265625 43.625 346.484375 43.808594 346.6875 44.007812 C 346.890625 44.210938 347.070312 44.433594 347.230469 44.671875 C 347.390625 44.910156 347.523438 45.160156 347.632812 45.425781 C 347.742188 45.6875 347.824219 45.960938 347.882812 46.242188 C 347.9375 46.523438 347.964844 46.808594 347.964844 47.09375 L 347.964844 291.277344 C 347.964844 291.566406 347.9375 291.847656 347.882812 292.128906 C 347.824219 292.410156 347.742188 292.683594 347.632812 292.949219 C 347.523438 293.210938 347.390625 293.464844 347.230469 293.703125 C 347.070312 293.941406 346.890625 294.160156 346.6875 294.363281 C 346.484375 294.566406 346.265625 294.746094 346.027344 294.90625 C 345.789062 295.0625 345.539062 295.199219 345.273438 295.308594 C 345.007812 295.417969 344.734375 295.5 344.457031 295.554688 C 344.175781 295.613281 343.890625 295.640625 343.605469 295.640625 L 304.359375 295.640625 L 304.359375 321.800781 L 343.605469 321.800781 C 344.601562 321.796875 345.597656 321.742188 346.589844 321.640625 C 347.582031 321.535156 348.570312 321.386719 349.546875 321.1875 C 350.527344 320.988281 351.492188 320.742188 352.445312 320.449219 C 353.398438 320.15625 354.335938 319.816406 355.257812 319.433594 C 356.179688 319.046875 357.078125 318.621094 357.957031 318.148438 C 358.839844 317.675781 359.691406 317.160156 360.523438 316.605469 C 361.351562 316.050781 362.152344 315.453125 362.921875 314.820312 C 363.691406 314.1875 364.429688 313.515625 365.136719 312.8125 C 365.84375 312.105469 366.511719 311.367188 367.148438 310.597656 C 367.78125 309.824219 368.375 309.023438 368.929688 308.195312 C 369.488281 307.367188 370 306.511719 370.472656 305.632812 C 370.945312 304.753906 371.375 303.855469 371.757812 302.933594 C 372.144531 302.011719 372.480469 301.074219 372.773438 300.121094 C 373.066406 299.167969 373.3125 298.199219 373.511719 297.222656 C 373.710938 296.242188 373.863281 295.257812 373.964844 294.265625 C 374.066406 293.273438 374.121094 292.277344 374.128906 291.277344 L 374.128906 47.09375 C 374.121094 46.09375 374.066406 45.097656 373.964844 44.105469 C 373.863281 43.113281 373.710938 42.128906 373.511719 41.148438 C 373.3125 40.171875 373.066406 39.207031 372.773438 38.25 C 372.480469 37.296875 372.144531 36.359375 371.757812 35.4375 C 371.375 34.519531 370.945312 33.617188 370.472656 32.738281 C 370 31.859375 369.488281 31.003906 368.929688 30.175781 C 368.375 29.347656 367.78125 28.546875 367.148438 27.777344 C 366.511719 27.003906 365.84375 26.265625 365.136719 25.558594 C 364.429688 24.855469 363.691406 24.183594 362.921875 23.550781 C 362.152344 22.917969 361.351562 22.324219 360.523438 21.765625 C 359.691406 21.210938 358.839844 20.695312 357.957031 20.226562 C 357.078125 19.753906 356.179688 19.324219 355.257812 18.9375 C 354.335938 18.554688 353.398438 18.214844 352.445312 17.921875 C 351.492188 17.628906 350.527344 17.382812 349.546875 17.183594 C 348.570312 16.984375 347.582031 16.835938 346.589844 16.730469 C 345.597656 16.628906 344.601562 16.574219 343.605469 16.570312 Z M 343.605469 16.570312 " fill-opacity="1" fill-rule="nonzero"/></g><path fill="#a4c195" d="M 291.277344 68.894531 L 29.652344 68.894531 C 28.652344 68.902344 27.65625 68.957031 26.664062 69.058594 C 25.671875 69.160156 24.6875 69.3125 23.707031 69.511719 C 22.730469 69.710938 21.765625 69.957031 20.808594 70.25 C 19.855469 70.542969 18.917969 70.878906 17.996094 71.265625 C 17.078125 71.648438 16.175781 72.078125 15.296875 72.550781 C 14.417969 73.023438 13.5625 73.535156 12.734375 74.09375 C 11.90625 74.648438 11.105469 75.242188 10.332031 75.875 C 9.5625 76.511719 8.824219 77.179688 8.117188 77.886719 C 7.414062 78.589844 6.742188 79.332031 6.109375 80.101562 C 5.476562 80.871094 4.878906 81.671875 4.324219 82.5 C 3.769531 83.332031 3.253906 84.183594 2.78125 85.0625 C 2.3125 85.945312 1.882812 86.84375 1.496094 87.765625 C 1.113281 88.6875 0.773438 89.625 0.480469 90.578125 C 0.1875 91.53125 -0.0585938 92.496094 -0.257812 93.476562 C -0.457031 94.453125 -0.605469 95.4375 -0.710938 96.433594 C -0.8125 97.425781 -0.867188 98.421875 -0.871094 99.417969 L -0.871094 326.164062 C -0.867188 327.160156 -0.8125 328.15625 -0.710938 329.148438 C -0.605469 330.140625 -0.457031 331.128906 -0.257812 332.105469 C -0.0585938 333.082031 0.1875 334.050781 0.480469 335.003906 C 0.773438 335.957031 1.113281 336.894531 1.496094 337.816406 C 1.882812 338.738281 2.3125 339.636719 2.78125 340.515625 C 3.253906 341.394531 3.769531 342.25 4.324219 343.078125 C 4.878906 343.910156 5.476562 344.707031 6.109375 345.480469 C 6.742188 346.25 7.414062 346.988281 8.117188 347.695312 C 8.824219 348.402344 9.5625 349.070312 10.332031 349.703125 C 11.105469 350.339844 11.90625 350.933594 12.734375 351.488281 C 13.5625 352.042969 14.417969 352.558594 15.296875 353.03125 C 16.175781 353.503906 17.078125 353.933594 17.996094 354.316406 C 18.917969 354.699219 19.855469 355.039062 20.808594 355.332031 C 21.765625 355.625 22.730469 355.871094 23.707031 356.070312 C 24.6875 356.269531 25.671875 356.421875 26.664062 356.523438 C 27.65625 356.625 28.652344 356.679688 29.652344 356.6875 L 291.277344 356.6875 C 292.277344 356.679688 293.273438 356.625 294.265625 356.523438 C 295.257812 356.421875 296.242188 356.269531 297.222656 356.070312 C 298.199219 355.871094 299.167969 355.625 300.121094 355.332031 C 301.074219 355.039062 302.011719 354.699219 302.933594 354.316406 C 303.855469 353.933594 304.753906 353.503906 305.632812 353.03125 C 306.511719 352.558594 307.367188 352.042969 308.195312 351.488281 C 309.023438 350.933594 309.824219 350.339844 310.597656 349.703125 C 311.367188 349.070312 312.105469 348.402344 312.8125 347.695312 C 313.515625 346.988281 314.1875 346.25 314.820312 345.480469 C 315.453125 344.707031 316.050781 343.910156 316.605469 343.078125 C 317.160156 342.25 317.675781 341.394531 318.148438 340.515625 C 318.621094 339.636719 319.046875 338.738281 319.433594 337.816406 C 319.816406 336.894531 320.15625 335.957031 320.449219 335.003906 C 320.742188 334.050781 320.988281 333.082031 321.1875 332.105469 C 321.386719 331.128906 321.535156 330.140625 321.640625 329.148438 C 321.742188 328.15625 321.796875 327.160156 321.800781 326.164062 L 321.800781 99.417969 C 321.796875 98.421875 321.742188 97.425781 321.640625 96.433594 C 321.535156 95.4375 321.386719 94.453125 321.1875 93.476562 C 320.988281 92.496094 320.742188 91.53125 320.449219 90.578125 C 320.15625 89.625 319.816406 88.6875 319.433594 87.765625 C 319.046875 86.84375 318.621094 85.945312 318.148438 85.0625 C 317.675781 84.183594 317.160156 83.332031 316.605469 82.5 C 316.050781 81.671875 315.453125 80.871094 314.820312 80.101562 C 314.1875 79.332031 313.515625 78.589844 312.8125 77.886719 C 312.105469 77.179688 311.367188 76.511719 310.597656 75.875 C 309.824219 75.242188 309.023438 74.648438 308.195312 74.09375 C 307.367188 73.535156 306.511719 73.023438 305.632812 72.550781 C 304.753906 72.078125 303.855469 71.648438 302.933594 71.265625 C 302.011719 70.878906 301.074219 70.542969 300.121094 70.25 C 299.167969 69.957031 298.199219 69.710938 297.222656 69.511719 C 296.242188 69.3125 295.257812 69.160156 294.265625 69.058594 C 293.273438 68.957031 292.277344 68.902344 291.277344 68.894531 Z M 99.417969 147.382812 C 100.132812 147.382812 100.84375 147.417969 101.554688 147.488281 C 102.265625 147.558594 102.972656 147.664062 103.671875 147.800781 C 104.371094 147.941406 105.0625 148.113281 105.746094 148.324219 C 106.429688 148.53125 107.101562 148.769531 107.761719 149.042969 C 108.421875 149.316406 109.066406 149.621094 109.695312 149.957031 C 110.324219 150.292969 110.9375 150.660156 111.53125 151.058594 C 112.125 151.453125 112.699219 151.878906 113.25 152.332031 C 113.800781 152.785156 114.332031 153.265625 114.835938 153.769531 C 115.339844 154.273438 115.820312 154.804688 116.273438 155.355469 C 116.726562 155.90625 117.148438 156.480469 117.546875 157.074219 C 117.941406 157.667969 118.308594 158.277344 118.648438 158.910156 C 118.984375 159.539062 119.289062 160.183594 119.5625 160.84375 C 119.835938 161.503906 120.074219 162.175781 120.28125 162.855469 C 120.488281 163.539062 120.664062 164.230469 120.800781 164.933594 C 120.941406 165.632812 121.046875 166.339844 121.117188 167.050781 C 121.1875 167.757812 121.222656 168.472656 121.222656 169.1875 C 121.222656 169.898438 121.1875 170.613281 121.117188 171.324219 C 121.046875 172.035156 120.941406 172.738281 120.800781 173.4375 C 120.664062 174.140625 120.488281 174.832031 120.28125 175.515625 C 120.074219 176.199219 119.835938 176.871094 119.5625 177.53125 C 119.289062 178.1875 118.984375 178.832031 118.648438 179.464844 C 118.308594 180.09375 117.941406 180.703125 117.546875 181.296875 C 117.148438 181.890625 116.726562 182.464844 116.273438 183.015625 C 115.820312 183.570312 115.339844 184.097656 114.835938 184.601562 C 114.332031 185.109375 113.800781 185.585938 113.25 186.039062 C 112.699219 186.492188 112.125 186.917969 111.53125 187.3125 C 110.9375 187.710938 110.324219 188.078125 109.695312 188.414062 C 109.066406 188.75 108.421875 189.054688 107.761719 189.328125 C 107.101562 189.601562 106.429688 189.84375 105.746094 190.050781 C 105.0625 190.257812 104.371094 190.429688 103.671875 190.570312 C 102.972656 190.707031 102.265625 190.8125 101.554688 190.882812 C 100.84375 190.953125 100.132812 190.988281 99.417969 190.988281 C 98.703125 190.988281 97.992188 190.953125 97.28125 190.882812 C 96.570312 190.8125 95.867188 190.707031 95.164062 190.570312 C 94.464844 190.429688 93.773438 190.257812 93.089844 190.050781 C 92.40625 189.84375 91.734375 189.601562 91.074219 189.328125 C 90.414062 189.054688 89.769531 188.75 89.140625 188.414062 C 88.511719 188.078125 87.898438 187.710938 87.304688 187.3125 C 86.710938 186.917969 86.140625 186.492188 85.585938 186.039062 C 85.035156 185.585938 84.507812 185.109375 84.003906 184.601562 C 83.496094 184.097656 83.019531 183.570312 82.566406 183.015625 C 82.113281 182.464844 81.6875 181.890625 81.289062 181.296875 C 80.894531 180.703125 80.527344 180.09375 80.191406 179.464844 C 79.855469 178.832031 79.550781 178.1875 79.277344 177.53125 C 79.003906 176.871094 78.761719 176.199219 78.554688 175.515625 C 78.347656 174.832031 78.175781 174.140625 78.035156 173.4375 C 77.894531 172.738281 77.792969 172.035156 77.722656 171.324219 C 77.652344 170.613281 77.617188 169.898438 77.617188 169.1875 C 77.617188 168.472656 77.652344 167.757812 77.722656 167.050781 C 77.792969 166.339844 77.894531 165.632812 78.035156 164.933594 C 78.175781 164.230469 78.347656 163.539062 78.554688 162.855469 C 78.761719 162.175781 79.003906 161.503906 79.277344 160.84375 C 79.550781 160.183594 79.855469 159.539062 80.191406 158.910156 C 80.527344 158.277344 80.894531 157.667969 81.289062 157.074219 C 81.6875 156.480469 82.113281 155.90625 82.566406 155.355469 C 83.019531 154.804688 83.496094 154.273438 84.003906 153.769531 C 84.507812 153.265625 85.035156 152.785156 85.585938 152.332031 C 86.140625 151.878906 86.710938 151.453125 87.304688 151.058594 C 87.898438 150.660156 88.511719 150.292969 89.140625 149.957031 C 89.769531 149.621094 90.414062 149.316406 91.074219 149.042969 C 91.734375 148.769531 92.40625 148.53125 93.089844 148.324219 C 93.773438 148.113281 94.464844 147.941406 95.164062 147.800781 C 95.867188 147.664062 96.570312 147.558594 97.28125 147.488281 C 97.992188 147.417969 98.703125 147.382812 99.417969 147.382812 Z M 263.722656 288.664062 C 263.027344 289.101562 262.296875 289.46875 261.535156 289.765625 C 260.769531 290.066406 259.984375 290.289062 259.179688 290.4375 C 258.371094 290.585938 257.558594 290.660156 256.738281 290.652344 C 255.917969 290.648438 255.105469 290.5625 254.304688 290.402344 C 253.5 290.242188 252.71875 290.007812 251.957031 289.695312 C 251.199219 289.386719 250.476562 289.007812 249.789062 288.558594 C 249.101562 288.113281 248.460938 287.605469 247.871094 287.035156 C 247.28125 286.464844 246.75 285.84375 246.277344 285.175781 L 193.953125 208.082031 L 144.070312 264.941406 C 142.890625 266.328125 141.480469 267.414062 139.839844 268.207031 C 138.199219 268.996094 136.46875 269.417969 134.652344 269.476562 C 132.859375 269.503906 131.132812 269.183594 129.472656 268.515625 C 127.808594 267.851562 126.335938 266.894531 125.058594 265.640625 L 116.859375 257.441406 L 73.777344 300.523438 C 73.171875 301.128906 72.511719 301.671875 71.796875 302.148438 C 71.082031 302.625 70.332031 303.027344 69.539062 303.355469 C 68.742188 303.683594 67.925781 303.929688 67.085938 304.097656 C 66.242188 304.265625 65.394531 304.347656 64.535156 304.347656 C 63.675781 304.347656 62.828125 304.265625 61.984375 304.097656 C 61.144531 303.929688 60.324219 303.683594 59.53125 303.355469 C 58.738281 303.027344 57.984375 302.625 57.273438 302.148438 C 56.558594 301.671875 55.898438 301.128906 55.289062 300.523438 C 54.683594 299.914062 54.144531 299.253906 53.667969 298.542969 C 53.191406 297.828125 52.789062 297.074219 52.460938 296.28125 C 52.132812 295.488281 51.882812 294.671875 51.714844 293.828125 C 51.546875 292.988281 51.464844 292.136719 51.464844 291.277344 C 51.464844 290.421875 51.546875 289.570312 51.714844 288.730469 C 51.882812 287.886719 52.132812 287.070312 52.460938 286.277344 C 52.789062 285.484375 53.191406 284.730469 53.667969 284.015625 C 54.144531 283.300781 54.683594 282.640625 55.289062 282.035156 L 107.617188 229.710938 C 108.222656 229.101562 108.882812 228.5625 109.597656 228.085938 C 110.3125 227.609375 111.066406 227.207031 111.859375 226.878906 C 112.652344 226.550781 113.46875 226.300781 114.308594 226.132812 C 115.152344 225.96875 116.003906 225.882812 116.859375 225.882812 C 117.71875 225.882812 118.570312 225.96875 119.410156 226.132812 C 120.253906 226.300781 121.070312 226.550781 121.863281 226.878906 C 122.65625 227.207031 123.410156 227.609375 124.121094 228.085938 C 124.835938 228.5625 125.496094 229.101562 126.105469 229.710938 L 134.300781 237.210938 L 186.628906 178.082031 C 187.28125 177.320312 188.011719 176.644531 188.820312 176.050781 C 189.632812 175.460938 190.496094 174.96875 191.417969 174.574219 C 192.339844 174.179688 193.296875 173.898438 194.285156 173.722656 C 195.273438 173.550781 196.265625 173.492188 197.265625 173.546875 C 198.257812 173.628906 199.226562 173.820312 200.171875 174.117188 C 201.121094 174.414062 202.023438 174.808594 202.886719 175.308594 C 203.746094 175.804688 204.539062 176.390625 205.269531 177.066406 C 206 177.738281 206.644531 178.484375 207.210938 179.300781 L 268.253906 270.523438 C 268.710938 271.265625 269.089844 272.042969 269.390625 272.863281 C 269.691406 273.679688 269.90625 274.519531 270.039062 275.378906 C 270.171875 276.238281 270.21875 277.105469 270.179688 277.972656 C 270.140625 278.84375 270.011719 279.703125 269.800781 280.546875 C 269.589844 281.390625 269.296875 282.207031 268.925781 282.992188 C 268.550781 283.78125 268.101562 284.519531 267.582031 285.21875 C 267.058594 285.914062 266.472656 286.554688 265.824219 287.132812 C 265.171875 287.714844 264.472656 288.222656 263.722656 288.664062 Z M 263.722656 288.664062 " fill-opacity="1" fill-rule="nonzero"/></svg>