<svg xmlns="http://www.w3.org/2000/svg" xmlns:xlink="http://www.w3.org/1999/xlink" width="20" zoomAndPan="magnify" viewBox="0 0 375 374.999991" height="20" preserveAspectRatio="xMidYMid meet" version="1.0"><defs><clipPath id="28803e2346"><path d="M 22.160156 0 L 352.910156 0 L 352.910156 375 L 22.160156 375 Z M 22.160156 0 " clip-rule="nonzero"/></clipPath></defs><g clip-path="url(#28803e2346)"><path fill="#00bf63" d="M 297.726562 0.113281 L 121.363281 0.113281 C 94.417969 0.113281 71.941406 19.554688 67.191406 45.144531 C 41.601562 49.898438 22.160156 72.375 22.160156 99.320312 C 22.160156 116.898438 22.160156 309.558594 22.160156 319.773438 C 22.160156 350.160156 46.882812 374.886719 77.273438 374.886719 L 253.636719 374.886719 C 280.582031 374.886719 303.054688 355.445312 307.808594 329.855469 C 333.398438 325.101562 352.839844 302.625 352.839844 275.679688 L 352.839844 55.226562 C 352.839844 24.839844 328.113281 0.113281 297.726562 0.113281 Z M 286.703125 319.773438 C 286.703125 338.003906 271.867188 352.839844 253.636719 352.839844 L 77.273438 352.839844 C 59.039062 352.839844 44.203125 338.003906 44.203125 319.773438 L 44.203125 291.269531 L 110.339844 225.132812 L 190.726562 305.519531 C 195.035156 309.824219 202.011719 309.824219 206.316406 305.519531 C 210.621094 301.21875 210.621094 294.238281 206.316406 289.933594 L 170.019531 253.636719 L 220.566406 203.089844 L 286.703125 269.222656 Z M 286.703125 238.046875 L 228.359375 179.707031 C 224.058594 175.402344 217.078125 175.402344 212.773438 179.707031 L 154.429688 238.046875 L 118.132812 201.75 C 113.832031 197.445312 106.851562 197.445312 102.546875 201.75 L 44.203125 260.09375 L 44.203125 99.320312 C 44.203125 81.085938 59.039062 66.25 77.273438 66.25 L 253.636719 66.25 C 271.867188 66.25 286.703125 81.085938 286.703125 99.320312 Z M 286.703125 238.046875 " fill-opacity="1" fill-rule="nonzero"/></g><path fill="#00bf63" d="M 187.5 154.433594 C 187.5 155.515625 187.445312 156.59375 187.339844 157.671875 C 187.234375 158.75 187.074219 159.820312 186.863281 160.882812 C 186.652344 161.945312 186.390625 162.996094 186.074219 164.03125 C 185.761719 165.066406 185.394531 166.085938 184.980469 167.085938 C 184.566406 168.085938 184.105469 169.066406 183.59375 170.019531 C 183.082031 170.976562 182.527344 171.902344 181.925781 172.804688 C 181.324219 173.703125 180.679688 174.574219 179.992188 175.410156 C 179.304688 176.246094 178.578125 177.046875 177.8125 177.816406 C 177.046875 178.582031 176.246094 179.308594 175.410156 179.992188 C 174.570312 180.679688 173.703125 181.324219 172.800781 181.925781 C 171.902344 182.527344 170.972656 183.085938 170.019531 183.59375 C 169.0625 184.105469 168.085938 184.570312 167.085938 184.984375 C 166.085938 185.398438 165.066406 185.761719 164.03125 186.074219 C 162.992188 186.390625 161.945312 186.652344 160.882812 186.863281 C 159.820312 187.074219 158.75 187.234375 157.671875 187.339844 C 156.59375 187.445312 155.515625 187.5 154.429688 187.5 C 153.347656 187.5 152.265625 187.445312 151.191406 187.339844 C 150.113281 187.234375 149.042969 187.074219 147.980469 186.863281 C 146.917969 186.652344 145.867188 186.390625 144.832031 186.074219 C 143.796875 185.761719 142.777344 185.398438 141.777344 184.984375 C 140.777344 184.570312 139.796875 184.105469 138.84375 183.59375 C 137.886719 183.085938 136.960938 182.527344 136.058594 181.925781 C 135.160156 181.324219 134.289062 180.679688 133.453125 179.992188 C 132.617188 179.308594 131.8125 178.582031 131.046875 177.816406 C 130.28125 177.046875 129.554688 176.246094 128.867188 175.410156 C 128.183594 174.574219 127.539062 173.703125 126.9375 172.804688 C 126.335938 171.902344 125.777344 170.976562 125.269531 170.019531 C 124.757812 169.066406 124.292969 168.085938 123.878906 167.085938 C 123.464844 166.085938 123.101562 165.066406 122.785156 164.03125 C 122.472656 162.996094 122.210938 161.945312 122 160.882812 C 121.785156 159.820312 121.628906 158.75 121.523438 157.671875 C 121.417969 156.59375 121.363281 155.515625 121.363281 154.433594 C 121.363281 153.347656 121.417969 152.269531 121.523438 151.191406 C 121.628906 150.113281 121.785156 149.042969 122 147.980469 C 122.210938 146.917969 122.472656 145.871094 122.785156 144.832031 C 123.101562 143.796875 123.464844 142.777344 123.878906 141.777344 C 124.292969 140.777344 124.757812 139.800781 125.269531 138.84375 C 125.777344 137.890625 126.335938 136.960938 126.9375 136.058594 C 127.539062 135.160156 128.183594 134.292969 128.867188 133.453125 C 129.554688 132.617188 130.28125 131.816406 131.046875 131.050781 C 131.8125 130.285156 132.617188 129.558594 133.453125 128.871094 C 134.289062 128.183594 135.160156 127.539062 136.058594 126.9375 C 136.960938 126.335938 137.886719 125.777344 138.84375 125.269531 C 139.796875 124.757812 140.777344 124.296875 141.777344 123.882812 C 142.777344 123.464844 143.796875 123.101562 144.832031 122.789062 C 145.867188 122.472656 146.917969 122.210938 147.980469 122 C 149.042969 121.789062 150.113281 121.628906 151.191406 121.523438 C 152.265625 121.417969 153.347656 121.363281 154.429688 121.363281 C 155.515625 121.363281 156.59375 121.417969 157.671875 121.523438 C 158.75 121.628906 159.820312 121.789062 160.882812 122 C 161.945312 122.210938 162.992188 122.472656 164.03125 122.789062 C 165.066406 123.101562 166.085938 123.464844 167.085938 123.882812 C 168.085938 124.296875 169.0625 124.757812 170.019531 125.269531 C 170.972656 125.777344 171.902344 126.335938 172.800781 126.9375 C 173.703125 127.539062 174.570312 128.183594 175.410156 128.871094 C 176.246094 129.558594 177.046875 130.285156 177.8125 131.050781 C 178.578125 131.816406 179.304688 132.617188 179.992188 133.453125 C 180.679688 134.292969 181.324219 135.160156 181.925781 136.058594 C 182.527344 136.960938 183.082031 137.890625 183.59375 138.84375 C 184.105469 139.800781 184.566406 140.777344 184.980469 141.777344 C 185.394531 142.777344 185.761719 143.796875 186.074219 144.832031 C 186.390625 145.871094 186.652344 146.917969 186.863281 147.980469 C 187.074219 149.042969 187.234375 150.113281 187.339844 151.191406 C 187.445312 152.269531 187.5 153.347656 187.5 154.433594 Z M 187.5 154.433594 " fill-opacity="1" fill-rule="nonzero"/></svg>