<svg xmlns="http://www.w3.org/2000/svg" xmlns:xlink="http://www.w3.org/1999/xlink" width="24" zoomAndPan="magnify" viewBox="0 0 375 374.999991" height="24" preserveAspectRatio="xMidYMid meet" version="1.0"><defs><clipPath id="249655a1bf"><path d="M 52.613281 0 L 322.386719 0 L 322.386719 375 L 52.613281 375 Z M 52.613281 0 " clip-rule="nonzero"/></clipPath></defs><g clip-path="url(#249655a1bf)"><path fill="#9fc7aa" d="M 322.320312 190.867188 C 322.320312 244.179688 322.625 297.496094 321.964844 350.804688 C 321.875 358.226562 319.121094 368.121094 313.921875 372.402344 C 305.65625 379.203125 297.726562 371.125 290.859375 365.632812 C 260.453125 341.328125 229.792969 317.332031 199.875 292.433594 C 191.613281 285.5625 186.601562 284.792969 177.84375 291.953125 C 146.273438 317.757812 114.101562 342.855469 81.515625 367.363281 C 76.109375 371.429688 66.300781 374.230469 60.730469 372.03125 C 56.289062 370.28125 52.996094 360.019531 52.96875 353.523438 C 52.507812 245.042969 52.59375 136.554688 52.6875 28.070312 C 52.703125 8.148438 60.625 0.132812 80.449219 0.0976562 C 151.820312 -0.0351562 223.191406 -0.0273438 294.558594 0.0898438 C 314.296875 0.121094 322.148438 8.101562 322.195312 28.140625 C 322.324219 82.382812 322.242188 136.621094 322.242188 190.867188 C 322.265625 190.867188 322.292969 190.867188 322.320312 190.867188 " fill-opacity="1" fill-rule="nonzero"/></g></svg>