<svg xmlns="http://www.w3.org/2000/svg" xmlns:xlink="http://www.w3.org/1999/xlink" width="24" zoomAndPan="magnify" viewBox="0 0 375 374.999991" height="24" preserveAspectRatio="xMidYMid meet" version="1.0"><defs><clipPath id="edfa1280b1"><path d="M 31.203125 2.257812 L 343.953125 2.257812 L 343.953125 372 L 31.203125 372 Z M 31.203125 2.257812 " clip-rule="nonzero"/></clipPath></defs><g clip-path="url(#edfa1280b1)"><path fill="#00bf63" d="M 314.191406 2.257812 L 60.742188 2.257812 C 44.546875 2.257812 31.328125 15.476562 31.328125 31.671875 L 31.328125 344.40625 C 31.328125 354.421875 36.878906 363.519531 45.75 368.15625 C 49.640625 370.214844 53.929688 371.191406 58.164062 371.191406 C 63.546875 371.191406 68.925781 369.53125 73.503906 366.324219 L 187.496094 286.667969 L 301.488281 366.324219 C 309.726562 372.046875 320.371094 372.734375 329.242188 368.097656 C 338.113281 363.464844 343.664062 354.367188 343.664062 344.351562 L 343.664062 31.671875 C 343.664062 15.476562 330.445312 2.257812 314.191406 2.257812 Z M 314.191406 2.257812 " fill-opacity="1" fill-rule="nonzero"/></g></svg>