<svg xmlns="http://www.w3.org/2000/svg" xmlns:xlink="http://www.w3.org/1999/xlink" width="24" zoomAndPan="magnify" viewBox="0 0 375 374.999991" height="24  " preserveAspectRatio="xMidYMid meet" version="1.0"><defs><clipPath id="6a25a9d181"><path d="M 49 0 L 325.734375 0 L 325.734375 374 L 49 374 Z M 49 0 " clip-rule="nonzero"/></clipPath></defs><g clip-path="url(#6a25a9d181)"><path fill="#9fc7aa" d="M 309.253906 373.375 C 307.023438 373.367188 304.886719 372.921875 302.84375 372.03125 C 300.796875 371.144531 299.011719 369.886719 297.484375 368.261719 L 187.5 251.625 L 77.515625 368.261719 C 76.960938 368.847656 76.367188 369.386719 75.730469 369.882812 C 75.09375 370.378906 74.425781 370.824219 73.726562 371.21875 C 73.023438 371.617188 72.296875 371.957031 71.542969 372.246094 C 70.789062 372.535156 70.019531 372.765625 69.234375 372.9375 C 68.445312 373.109375 67.652344 373.222656 66.847656 373.277344 C 66.042969 373.332031 65.242188 373.328125 64.4375 373.261719 C 63.632812 373.199219 62.839844 373.074219 62.054688 372.890625 C 61.269531 372.707031 60.503906 372.46875 59.753906 372.167969 C 59.007812 371.871094 58.285156 371.519531 57.585938 371.117188 C 56.890625 370.710938 56.226562 370.257812 55.597656 369.753906 C 54.96875 369.25 54.382812 368.703125 53.835938 368.109375 C 53.285156 367.519531 52.785156 366.890625 52.332031 366.226562 C 51.878906 365.558594 51.476562 364.863281 51.125 364.136719 C 50.777344 363.414062 50.480469 362.664062 50.242188 361.894531 C 50.003906 361.125 49.824219 360.34375 49.699219 359.546875 C 49.578125 358.75 49.515625 357.949219 49.511719 357.144531 L 49.511719 16.234375 C 49.511719 15.703125 49.539062 15.171875 49.589844 14.644531 C 49.644531 14.113281 49.722656 13.589844 49.824219 13.066406 C 49.929688 12.546875 50.058594 12.03125 50.210938 11.519531 C 50.367188 11.011719 50.546875 10.511719 50.75 10.019531 C 50.953125 9.53125 51.179688 9.050781 51.429688 8.582031 C 51.679688 8.113281 51.953125 7.65625 52.25 7.214844 C 52.542969 6.773438 52.859375 6.347656 53.199219 5.933594 C 53.535156 5.523438 53.890625 5.128906 54.269531 4.753906 C 54.644531 4.378906 55.039062 4.023438 55.449219 3.683594 C 55.859375 3.347656 56.285156 3.03125 56.726562 2.734375 C 57.167969 2.441406 57.625 2.167969 58.09375 1.917969 C 58.5625 1.667969 59.042969 1.4375 59.535156 1.234375 C 60.027344 1.03125 60.527344 0.851562 61.035156 0.699219 C 61.542969 0.542969 62.058594 0.414062 62.578125 0.3125 C 63.101562 0.207031 63.625 0.128906 64.15625 0.078125 C 64.683594 0.0273438 65.214844 0 65.746094 0 L 309.253906 0 C 309.785156 0 310.316406 0.0273438 310.84375 0.078125 C 311.375 0.128906 311.898438 0.207031 312.421875 0.3125 C 312.941406 0.414062 313.457031 0.542969 313.964844 0.699219 C 314.472656 0.851562 314.972656 1.03125 315.464844 1.234375 C 315.957031 1.4375 316.4375 1.667969 316.90625 1.917969 C 317.375 2.167969 317.832031 2.441406 318.273438 2.734375 C 318.714844 3.03125 319.140625 3.347656 319.550781 3.683594 C 319.960938 4.023438 320.355469 4.378906 320.730469 4.753906 C 321.109375 5.128906 321.464844 5.523438 321.800781 5.933594 C 322.140625 6.347656 322.457031 6.773438 322.75 7.214844 C 323.046875 7.65625 323.320312 8.113281 323.570312 8.582031 C 323.820312 9.050781 324.046875 9.53125 324.25 10.019531 C 324.453125 10.511719 324.632812 11.011719 324.789062 11.519531 C 324.941406 12.03125 325.070312 12.546875 325.175781 13.066406 C 325.277344 13.589844 325.355469 14.113281 325.410156 14.644531 C 325.460938 15.171875 325.488281 15.703125 325.488281 16.234375 L 325.488281 357.144531 C 325.488281 357.675781 325.460938 358.203125 325.410156 358.734375 C 325.355469 359.261719 325.277344 359.789062 325.175781 360.308594 C 325.070312 360.832031 324.941406 361.347656 324.789062 361.855469 C 324.632812 362.363281 324.453125 362.863281 324.25 363.355469 C 324.046875 363.847656 323.820312 364.328125 323.570312 364.796875 C 323.320312 365.265625 323.046875 365.71875 322.75 366.160156 C 322.457031 366.605469 322.140625 367.03125 321.800781 367.441406 C 321.464844 367.851562 321.109375 368.246094 320.730469 368.621094 C 320.355469 368.996094 319.960938 369.355469 319.550781 369.691406 C 319.140625 370.027344 318.714844 370.34375 318.273438 370.640625 C 317.832031 370.9375 317.375 371.210938 316.90625 371.460938 C 316.4375 371.710938 315.957031 371.9375 315.464844 372.140625 C 314.972656 372.34375 314.472656 372.523438 313.964844 372.675781 C 313.457031 372.832031 312.941406 372.960938 312.421875 373.066406 C 311.898438 373.167969 311.375 373.246094 310.84375 373.296875 C 310.316406 373.351562 309.785156 373.375 309.253906 373.375 Z M 187.5 212.09375 C 189.730469 212.101562 191.867188 212.550781 193.910156 213.4375 C 195.957031 214.328125 197.742188 215.582031 199.269531 217.207031 L 293.019531 316.558594 L 293.019531 32.46875 L 81.980469 32.46875 L 81.980469 316.558594 L 175.730469 217.125 C 177.265625 215.515625 179.054688 214.277344 181.097656 213.402344 C 183.144531 212.527344 185.277344 212.089844 187.5 212.09375 Z M 187.5 212.09375 " fill-opacity="1" fill-rule="nonzero"/></g></svg>