<svg xmlns="http://www.w3.org/2000/svg" xmlns:xlink="http://www.w3.org/1999/xlink" width="24" zoomAndPan="magnify" viewBox="0 0 375 374.999991" height="24" preserveAspectRatio="xMidYMid meet" version="1.0"><defs><clipPath id="cc4f43cbcf"><path d="M 41.015625 0 L 334 0 L 334 375 L 41.015625 375 Z M 41.015625 0 " clip-rule="nonzero"/></clipPath></defs><g clip-path="url(#cc4f43cbcf)"><path fill="#00bf63" d="M 325.847656 374.347656 C 323.777344 374.347656 321.742188 373.558594 320.195312 372.066406 L 187.5 244.054688 L 54.804688 372.066406 C 52.453125 374.335938 48.976562 374.976562 45.972656 373.699219 C 42.96875 372.425781 41.015625 369.476562 41.015625 366.210938 L 41.015625 8.136719 C 41.015625 3.644531 44.660156 0 49.152344 0 L 325.847656 0 C 330.339844 0 333.984375 3.644531 333.984375 8.136719 L 333.984375 366.210938 C 333.984375 369.476562 332.035156 372.425781 329.027344 373.699219 C 328 374.136719 326.921875 374.347656 325.847656 374.347656 Z M 187.5 224.609375 C 189.535156 224.609375 191.574219 225.371094 193.148438 226.890625 L 317.707031 347.050781 L 317.707031 16.277344 L 57.292969 16.277344 L 57.292969 347.050781 L 181.851562 226.890625 C 183.425781 225.371094 185.464844 224.609375 187.5 224.609375 Z M 187.5 224.609375 " fill-opacity="1" fill-rule="nonzero"/></g></svg>