<svg xmlns="http://www.w3.org/2000/svg" xmlns:xlink="http://www.w3.org/1999/xlink" width="24" zoomAndPan="magnify" viewBox="0 0 375 374.999991" height="24" preserveAspectRatio="xMidYMid meet" version="1.0"><path fill="#00bf63" d="M 218.128906 241.503906 L 241.492188 218.140625 L 288.925781 265.570312 L 265.5625 288.933594 Z M 218.128906 241.503906 " fill-opacity="1" fill-rule="nonzero"/><path fill="#00bf63" d="M 363.835938 313.972656 C 374.160156 324.296875 374.160156 341.046875 363.835938 351.386719 L 351.371094 363.835938 C 341.03125 374.175781 324.296875 374.175781 313.972656 363.835938 L 247.167969 297.015625 C 236.828125 286.679688 236.828125 269.941406 247.152344 259.617188 L 259.617188 247.152344 C 269.941406 236.828125 286.707031 236.828125 297.03125 247.152344 Z M 363.835938 313.972656 " fill-opacity="1" fill-rule="nonzero"/><path fill="#00bf63" d="M 141.890625 -0.171875 C 63.417969 -0.171875 -0.171875 63.417969 -0.171875 141.890625 C -0.171875 220.367188 63.417969 283.972656 141.890625 283.972656 C 220.367188 283.972656 283.972656 220.367188 283.972656 141.890625 C 283.972656 63.417969 220.367188 -0.171875 141.890625 -0.171875 Z M 141.890625 257.679688 C 77.925781 257.679688 26.089844 205.859375 26.089844 141.890625 C 26.089844 77.925781 77.925781 26.105469 141.890625 26.105469 C 205.859375 26.105469 257.691406 77.925781 257.691406 141.890625 C 257.691406 205.859375 205.859375 257.679688 141.890625 257.679688 Z M 141.890625 257.679688 " fill-opacity="1" fill-rule="nonzero"/><path fill="#00bf63" d="M 171.023438 212.214844 C 114.351562 212.214844 68.382812 166.257812 68.382812 109.574219 C 68.382812 108.070312 68.542969 106.59375 68.613281 105.085938 C 61.128906 117.191406 56.742188 131.421875 56.742188 146.683594 C 56.742188 190.511719 92.273438 226.027344 136.085938 226.027344 C 153.011719 226.027344 168.648438 220.699219 181.550781 211.679688 C 178.089844 212.054688 174.570312 212.214844 171.023438 212.214844 Z M 171.023438 212.214844 " fill-opacity="1" fill-rule="nonzero"/></svg>