<svg xmlns="http://www.w3.org/2000/svg" xmlns:xlink="http://www.w3.org/1999/xlink" width="100" zoomAndPan="magnify" viewBox="0 0 375 374.999991" height="100" preserveAspectRatio="xMidYMid meet" version="1.0"><defs><g/><clipPath id="e66393c116"><path d="M 67.367188 63.113281 L 307.628906 63.113281 L 307.628906 311.878906 L 67.367188 311.878906 Z M 67.367188 63.113281 " clip-rule="nonzero"/></clipPath><clipPath id="77fd6d490b"><path d="M 136 109 L 148 109 L 148 203.972656 L 136 203.972656 Z M 136 109 " clip-rule="nonzero"/></clipPath><clipPath id="bfda265d63"><path d="M 185 81.898438 L 195 81.898438 L 195 110 L 185 110 Z M 185 81.898438 " clip-rule="nonzero"/></clipPath><clipPath id="017af55a42"><path d="M 184 114 L 197 114 L 197 203.972656 L 184 203.972656 Z M 184 114 " clip-rule="nonzero"/></clipPath><clipPath id="5979dccb3a"><path d="M 227 117 L 244 117 L 244 203.972656 L 227 203.972656 Z M 227 117 " clip-rule="nonzero"/></clipPath></defs><g clip-path="url(#e66393c116)"><path fill="#32250c" d="M 292.273438 207.289062 C 292.597656 205.933594 292.898438 204.570312 293.175781 203.203125 C 293.746094 202.328125 294.257812 200.558594 294.765625 199.25 C 294.964844 197.894531 294.164062 197.769531 294.671875 196.542969 C 294.660156 195.183594 295.347656 194.570312 295.148438 195.75 C 295.355469 195.453125 295.484375 194.59375 295.691406 194.355469 C 295.878906 192.871094 296.007812 191.460938 295.917969 190.832031 C 295.632812 192.007812 295.433594 194.113281 294.902344 193.640625 C 295.007812 192.652344 295.109375 191.664062 295.1875 190.671875 C 295.609375 188.84375 295.902344 191.597656 296.089844 188.4375 C 296.265625 186.855469 295.917969 187.761719 295.773438 187.464844 C 295.640625 187.195312 295.605469 186.65625 295.449219 186.503906 C 295.5 185.796875 295.460938 185.460938 295.367188 185.390625 C 295.320312 182.261719 295.777344 181.625 295.632812 178.679688 C 296.167969 178.0625 296.019531 181.671875 296.414062 181.761719 C 296.890625 182.449219 296.738281 180.058594 296.6875 178.464844 C 296.648438 178.390625 296.609375 178.316406 296.570312 178.234375 C 295.59375 173.902344 295.15625 171.691406 293.894531 168.429688 C 293.980469 168.199219 293.65625 167.273438 293.457031 166.570312 C 293.878906 166.644531 293.125 164.761719 293.539062 164.832031 C 293.941406 165.378906 294.5625 167.847656 294.945312 168.570312 C 294.964844 168.152344 295.007812 167.816406 294.957031 167.226562 C 294.75 165.476562 294.457031 165.640625 294.214844 163.898438 C 294.28125 163.894531 294.277344 163.71875 294.246094 163.472656 C 294.066406 162.953125 294.039062 162.691406 294.074219 162.527344 C 293.988281 162.082031 293.902344 161.65625 293.90625 161.460938 C 293.910156 161.148438 293.90625 160.976562 293.871094 160.800781 C 293.679688 160.132812 293.472656 159.445312 293.394531 158.960938 C 293.394531 158.957031 293.394531 158.957031 293.398438 158.953125 L 293.070312 157.570312 C 293.121094 158.15625 293.15625 158.777344 292.914062 158.757812 C 292.902344 159.664062 293.632812 160.113281 293.703125 161.183594 C 293.222656 160.671875 292.539062 159.207031 291.964844 158.359375 C 291.207031 156.636719 291.164062 155.964844 290.703125 154.71875 C 289.910156 153.183594 290.824219 155.761719 290.304688 155.351562 C 289.964844 154.640625 289.769531 154.722656 289.40625 153.9375 C 288.910156 152.878906 288.816406 153.492188 288.335938 152.792969 C 287.898438 152.160156 287.292969 150.378906 287.132812 150.871094 C 286.417969 148.726562 284.703125 146.820312 284.804688 145.671875 C 284.21875 144.859375 283.773438 144.457031 283.097656 143.460938 C 281.988281 141.511719 280.996094 139.796875 280.378906 138.457031 C 279.589844 137.199219 279.550781 137.625 278.621094 136.117188 C 278.613281 135.359375 277.582031 133.746094 278.015625 133.386719 C 276.542969 131.324219 275.597656 130.425781 274.558594 129.359375 C 274.078125 128.800781 273.859375 128.707031 273.675781 128.679688 C 275.082031 130.730469 276.4375 132.8125 277.695312 134.957031 C 289.960938 155.726562 294.742188 180.269531 291.78125 203.394531 C 291.09375 205.441406 291.472656 203.484375 290.785156 203.976562 C 290.421875 206.433594 291.378906 204.734375 291.148438 206.695312 C 290.589844 210.40625 289.78125 214.253906 288.738281 218.152344 C 288.78125 218.039062 288.824219 217.925781 288.863281 217.8125 C 289.949219 214.828125 290.863281 211.9375 291.6875 209.613281 C 292.027344 208.890625 292.351562 208.78125 292.675781 208.734375 C 293.109375 206.996094 292.207031 208.222656 292.273438 207.289062 Z M 292.386719 233.164062 L 291.9375 233.246094 C 291.480469 233.945312 290.972656 234.839844 290.324219 236.164062 C 290.542969 236.105469 290.511719 236.382812 290.476562 236.667969 C 291.132812 235.753906 292.121094 234.335938 292.386719 233.164062 Z M 147.15625 294.597656 C 146.417969 294.324219 145.957031 294.085938 145.511719 293.835938 C 145.339844 294.191406 147.078125 294.9375 147.15625 294.597656 Z M 136.570312 289.539062 C 136.570312 289.535156 136.570312 289.535156 136.570312 289.53125 C 134.03125 288.644531 133.867188 288.128906 132.597656 287.289062 C 132.296875 287.089844 132.429688 286.691406 131.5 286.199219 C 130.964844 286.210938 129.9375 285.851562 129.847656 286.34375 C 129.746094 286.847656 131.5 288.339844 130.824219 288.695312 C 132.410156 289.695312 131.539062 288.851562 133.132812 289.828125 C 131.765625 288.164062 131.339844 287.347656 132.457031 287.1875 C 134.582031 288.6875 135.300781 288.753906 136.570312 289.539062 Z M 93.421875 263.6875 C 92.871094 263.773438 94.378906 265.589844 95.1875 266.746094 C 95.371094 266.355469 94.316406 264.992188 93.421875 263.6875 Z M 72.238281 159.136719 C 72.261719 160.644531 72.515625 161.472656 72.871094 161.941406 C 73.246094 160.609375 73.65625 159.191406 74.085938 157.792969 C 73.972656 157.625 73.878906 157.40625 73.78125 157.199219 C 73.65625 156.246094 73.175781 158.535156 73.050781 158.71875 C 72.777344 159.085938 72.738281 157.503906 72.238281 159.136719 Z M 137.738281 86.265625 C 137.363281 86.449219 136.960938 86.667969 136.558594 86.890625 C 136.980469 86.695312 137.402344 86.5 137.824219 86.308594 C 137.796875 86.28125 137.769531 86.25 137.738281 86.265625 Z M 138.859375 85.773438 C 138.757812 85.816406 138.542969 85.945312 138.339844 86.070312 C 138.539062 85.980469 138.734375 85.890625 138.933594 85.804688 C 138.914062 85.777344 138.898438 85.757812 138.859375 85.773438 Z M 139.917969 85.386719 C 140.484375 85.144531 141.054688 84.898438 141.628906 84.664062 C 141.796875 84.546875 141.980469 84.425781 142.273438 84.285156 C 142.820312 84.015625 143.4375 83.746094 144.078125 83.484375 L 142.519531 83.964844 C 142.046875 84.09375 140.839844 84.867188 139.917969 85.386719 Z M 145.785156 81.429688 C 146.503906 81.101562 146.996094 80.941406 147.484375 80.800781 C 147.355469 80.433594 145.605469 81.136719 145.785156 81.429688 Z M 155.648438 79.582031 C 155.046875 79.742188 154.433594 79.945312 153.816406 80.167969 C 154.175781 80.058594 154.539062 79.945312 154.878906 79.839844 C 155.496094 79.902344 155.695312 79.925781 155.695312 80.011719 C 157.398438 79.574219 159.117188 79.1875 160.847656 78.832031 C 162.21875 78.386719 161.832031 78.066406 164.011719 77.601562 C 165.113281 77.738281 167.378906 77.050781 170.773438 76.578125 C 173.023438 76.265625 175.40625 76.039062 178.03125 75.644531 C 178.25 75.976562 179.0625 76.355469 178.199219 76.617188 C 178.191406 76.636719 178.210938 76.65625 178.210938 76.675781 C 179.804688 76.605469 181.394531 76.570312 182.976562 76.570312 C 183.164062 76.453125 183.382812 76.328125 183.464844 76.214844 C 184.613281 75.953125 184.316406 76.175781 186.101562 76.101562 C 187.792969 76.035156 186.808594 75.621094 187.613281 75.445312 C 189.667969 75.304688 189.234375 75.742188 190.546875 75.789062 C 192.910156 75.902344 193.246094 75.691406 194.347656 75.613281 C 196.796875 75.910156 197.796875 75.667969 199.832031 76.171875 C 201.976562 76.070312 203.875 76.632812 206.371094 76.746094 C 206.460938 76.875 207.234375 76.960938 207.765625 77.066406 C 208.972656 77.550781 209.550781 78.078125 210.960938 78.578125 C 212.839844 78.855469 214.289062 79.28125 215.503906 79.464844 C 216.769531 79.664062 216.210938 79.199219 217.902344 79.628906 L 218.085938 80.050781 C 219.542969 80.320312 219.613281 79.996094 221.070312 80.292969 C 224.25 81.054688 226.078125 81.832031 228.773438 82.734375 C 229.40625 83.230469 230.5625 83.796875 230.355469 84.199219 C 230.886719 84.507812 231.183594 84.554688 232.265625 85.027344 C 232.910156 85.3125 233.652344 85.742188 234.769531 86.132812 C 235.257812 86.300781 235.339844 86.226562 235.957031 86.484375 C 236.691406 86.726562 237.15625 86.816406 237.0625 86.546875 C 237.476562 86.597656 238.121094 86.789062 238.820312 87.039062 C 241.792969 88.386719 240.734375 88.460938 241.429688 89.046875 C 243.160156 89.875 245.304688 90.878906 246.195312 91.574219 C 247.6875 92.355469 246.9375 91.421875 248.4375 92.226562 C 253.207031 94.886719 257.171875 97.703125 259.722656 100.074219 C 259.8125 100.121094 259.898438 100.183594 259.988281 100.234375 C 254.796875 95.511719 249.574219 91.65625 243.972656 88.277344 C 238.222656 84.828125 232.054688 81.859375 224.875 79.402344 C 224.273438 79.054688 224.367188 78.71875 223.074219 78.273438 C 222.429688 78.058594 222.078125 77.945312 221.921875 77.773438 C 220.929688 77.644531 219.082031 77.109375 218.742188 77.34375 C 216.015625 76.445312 215.496094 75.589844 211.664062 74.859375 C 210.492188 74.652344 211.742188 75.429688 210.792969 75.3125 C 209.660156 75.0625 209.050781 74.902344 208.398438 74.613281 C 207.9375 74.414062 208.121094 74.203125 207.589844 73.976562 C 206.53125 73.523438 205.675781 73.082031 203.808594 72.796875 C 203.347656 72.738281 203.308594 72.882812 203.359375 72.984375 C 203.503906 73.289062 204.304688 73.53125 205.40625 73.886719 L 205.773438 74.6875 C 204.503906 74.53125 203.238281 74.664062 201.957031 74.558594 C 200.460938 74.441406 199.089844 74.0625 196.734375 73.972656 C 195.894531 73.953125 195.757812 74.03125 195.082031 74.007812 C 195.050781 74.007812 193.921875 73.863281 192.710938 73.777344 C 191.496094 73.679688 190.195312 73.652344 189.839844 73.765625 C 189.261719 73.953125 188.785156 73.75 186.96875 73.8125 C 186.046875 73.847656 186.070312 73.953125 185.335938 73.996094 C 183.914062 74.082031 181.828125 74.164062 180.195312 74.355469 C 179.316406 74.460938 178.148438 74.699219 177.449219 74.777344 C 177.515625 74.769531 177.148438 74.695312 176.789062 74.734375 C 176.605469 74.753906 175.796875 74.894531 175.65625 74.886719 C 174.753906 74.847656 175.117188 74.914062 173.398438 75.222656 C 170.316406 75.785156 166.980469 76.359375 163.917969 77.203125 C 163.09375 77.019531 162.742188 76.945312 162.617188 76.65625 C 162.40625 76.195312 164.140625 75.617188 163.769531 75.082031 C 163.480469 74.65625 161.105469 74.921875 161.328125 74.195312 C 159.5 74.613281 160.546875 74.761719 158.730469 75.199219 C 160.871094 75.40625 161.414062 76.019531 160.742188 76.925781 C 158.179688 77.371094 157.363281 78.09375 155.503906 78.847656 C 155.855469 79.046875 156.128906 79.257812 155.648438 79.582031 Z M 202.203125 64.285156 C 202.34375 64.691406 204.058594 64.90625 205.613281 65.195312 C 205.941406 64.742188 203.585938 64.53125 202.203125 64.285156 Z M 276.5 104.785156 C 276.554688 105.28125 277.703125 106.605469 277.992188 107.308594 C 279.148438 108.734375 278.527344 108.773438 279.8125 110.351562 C 281.644531 112.210938 281.847656 111.023438 282.453125 110.554688 C 282.425781 110.285156 282.09375 109.761719 281.761719 109.242188 C 281.171875 108.898438 280.925781 109.167969 279.558594 107.460938 C 278.757812 106.476562 279.15625 106.429688 278 105.203125 C 277.976562 105.851562 276.617188 104.285156 276.5 104.785156 Z M 283.082031 112.019531 C 284.238281 113.589844 285.488281 115.542969 285.460938 114.722656 C 285.257812 113.996094 283.96875 112.023438 283.269531 111.4375 Z M 284.667969 142.480469 C 285.839844 144.484375 286.433594 145.070312 286.828125 144.996094 C 286.53125 144.078125 285.183594 141.769531 284.65625 141.269531 C 284.410156 141.414062 284.472656 141.878906 284.667969 142.480469 Z M 272.902344 123.828125 C 271.597656 122.367188 271.378906 122.644531 271.070312 122.746094 C 272.585938 124.511719 272.21875 123.363281 272.902344 123.828125 Z M 271.960938 126.261719 C 271.863281 125.816406 271.515625 125.0625 271.183594 124.507812 C 270.433594 123.695312 269.957031 123.3125 269.617188 123.152344 C 270.417969 124.171875 271.195312 125.210938 271.960938 126.261719 Z M 277.636719 210.375 C 276.96875 214.367188 275.546875 218.890625 273.867188 223.230469 C 272.199219 227.589844 270.273438 231.761719 268.894531 235.390625 C 270.824219 231.171875 269.964844 234.804688 271.222656 232.660156 C 271.289062 230.609375 273.332031 226.199219 274.972656 221.609375 C 276.648438 217.035156 277.902344 212.308594 277.636719 210.375 Z M 278.839844 218.433594 C 278.121094 219.59375 277.421875 222.265625 276.679688 224.394531 C 276.503906 224.914062 276.324219 225.398438 276.152344 225.820312 C 276.09375 226.066406 275.957031 226.441406 275.683594 227.035156 C 275.566406 227.136719 275.488281 227.1875 275.417969 227.210938 C 275.175781 227.476562 274.96875 227.480469 274.800781 227.085938 C 273.898438 229.875 273.296875 230.746094 273.257812 231.503906 C 274.039062 230.714844 273.539062 232.003906 272.84375 233.59375 C 272.15625 235.179688 271.253906 237.042969 271.464844 237.5 C 273.140625 234.691406 272.496094 235.515625 273.96875 232.191406 C 274.710938 231.972656 275.507812 231.441406 276.375 230.050781 C 277.003906 227.535156 274.328125 232.21875 275.101562 229.496094 C 276.914062 225.796875 278.28125 221.707031 278.839844 218.433594 Z M 243.851562 99.59375 C 243.597656 99.253906 243.269531 98.902344 242.957031 98.652344 C 241.980469 98.207031 241.074219 97.765625 240.195312 97.324219 C 241.429688 98.054688 242.648438 98.8125 243.851562 99.59375 Z M 270.585938 122.589844 C 270.835938 122.417969 269.878906 121.457031 270.316406 121.410156 C 268.976562 119.871094 268.9375 120.28125 268.101562 119.507812 C 267.136719 118.5625 266.527344 117.621094 265.957031 116.9375 C 265.324219 116.167969 264.722656 115.523438 264.199219 114.828125 C 262.472656 113.371094 262.472656 114.003906 259.929688 111.691406 C 259.492188 111.46875 259.402344 111.644531 259.382812 111.902344 C 260.265625 112.746094 261.140625 113.601562 261.996094 114.480469 C 262.066406 114.503906 262.140625 114.535156 262.191406 114.546875 C 263.007812 115.335938 264.085938 116.300781 264.433594 116.871094 C 264.707031 117.027344 265.023438 117.320312 265.355469 117.554688 C 266.03125 118.023438 266.023438 118.082031 266.683594 118.816406 C 268.019531 120.339844 268.414062 120.324219 270.585938 122.589844 Z M 268.808594 238.128906 C 268.503906 238.558594 268.25 238.984375 268.082031 239.398438 C 268.15625 239.390625 268.207031 239.4375 268.238281 239.550781 C 268.550781 238.851562 268.71875 238.417969 268.808594 238.128906 Z M 270.898438 235.273438 C 269.894531 237.015625 268.738281 238.757812 267.90625 240.089844 C 267.902344 240.15625 267.878906 240.226562 267.878906 240.292969 C 268.988281 238.730469 271.261719 236.152344 270.898438 235.273438 Z M 267.773438 246.796875 C 268.730469 245.792969 269.957031 243.78125 271.101562 241.644531 C 270.992188 241.074219 270.109375 242.394531 269.25 243.820312 C 268.402344 245.25 267.5625 246.796875 267.773438 246.796875 Z M 267.34375 244.242188 C 268.472656 242.90625 269.539062 241.160156 269.824219 240.125 C 268.820312 241.902344 268.082031 242.410156 267.339844 242.976562 C 266.59375 243.539062 265.84375 244.152344 264.664062 246.070312 C 265.042969 246.511719 266.214844 245.582031 267.34375 244.242188 Z M 177.953125 291.042969 C 179.910156 291.15625 179.867188 290.804688 180.015625 290.511719 C 177.691406 290.339844 178.761719 290.894531 177.953125 291.042969 Z M 233.671875 270.597656 C 233.066406 271.019531 232.328125 271.496094 231.527344 272.003906 C 231.972656 272.050781 232.714844 271.757812 233.519531 271.371094 C 233.332031 271.210938 233.496094 270.90625 233.671875 270.597656 Z M 237.207031 267.789062 C 237.726562 267.332031 238.65625 266.667969 238.425781 266.5625 C 236.273438 268.148438 235.71875 268.78125 235.726562 269.15625 C 235.734375 269.523438 236.285156 269.59375 236.230469 269.9375 C 238.027344 268.632812 238.023438 268.148438 240.457031 266.429688 C 240.265625 265.648438 237.675781 268.214844 237.207031 267.789062 Z M 248.011719 256.34375 C 248.277344 255.890625 247.976562 255.230469 246.6875 255.855469 C 246.625 255.921875 246.570312 255.980469 246.507812 256.050781 C 246.15625 256.421875 245.769531 256.824219 245.375 257.238281 C 245.429688 257.476562 245.820312 257.503906 244.382812 258.667969 C 243.949219 258.917969 243.75 258.996094 243.664062 258.976562 C 241.675781 260.964844 239.359375 263.167969 237.003906 265.148438 C 236.0625 265.957031 235.121094 266.726562 234.210938 267.445312 C 234.667969 267.632812 236.878906 266.207031 239.546875 264.046875 C 242.3125 261.832031 245.492188 258.8125 248.011719 256.34375 Z M 247.308594 260.988281 C 246.65625 261.015625 247.476562 260.117188 246.910156 260.089844 C 244.613281 262 244.179688 263.804688 245.257812 262.917969 C 245.085938 262.539062 246.210938 262.121094 247.308594 260.988281 Z M 256.09375 244.289062 L 256.90625 244.335938 C 257.625 243.242188 258.839844 241.585938 258.613281 241.34375 C 257.734375 242.523438 257.367188 241.964844 256.09375 244.289062 Z M 266.339844 246.035156 C 265.539062 245.9375 264.039062 248.164062 262.496094 250.078125 C 261.691406 250.308594 263.800781 247.777344 263.324219 247.671875 C 261.0625 250.351562 257.929688 253.324219 256.0625 256.066406 C 255.859375 254.714844 259.144531 251.347656 261.636719 246.855469 C 262.71875 245.519531 263.34375 245.566406 264.316406 244.464844 C 265.136719 242.5625 265.84375 240.832031 268.039062 237.078125 C 266.148438 239.246094 263.890625 243.125 260.910156 247.289062 C 257.949219 251.457031 254.234375 255.890625 250.117188 259.167969 C 249.042969 260.921875 247.207031 262.617188 245.078125 264.242188 C 242.945312 265.871094 240.527344 267.425781 238.265625 269.019531 C 237.8125 269.339844 237.335938 269.675781 236.851562 270.019531 C 236.921875 270.027344 236.984375 270.035156 237.039062 270.066406 C 230.832031 274.578125 224.941406 278.128906 218.753906 281.105469 C 212.558594 284.058594 206.035156 286.449219 198.429688 287.972656 C 197.320312 288.191406 196.203125 288.378906 195.085938 288.5625 C 195.074219 288.757812 195.523438 288.933594 195.253906 289.113281 C 194.917969 289.339844 192.597656 289.667969 192.089844 290.015625 C 190.949219 290.035156 189.507812 290.117188 188.855469 289.964844 C 188.554688 290.046875 188.121094 290.0625 187.722656 290.132812 C 186.914062 290.277344 186.875 290.234375 185.894531 290.179688 C 183.871094 290.050781 183.605469 290.34375 180.46875 290.285156 C 180.410156 290.578125 181.765625 290.578125 181.488281 290.921875 C 183.527344 291.0625 183.265625 290.746094 184.398438 290.695312 C 185.753906 290.683594 186.851562 290.917969 187.738281 290.996094 C 188.730469 291.089844 189.609375 291.117188 190.46875 291.234375 C 192.726562 291.039062 192.273438 290.597656 195.710938 290.425781 C 196.429688 290.191406 195.890625 289.867188 195.640625 289.566406 C 198.15625 289.214844 198.714844 289.53125 199.773438 289.667969 C 202.289062 288.980469 200.210938 288.539062 199.566406 287.953125 C 200.75 287.507812 202.738281 287.148438 204.707031 286.835938 C 206.933594 286.484375 207.902344 286.703125 209.363281 286.464844 C 209.828125 286.378906 210.097656 286.304688 210.261719 286.234375 C 209.757812 286.304688 209.28125 286.351562 208.878906 286.347656 C 211.871094 285.460938 214.476562 284.441406 214.886719 283.773438 C 215.960938 283.40625 215.621094 283.738281 215.113281 283.9375 C 215.597656 284.417969 216.660156 283.992188 217.773438 283.511719 C 218.886719 283.027344 220.042969 282.496094 220.800781 282.816406 C 220.4375 282.972656 220.074219 283.121094 219.707031 283.273438 C 220.335938 283.109375 220.9375 282.960938 221.480469 282.84375 C 221.597656 283.144531 221.101562 283.550781 220.382812 283.992188 C 222.097656 283.265625 223.996094 282.632812 224.28125 282.972656 C 225.070312 282.566406 225.867188 282.136719 226.667969 281.699219 C 226.671875 281.664062 226.671875 281.636719 226.707031 281.59375 C 226.796875 281.492188 227.242188 281.386719 227.140625 281.277344 C 227.0625 281.203125 227.640625 280.933594 227.441406 280.878906 C 227.949219 280.730469 228.480469 280.578125 229.226562 280.230469 C 230.121094 279.816406 230.691406 279.183594 231.570312 278.730469 C 232.050781 278.488281 232.703125 278.144531 233.394531 277.796875 C 238.304688 274.757812 243.242188 271.257812 247.832031 267.300781 C 255.328125 260.910156 261.816406 253.363281 266.339844 246.035156 Z M 225.6875 282.769531 C 223.6875 283.734375 221.480469 284.761719 219.15625 285.609375 C 219.023438 285.699219 218.898438 285.785156 218.800781 285.855469 C 217.316406 286.363281 216.84375 286.261719 215.597656 286.59375 C 215.453125 286.789062 215.121094 286.996094 214.691406 287.191406 C 214.734375 287.347656 215.007812 287.46875 215.371094 287.539062 C 216.75 287.066406 218.015625 286.578125 219.210938 286.125 C 221.5 285.246094 223.539062 284.484375 225.722656 283.996094 C 225.269531 283.839844 224.910156 284.027344 225.132812 283.566406 C 224.5625 283.519531 225.679688 283.070312 225.890625 282.863281 C 225.953125 282.8125 225.789062 282.792969 225.6875 282.769531 Z M 210.320312 288.011719 L 210.761719 288.410156 C 211.492188 288.238281 211.925781 288.050781 212.074219 287.914062 C 211.574219 287.976562 211.136719 287.972656 210.875 287.875 C 210.699219 287.910156 210.527344 287.953125 210.320312 288.011719 Z M 225.792969 284.03125 C 223.921875 284.917969 222.019531 285.742188 220.125 286.492188 C 221.265625 286.125 222.378906 285.796875 223.496094 285.519531 C 224.761719 284.957031 224.636719 284.652344 225.878906 284.066406 C 225.851562 284.050781 225.820312 284.042969 225.792969 284.03125 Z M 250.71875 266.699219 C 247.449219 269.183594 243.144531 272.179688 239.195312 274.679688 C 238.378906 275.207031 237.582031 275.707031 236.8125 276.191406 C 237.523438 275.855469 238.261719 275.496094 238.738281 275.238281 C 239.621094 274.765625 240.453125 274.203125 241.320312 273.707031 C 242.960938 272.761719 244.773438 271.671875 246.605469 270.488281 C 248.242188 269.25 249.742188 267.949219 250.71875 266.699219 Z M 72.886719 178.757812 C 72.84375 179.285156 72.832031 179.90625 72.800781 180.449219 C 72.886719 180.164062 72.960938 179.800781 73.015625 179.257812 C 73.039062 177.167969 72.40625 177.199219 71.765625 177.242188 C 71.601562 178.566406 71.71875 180.414062 71.925781 182.09375 C 72.210938 181.792969 71.996094 179.601562 72.144531 178.675781 C 72.441406 178.371094 72.722656 178.148438 72.886719 178.757812 Z M 277.652344 230.859375 C 273.738281 239.851562 268.402344 248.632812 261.699219 256.605469 C 258.730469 260.144531 255.480469 263.511719 252.003906 266.679688 C 252.484375 266.320312 252.972656 265.941406 253.476562 265.550781 C 254.441406 264.816406 257.332031 262.542969 258.746094 261.304688 C 260.1875 260.054688 261.144531 259.160156 261.902344 258.433594 C 264.320312 255.621094 266.625 252.675781 268.777344 249.585938 C 272.9375 243.609375 276.53125 237.140625 279.335938 230.394531 C 282.140625 223.648438 284.164062 216.636719 285.296875 209.675781 L 285.808594 209.433594 C 285.753906 211.886719 284.976562 216.449219 283.554688 221.039062 C 282.160156 225.640625 280.117188 230.226562 278.421875 232.976562 C 276.179688 239.101562 271.773438 247.359375 265.226562 255.523438 C 265.246094 255.507812 265.257812 255.5 265.28125 255.480469 C 265.542969 255.261719 265.777344 254.945312 265.839844 255.058594 C 267.09375 254.585938 265.257812 256.472656 265.769531 256.566406 C 266.441406 255.738281 267.097656 254.914062 267.730469 254.089844 C 267.859375 253.546875 268.855469 252.308594 268.773438 251.914062 C 269.621094 250.925781 270.574219 249.820312 270.914062 249.109375 C 270.871094 249.199219 271.347656 248.34375 271.140625 248.628906 C 271.695312 247.847656 271.933594 247.828125 272.386719 247.210938 C 272.679688 246.8125 272.597656 246.734375 272.960938 246.242188 C 273.402344 245.636719 273.691406 245.335938 274.078125 244.867188 C 275.542969 242.480469 276.792969 240.226562 277.835938 238.203125 C 279.996094 233.644531 280.722656 230.199219 282.765625 227.5625 L 285.117188 218.324219 C 286.015625 214.804688 286.777344 211.804688 287.390625 212.375 C 287.972656 209.386719 287.832031 209.304688 287.746094 209.15625 C 287.640625 209.011719 287.59375 208.792969 288.035156 205.503906 C 288.277344 207.25 288.003906 207.410156 288.789062 205.097656 C 288.703125 202.113281 288.179688 205.257812 288.386719 202.433594 C 288.738281 200.507812 288.847656 202.03125 289.125 202.007812 C 289.039062 201.277344 288.984375 199.421875 289.375 198.917969 C 289.378906 197.527344 288.960938 199.09375 288.816406 200.246094 C 288.339844 198.324219 289.464844 194.59375 288.910156 192.195312 C 289.285156 191.640625 289.304688 192.878906 289.601562 192.730469 C 289.738281 190.921875 289.691406 190.050781 289.664062 189.148438 C 289.621094 188.246094 289.601562 187.304688 289.632812 185.34375 C 289.191406 188.457031 289.542969 190.410156 288.617188 188.277344 C 288.21875 190.558594 288.3125 194.867188 288.027344 198.984375 C 287.777344 203.097656 287.164062 206.996094 286.230469 208.3125 C 286.925781 206.835938 286.664062 204.875 286.128906 207.429688 C 286.058594 206.109375 286.511719 202.140625 286.824219 198.300781 C 287.160156 194.460938 287.367188 190.742188 287.734375 189.964844 C 287.214844 189.910156 287.199219 187.0625 287.011719 184.238281 C 286.839844 181.40625 286.503906 178.605469 285.976562 178.652344 C 286.703125 186.433594 286.640625 194.949219 285.351562 203.8125 C 284.074219 212.671875 281.574219 221.867188 277.652344 230.859375 Z M 285.289062 194.132812 C 285.589844 193.535156 285.941406 193.078125 285.898438 191.277344 C 285.195312 191.03125 285.4375 194.304688 284.71875 194.046875 C 284.738281 195.496094 284.496094 197.726562 284.800781 197.839844 C 284.730469 195.464844 284.980469 194.730469 285.289062 194.132812 Z M 307.566406 197.453125 C 307.503906 198.195312 307.417969 200.269531 307.34375 201.59375 C 307.269531 202.796875 307.273438 203.609375 307.027344 204.402344 C 307.246094 207.046875 306.625 210.648438 305.933594 215.074219 C 305.496094 217.9375 304.984375 221.375 304.433594 223.613281 C 304.398438 223.742188 304.289062 223.75 304.164062 224.324219 C 304.128906 224.488281 304.078125 224.800781 304.027344 224.964844 C 303.855469 225.601562 303.464844 226.886719 303.023438 228.304688 C 302.632812 229.542969 302.707031 230.121094 302.347656 231.445312 C 302.382812 231.320312 302.136719 231.761719 302.03125 232.132812 C 301.808594 232.914062 301.566406 233.902344 301.296875 234.667969 C 301.238281 234.832031 301.144531 234.773438 300.960938 235.347656 C 300.628906 236.371094 300.519531 236.457031 300.21875 237.28125 C 299.734375 238.617188 299.476562 239.59375 298.925781 241.023438 C 298.386719 242.410156 297.652344 243.851562 296.964844 245.40625 C 296.128906 247.328125 295.0625 250.074219 294.128906 250.925781 C 293.460938 252.324219 293.558594 252.625 292.539062 254.441406 C 292 255.019531 291.203125 256.53125 290.542969 257.414062 C 288.777344 260.730469 287.101562 263.253906 285.289062 265.859375 C 284.898438 266.214844 284.371094 266.9375 283.878906 267.507812 C 283.636719 267.78125 283.023438 268.347656 282.824219 268.589844 C 282.320312 269.1875 281.796875 270.097656 281.28125 270.714844 C 281.09375 270.949219 280.308594 271.613281 280.191406 271.757812 C 279.480469 272.621094 278.539062 273.953125 277.761719 274.847656 C 277.5625 274.691406 276.425781 276.339844 275.777344 276.84375 C 275.191406 277.308594 274.800781 277.847656 273.902344 278.800781 C 272.972656 279.792969 272.714844 279.8125 271.542969 281.191406 C 270.914062 281.921875 271.054688 281.886719 270.183594 282.609375 C 269.382812 283.261719 268.898438 283.933594 267.246094 285.351562 C 267.070312 285.5 267.09375 285.332031 266.621094 285.769531 C 265.980469 286.367188 265.589844 286.414062 264.890625 287.046875 C 264.757812 287.164062 264.535156 287.386719 264.402344 287.492188 L 261.65625 289.574219 C 259.976562 290.855469 257.878906 292.28125 256.363281 293.054688 C 255.261719 293.953125 254.273438 294.550781 253.085938 295.328125 C 252.390625 295.777344 250.890625 296.78125 250.277344 297.121094 C 249.910156 297.332031 249.472656 297.429688 248.90625 297.734375 C 248.363281 298.03125 247.855469 298.449219 247.679688 298.378906 C 246.332031 299.226562 244.804688 300.25 243.664062 300.683594 C 243.105469 300.90625 242.640625 301.179688 241.839844 301.585938 C 241.410156 301.800781 241.226562 301.792969 241.140625 301.835938 C 239.613281 302.597656 238.878906 303.101562 237.570312 303.589844 C 237.335938 303.683594 235.921875 304.328125 235.707031 304.378906 C 235.304688 304.492188 233.015625 305.332031 231.335938 306.136719 C 230.953125 306.121094 230.085938 306.46875 229.757812 306.410156 C 226.550781 307.808594 225.3125 307.789062 222.167969 308.921875 C 221.25 308.839844 218.890625 309.59375 217.773438 309.566406 C 211.4375 311.472656 205.28125 312.4375 203.511719 311.546875 C 204.132812 311.441406 204.761719 311.328125 205.382812 311.210938 C 204.035156 310.898438 207.25 310.230469 205.128906 310.25 C 203.433594 310.625 204.964844 310.902344 202.5625 311.332031 C 201.171875 311.59375 200.1875 311.664062 199.855469 311.492188 C 197.953125 311.816406 199.425781 311.382812 199.027344 311.355469 C 198.660156 311.335938 197.1875 311.464844 196.324219 311.433594 C 195.242188 311.402344 194.964844 311.269531 194.148438 311.28125 C 193.789062 311.28125 193.273438 311.375 192.902344 311.386719 C 192.703125 311.394531 191.921875 311.339844 192.179688 311.3125 C 191.835938 311.347656 191 311.644531 191.121094 311.636719 C 189.148438 311.691406 188.863281 311.167969 187.082031 311.453125 C 186.496094 311.308594 187.457031 311.277344 188.472656 311.28125 C 189.488281 311.277344 190.566406 311.300781 190.207031 311.320312 C 190.945312 311.289062 193.535156 310.777344 194.484375 310.875 C 194.554688 310.886719 194.5 310.992188 194.582031 310.988281 C 194.824219 310.988281 195.652344 310.851562 195.828125 310.867188 C 196.847656 310.96875 198.675781 310.46875 199.65625 310.523438 C 200.425781 310.570312 200.972656 310.40625 202.234375 310.257812 C 203.113281 310.160156 204.949219 309.921875 207.265625 309.453125 C 207.777344 309.347656 207.976562 309.433594 208.601562 309.292969 C 208.527344 309.308594 208.726562 309.140625 209.101562 309.054688 C 209.503906 308.960938 210.28125 308.902344 211.039062 308.726562 C 212.171875 308.460938 213.640625 308.296875 214.910156 307.960938 C 216.515625 307.539062 217.3125 307.011719 219.582031 306.410156 C 220.089844 306.269531 220.722656 306.210938 221.480469 305.898438 C 221.597656 305.851562 222.324219 305.492188 221.949219 305.605469 C 223.382812 305.167969 224.195312 305.085938 225.253906 304.777344 C 227.117188 303.648438 229.851562 302.960938 232.300781 301.90625 C 234.636719 300.902344 236.835938 299.640625 239.535156 298.210938 C 239.863281 298.289062 240.351562 298.230469 241.171875 297.851562 C 241.238281 298.375 241.386719 298.453125 242.40625 298.417969 C 244.59375 297.199219 244.820312 296.730469 247.113281 295.367188 C 248.039062 294.429688 247.929688 293.917969 248.46875 293.136719 C 249.933594 292.085938 250.367188 292.164062 251.8125 291.070312 C 251.980469 291.308594 251.792969 291.71875 251.652344 292.101562 C 251.066406 292.863281 253.027344 291.585938 253.246094 291.546875 C 253.695312 291.476562 252.605469 292.625 254.109375 291.824219 C 255.371094 290.53125 255.714844 289.683594 255.671875 289.0625 C 257.433594 287.886719 258.246094 286.566406 259.074219 286.265625 C 259.640625 285.515625 260.882812 284.332031 261.308594 283.632812 C 263.25 282.183594 263.695312 281.355469 265.820312 279.308594 C 266.835938 278.792969 267.023438 278.972656 266.417969 279.933594 C 267.601562 279.367188 269.25 277.550781 270.59375 275.84375 C 270.175781 275.851562 268.78125 277.546875 268.019531 278.097656 C 267.59375 278.101562 267.234375 278.058594 267.554688 277.511719 C 268.527344 276.6875 269.769531 275.328125 269.996094 275.769531 C 270.894531 274.257812 272.105469 273.277344 273.359375 271.460938 C 274.3125 270.152344 274.425781 270.542969 274.988281 270.023438 C 275.886719 268.871094 276.765625 267.707031 277.625 266.523438 C 278.269531 266.082031 279.179688 264.976562 279.617188 264.992188 C 280.40625 263.78125 280.898438 262.847656 281.417969 261.863281 C 281.878906 260.941406 281.429688 261.019531 282.160156 259.777344 C 284.234375 256.996094 285.378906 254.460938 287.089844 252.625 C 289.109375 249.195312 290.207031 246.417969 290.40625 244.789062 C 290.601562 244.257812 290.957031 243.582031 291.128906 243.058594 C 291.195312 242.867188 291.289062 242.34375 291.21875 242.519531 C 291.554688 241.660156 291.839844 241.371094 292.054688 240.738281 C 292.367188 239.789062 292.207031 239.320312 293.003906 237.425781 C 292.808594 237.796875 292.609375 238.167969 292.429688 238.515625 C 291.632812 239.171875 291.71875 239.09375 291.667969 238.628906 C 291.652344 238.484375 292.496094 236.683594 291.679688 237.554688 C 292.464844 236.101562 292.386719 235.789062 292.878906 234.675781 C 292.054688 235.675781 291.152344 236.886719 290.15625 238.308594 C 289.382812 239.140625 290.390625 236.910156 289.550781 238.386719 C 289.167969 238.71875 288.695312 239.277344 288.308594 239.601562 C 287.378906 242.070312 289.867188 239.324219 290.421875 239.871094 C 290.066406 240.542969 290.429688 240.320312 290.554688 240.386719 C 290.308594 241.039062 289.882812 241.914062 289.050781 243.230469 C 288.214844 244.757812 288.84375 244.585938 287.566406 246.566406 C 286.691406 247.25 285.582031 249.335938 283.519531 252.074219 C 282.152344 253.890625 280.628906 255.734375 279.058594 257.875 C 278.664062 257.792969 277.824219 258.105469 278.25 257.304688 C 277.996094 256.839844 276.492188 258.003906 276.871094 257.230469 C 278.625 254.808594 278.550781 256.007812 280.183594 253.664062 C 281.820312 251.722656 280.445312 252.632812 281.144531 251.566406 C 280.6875 251.582031 279.105469 254.027344 278.3125 254.671875 C 277.117188 256.03125 277.847656 255.667969 277.546875 256.214844 C 276.542969 257.472656 276.023438 257.757812 275.144531 258.699219 C 274.871094 259.101562 274.46875 259.640625 274.59375 259.707031 C 274.894531 259.871094 275.507812 258.945312 275.203125 259.761719 C 275.136719 259.945312 274.773438 260.21875 274.929688 260.261719 C 275.078125 260.3125 274.769531 261.035156 274.816406 261.316406 C 274.1875 262.316406 274.242188 261.949219 273.035156 263.265625 C 271.886719 264.507812 272.871094 264.109375 272.433594 264.800781 C 271.082031 266.355469 271.082031 265.738281 270.117188 266.636719 C 268.367188 268.230469 268.28125 268.617188 267.558594 269.453125 C 265.617188 270.980469 265.082031 271.855469 263.289062 272.941406 C 261.847656 274.53125 260.113281 275.480469 258.265625 277.167969 C 258.113281 277.140625 257.507812 277.628906 257.058594 277.929688 C 255.863281 278.445312 255.078125 278.480469 253.730469 279.121094 C 252.207031 280.257812 250.882812 280.988281 249.894531 281.714844 C 248.859375 282.472656 249.585938 282.40625 248.085938 283.300781 L 247.660156 283.128906 C 246.441406 283.972656 246.617188 284.25 245.378906 285.074219 C 242.59375 286.789062 240.753906 287.535156 238.210938 288.804688 C 237.414062 288.902344 236.195312 289.320312 236.058594 288.894531 C 235.460938 289.050781 235.21875 289.226562 234.125 289.660156 C 233.464844 289.917969 232.636719 290.140625 231.574219 290.652344 C 231.105469 290.882812 231.101562 290.988281 230.484375 291.246094 C 229.792969 291.59375 229.402344 291.859375 229.660156 291.988281 C 229.332031 292.242188 228.738281 292.5625 228.070312 292.882812 C 225.015625 294.039062 225.714844 293.234375 224.804688 293.3125 C 223 293.953125 220.773438 294.761719 219.652344 294.90625 C 218.039062 295.410156 219.234375 295.539062 217.605469 296.03125 C 212.355469 297.53125 207.5625 298.351562 204.082031 298.484375 C 201.269531 299.320312 197.167969 299.386719 193.34375 299.566406 C 192.707031 299.605469 191.679688 299.847656 191.453125 299.828125 C 190.640625 299.738281 190.269531 299.859375 188.039062 299.871094 C 186.566406 299.871094 185.289062 299.910156 182.632812 299.824219 C 181.4375 299.777344 180.136719 299.707031 178.738281 299.605469 C 178.609375 299.601562 178.476562 299.597656 178.34375 299.59375 C 174.820312 299.503906 171.417969 299.15625 169.347656 298.519531 C 167.941406 298.285156 166.523438 298.027344 165.035156 297.765625 C 163.636719 297.519531 162.914062 297.417969 161.695312 297.070312 C 161.332031 296.96875 161.695312 296.964844 160.976562 296.8125 C 159.859375 296.566406 159.617188 296.671875 158.445312 296.425781 C 157.34375 296.191406 156.941406 296.003906 155.785156 295.703125 C 154.535156 295.375 152.667969 294.96875 151.925781 294.71875 C 150.445312 294.246094 149.371094 293.738281 147.941406 293.175781 C 147.765625 293.117188 147.585938 293.0625 147.410156 293.003906 C 147.765625 293.203125 148.109375 293.445312 148.425781 293.621094 L 151.253906 295.117188 C 151.859375 295.464844 154.394531 295.933594 155.078125 296.296875 C 155.136719 296.328125 155.046875 296.40625 155.117188 296.433594 C 155.324219 296.519531 156.074219 296.671875 156.222656 296.742188 C 156.261719 296.765625 156.210938 296.867188 156.261719 296.882812 C 157.296875 297.242188 158.613281 297.554688 159.632812 297.871094 C 159.832031 297.929688 160.621094 298.066406 160.75 298.132812 C 160.808594 298.15625 160.722656 298.242188 160.796875 298.269531 C 161.011719 298.335938 161.769531 298.441406 161.917969 298.511719 C 162.703125 298.871094 164.058594 299.023438 165.398438 299.441406 C 165.980469 299.628906 166.328125 299.679688 167.152344 299.863281 C 167.664062 299.964844 168.160156 300.109375 168.914062 300.25 C 169.21875 300.3125 169.605469 300.476562 169.542969 300.464844 C 169.996094 300.535156 170.8125 300.515625 170.621094 300.476562 C 171.496094 300.644531 172.140625 300.8125 173.035156 301 C 173.34375 301.066406 173.023438 301.117188 173.671875 301.1875 C 173.824219 301.203125 174.097656 301.214844 174.246094 301.238281 C 175.089844 301.394531 177.878906 301.828125 180.132812 301.851562 C 182.109375 302.332031 184.90625 302.546875 186.632812 302.976562 C 187.410156 303.53125 186.25 303.773438 186.300781 304.214844 C 185.84375 304.328125 185.058594 304.375 184.027344 304.371094 C 184.652344 305.144531 180.84375 305.078125 180.085938 305.546875 C 176.648438 305.402344 175.175781 305.636719 172.628906 305.546875 C 171.644531 305.5625 170.683594 305.5625 171.179688 306.011719 C 168.433594 305.929688 165.085938 305.574219 161.214844 304.792969 C 160.367188 304.066406 162.179688 304.414062 162.589844 304.1875 C 162.207031 303.804688 160.300781 303.710938 160.933594 304.105469 C 159.703125 303.554688 160.527344 303.613281 161.632812 303.722656 C 162.734375 303.835938 164.117188 303.976562 164.007812 303.703125 C 165.335938 304.214844 166.324219 304.070312 167.480469 304.15625 C 168.953125 304.089844 169.453125 303.6875 170.429688 303.4375 C 172.253906 303.542969 171.449219 303.972656 172.980469 304.09375 C 174.136719 304.097656 173.117188 303.25 172.433594 303.046875 C 170.523438 302.753906 169.535156 302.707031 168.664062 302.699219 C 167.796875 302.6875 167.046875 302.71875 165.632812 302.488281 C 165.238281 302.730469 163.453125 302.425781 164.300781 303.128906 C 162.75 302.933594 163.007812 302.640625 161.851562 302.402344 C 160.757812 302.140625 161.941406 302.839844 161.492188 302.832031 C 161.265625 302.832031 160.449219 302.886719 159.960938 303.007812 C 159.03125 302.835938 158.90625 302.648438 158.15625 302.464844 C 157.300781 302.472656 156.578125 302.535156 156.761719 303.007812 C 155.664062 302.902344 154.074219 302.550781 152.820312 302.320312 C 153.109375 302.902344 153.183594 303.371094 152.699219 303.566406 C 151.71875 303.285156 150.738281 302.988281 149.765625 302.679688 C 149.164062 302.722656 148.085938 302.261719 146.933594 301.992188 C 146.558594 301.902344 146.171875 301.941406 145.851562 301.871094 C 145.644531 301.828125 144.828125 301.453125 144.695312 301.445312 C 143.921875 301.402344 140.621094 300.160156 138.484375 299.328125 C 137.636719 299.007812 136.574219 298.710938 135.714844 298.335938 C 134.703125 297.90625 133.285156 297.152344 132.363281 296.691406 C 131.355469 296.183594 130.898438 296.097656 130.160156 295.535156 C 130.167969 294.878906 130.175781 294.746094 130.570312 294.632812 C 130.152344 294.03125 131.660156 294.949219 132.152344 295.058594 C 131.460938 293.804688 133.847656 294.921875 132.984375 293.542969 C 131.917969 292.867188 131.808594 293.167969 131.414062 292.984375 C 130.785156 292.703125 129.894531 292.085938 129.289062 291.804688 C 128.632812 291.496094 128.453125 291.566406 127.730469 291.1875 C 127.875 291.964844 127.117188 291.972656 126.796875 292.355469 C 127.003906 292.960938 128.398438 293.917969 127.980469 294.328125 C 126.925781 294.164062 123.566406 292.019531 121.085938 290.371094 C 120.765625 289.6875 122.050781 290.550781 121.070312 289.617188 C 119.597656 288.238281 117.949219 288.433594 116.484375 286.535156 C 115.71875 286.125 115.578125 286.269531 114.964844 286.007812 C 114.816406 285.941406 114.109375 285.296875 113.972656 285.242188 C 113.632812 285.101562 113.851562 285.507812 113.453125 285.300781 C 112.273438 284.296875 109.902344 282.609375 109.578125 281.957031 C 108.660156 281.21875 109.140625 282.222656 107.640625 280.746094 C 107.148438 279.734375 105.371094 277.949219 105.511719 277.261719 C 104.578125 276.265625 104.285156 275.652344 102.898438 274.316406 C 102.582031 273.839844 102.492188 273.507812 102.578125 273.28125 C 101.265625 271.695312 101.433594 272.125 100.484375 270.855469 C 98.777344 269.257812 98.664062 270.238281 96.867188 268.398438 C 97.046875 269.199219 96.054688 267.996094 96.234375 268.792969 C 95.839844 268.476562 95.273438 267.851562 94.585938 266.980469 C 94.453125 267.410156 93.410156 266.183594 93.148438 266.363281 C 91.472656 263.960938 90.089844 262.136719 88.75 260.320312 C 87.414062 258.5 86.132812 256.679688 84.8125 254.246094 C 84.796875 252.855469 86.613281 256.089844 86.457031 254.347656 C 86.238281 253.257812 85.265625 252.632812 84.53125 251.070312 C 84.164062 249.472656 85.875 251.335938 86.300781 250.933594 C 87.597656 252.535156 89.03125 254.265625 89.796875 254.347656 C 89.777344 253.460938 88.785156 252.832031 88.308594 251.441406 C 87.59375 250.25 87.46875 250.648438 87.125 250.386719 C 86.960938 250.257812 86.511719 249.671875 86.378906 249.574219 C 86.296875 249.515625 86.359375 249.980469 86.25 249.847656 C 85.699219 249.1875 84.449219 247.875 84.144531 248.324219 C 82.867188 245.433594 82.359375 245.070312 81.175781 242.957031 C 80.453125 242.886719 80.164062 244.394531 78.980469 242.621094 C 78.132812 240.492188 77.859375 240.5625 77.113281 238.628906 C 76.621094 237.894531 75.886719 236.015625 75.453125 235.417969 C 74.785156 233.445312 74.546875 232.257812 73.636719 229.804688 C 73.457031 229.320312 73.351562 229.320312 73.160156 228.691406 C 72.648438 227.054688 72.261719 224.664062 71.421875 222.457031 C 71.457031 221.265625 71.703125 221.121094 71.960938 221.019531 C 72.183594 220.933594 72.378906 221.625 72.660156 221.804688 C 73.0625 222.0625 73.34375 221.511719 73.699219 221.386719 C 74.449219 223.140625 75.417969 226.207031 76.203125 227.265625 C 77.03125 230.105469 77.800781 231.882812 78.578125 233.558594 L 79.097656 232.820312 C 78.574219 231.03125 78.0625 230.339844 77.695312 229.53125 C 77.242188 228.519531 76.878906 227.519531 76.480469 226.910156 C 76.292969 226.34375 76.183594 225.910156 76.097656 225.527344 C 75.695312 224.484375 75.300781 223.394531 74.859375 222.257812 C 74.523438 221.40625 74.113281 220.417969 73.753906 219.46875 C 73.695312 219.425781 73.636719 219.355469 73.570312 219.199219 C 73.496094 218.898438 73.429688 218.621094 73.363281 218.351562 C 73.164062 217.738281 73.027344 217.191406 72.976562 216.742188 C 72.917969 216.476562 72.859375 216.214844 72.804688 215.960938 C 72.546875 215.292969 72.339844 214.910156 72.109375 214.328125 C 72.039062 214.808594 71.886719 214.554688 71.945312 215.621094 C 71.621094 215.417969 71.28125 214.058594 70.96875 212.90625 C 70.777344 214.875 70.164062 213.414062 69.6875 212.714844 C 69.277344 210.511719 69.824219 210.765625 69.464844 208.558594 C 69.050781 205.953125 68.59375 204.75 68.324219 201.875 C 68.433594 201.757812 68.363281 201.003906 68.363281 200.476562 C 68.449219 200.210938 68.550781 199.980469 68.660156 199.769531 C 68.648438 199.695312 68.632812 199.621094 68.621094 199.550781 C 68.644531 199.019531 68.5 198.132812 68.445312 197.386719 C 68.421875 197.019531 68.457031 196.183594 68.425781 195.875 C 68.355469 195.09375 68.082031 194.082031 68.007812 193.28125 C 67.980469 192.980469 68.058594 191.953125 68.039062 191.769531 C 67.929688 190.65625 67.652344 189.054688 67.566406 187.871094 C 67.816406 187.839844 67.457031 185.871094 67.554688 185.054688 C 67.640625 184.3125 67.535156 183.65625 67.488281 182.347656 C 67.449219 180.984375 67.613281 180.792969 67.464844 178.988281 C 67.390625 178.027344 67.316406 178.152344 67.421875 177.023438 C 67.527344 176 67.390625 175.179688 67.550781 173.007812 C 67.570312 172.78125 67.671875 172.914062 67.695312 172.269531 C 67.722656 171.394531 67.972656 171.085938 68.015625 170.140625 C 68.023438 169.96875 68.027344 169.648438 68.046875 169.480469 L 68.507812 166.070312 C 68.785156 163.972656 69.253906 161.480469 69.777344 159.863281 C 69.921875 158.449219 70.195312 157.328125 70.484375 155.9375 C 70.65625 155.125 71.003906 153.355469 71.199219 152.679688 C 71.304688 152.273438 71.546875 151.894531 71.730469 151.273438 C 71.902344 150.683594 71.964844 150.027344 72.140625 149.953125 C 72.488281 148.398438 72.84375 146.59375 73.34375 145.480469 C 73.578125 144.929688 73.714844 144.40625 73.988281 143.550781 C 74.144531 143.09375 74.277344 142.972656 74.308594 142.882812 C 74.851562 141.261719 75.007812 140.386719 75.585938 139.117188 C 75.6875 138.882812 76.226562 137.421875 76.339844 137.234375 C 76.546875 136.875 77.566406 134.660156 78.183594 132.902344 C 78.464844 132.640625 78.828125 131.78125 79.101562 131.589844 C 80.375 128.332031 81.265625 127.464844 82.679688 124.441406 C 83.390625 123.847656 84.523438 121.648438 85.328125 120.871094 C 88.453125 115.042969 92.117188 110.003906 93.996094 109.375 C 93.632812 109.894531 93.269531 110.414062 92.914062 110.9375 C 94.085938 110.207031 92.285156 112.953125 93.769531 111.4375 C 94.703125 109.972656 93.425781 110.859375 94.816406 108.859375 C 95.613281 107.683594 96.257812 106.941406 96.617188 106.824219 C 97.730469 105.25 97 106.597656 97.296875 106.332031 C 97.570312 106.089844 98.515625 104.953125 99.148438 104.363281 C 99.933594 103.625 100.222656 103.519531 100.792969 102.933594 C 101.046875 102.679688 101.347656 102.246094 101.601562 101.976562 C 101.734375 101.828125 102.328125 101.3125 102.160156 101.511719 C 102.378906 101.246094 102.757812 100.449219 102.679688 100.535156 C 104.035156 99.097656 104.605469 99.269531 105.660156 97.804688 C 106.175781 97.492188 105.523438 98.195312 104.800781 98.914062 C 104.085938 99.632812 103.308594 100.378906 103.546875 100.113281 C 103.050781 100.65625 101.582031 102.851562 100.839844 103.457031 C 100.789062 103.496094 100.75 103.386719 100.691406 103.441406 C 100.523438 103.617188 100.035156 104.296875 99.902344 104.414062 C 99.109375 105.0625 98.175781 106.714844 97.441406 107.367188 C 96.863281 107.878906 96.59375 108.382812 95.8125 109.378906 C 95.257812 110.074219 94.132812 111.539062 92.828125 113.511719 C 92.539062 113.949219 92.339844 114.027344 92 114.570312 C 92.039062 114.507812 92.015625 114.765625 91.816406 115.09375 C 91.597656 115.441406 91.089844 116.039062 90.679688 116.703125 C 90.066406 117.6875 89.144531 118.84375 88.484375 119.976562 C 87.652344 121.417969 87.46875 122.351562 86.285156 124.382812 C 86.027344 124.84375 85.625 125.332031 85.3125 126.089844 C 85.261719 126.203125 85.003906 126.972656 85.1875 126.628906 C 84.484375 127.949219 83.96875 128.582031 83.4375 129.554688 C 82.921875 131.667969 81.484375 134.089844 80.5 136.570312 C 79.558594 138.933594 78.898438 141.382812 78.007812 144.304688 C 77.71875 144.480469 77.417969 144.867188 77.105469 145.714844 C 76.6875 145.394531 76.53125 145.445312 75.835938 146.191406 C 75.152344 148.597656 75.324219 149.09375 74.671875 151.675781 C 74.683594 152.964844 75.097656 153.269531 75.285156 154.152344 C 75.972656 152.207031 76.628906 150.59375 77.082031 149.777344 C 77.476562 149.050781 77.992188 148.671875 78.269531 147.851562 C 79.675781 146.640625 78.679688 150.03125 80.246094 147.929688 C 81.230469 144.851562 82.640625 141.519531 81.855469 141.214844 C 82.988281 138.996094 84.121094 137.078125 85.21875 135.425781 L 85.996094 135.339844 C 86.410156 134.542969 86.816406 133.746094 87.246094 132.957031 C 86.855469 133.230469 86.46875 133.464844 86.378906 133.195312 C 86.859375 131.925781 86.984375 131.722656 88.089844 130.417969 C 88.25 129.875 87.875 129.917969 88.035156 129.371094 C 88.8125 128.113281 89.660156 127.472656 90.222656 126.097656 C 90.433594 125.609375 90.324219 125.878906 91.742188 123.960938 C 93.035156 122.230469 94.546875 120.03125 96.316406 118.253906 C 96.542969 118.351562 96.691406 118.394531 96.78125 118.472656 C 99.769531 114.632812 103 111.007812 106.445312 107.625 C 106.820312 107.148438 107.21875 106.652344 107.449219 106.285156 C 108.832031 105.144531 109.695312 104.320312 111.445312 102.890625 C 111.460938 102.679688 111.472656 102.464844 111.339844 102.359375 C 111.582031 101.960938 112.101562 101.367188 112.832031 100.640625 C 111.84375 100.539062 114.578125 97.886719 114.78125 97.019531 C 117.308594 94.6875 118.1875 93.480469 120.046875 91.742188 C 120.730469 91.03125 121.410156 90.347656 120.738281 90.386719 C 122.734375 88.5 125.351562 86.378906 128.640625 84.191406 C 129.753906 84.101562 128.226562 85.136719 128.097656 85.589844 C 128.636719 85.585938 130.050781 84.304688 129.328125 84.476562 C 130.585938 83.992188 129.960938 84.535156 129.105469 85.238281 C 128.246094 85.941406 127.167969 86.820312 127.4375 86.9375 C 126.140625 87.515625 125.546875 88.320312 124.667969 89.074219 C 123.675781 90.164062 123.605469 90.804688 123.097656 91.667969 C 121.730469 92.886719 121.996094 92.015625 120.828125 93.015625 C 120.007812 93.832031 121.332031 93.707031 121.957031 93.367188 C 123.511719 92.21875 124.242188 91.550781 124.863281 90.945312 C 125.484375 90.335938 125.992188 89.785156 127.152344 88.949219 C 127.261719 88.496094 128.734375 87.441406 127.640625 87.550781 C 128.875 86.589844 128.898438 86.980469 129.878906 86.324219 C 130.84375 85.738281 129.511719 86.082031 129.832031 85.769531 C 129.992188 85.609375 130.53125 84.992188 130.789062 84.558594 C 131.566406 84.023438 131.789062 84.066406 132.449219 83.664062 C 133.046875 83.054688 133.511719 82.496094 133.046875 82.289062 C 133.898438 81.59375 135.273438 80.714844 136.316406 79.988281 C 135.699219 79.785156 135.316406 79.503906 135.519531 79.019531 C 136.414062 78.523438 137.3125 78.042969 138.222656 77.574219 C 138.613281 77.113281 139.699219 76.679688 140.703125 76.050781 C 141.035156 75.847656 141.28125 75.546875 141.554688 75.371094 C 141.734375 75.253906 142.574219 74.9375 142.671875 74.851562 C 143.25 74.335938 146.460938 72.875 148.558594 71.949219 C 149.382812 71.570312 150.34375 71.027344 151.214844 70.683594 C 152.234375 70.277344 153.769531 69.796875 154.746094 69.472656 C 155.816406 69.117188 156.203125 68.855469 157.121094 68.730469 C 157.582031 69.195312 157.667969 69.300781 157.472656 69.65625 C 158.191406 69.785156 156.476562 70.207031 156.054688 70.476562 C 157.425781 70.875 154.953125 71.773438 156.535156 72.136719 C 157.769531 71.863281 157.632812 71.570312 158.042969 71.417969 C 158.683594 71.171875 159.753906 70.976562 160.378906 70.746094 C 161.058594 70.5 161.136719 70.324219 161.914062 70.078125 C 161.261719 69.628906 161.792969 69.089844 161.746094 68.59375 C 161.171875 68.3125 159.511719 68.625 159.515625 68.039062 C 160.375 67.410156 164.269531 66.542969 167.183594 65.953125 C 167.894531 66.207031 166.375 66.503906 167.730469 66.46875 C 169.746094 66.402344 170.773438 65.09375 173.148438 65.398438 C 173.984375 65.148438 173.976562 64.945312 174.59375 64.695312 C 174.75 64.636719 175.703125 64.589844 175.839844 64.535156 C 176.179688 64.390625 175.734375 64.257812 176.160156 64.125 C 177.707031 63.996094 180.578125 63.507812 181.265625 63.742188 C 182.4375 63.613281 181.386719 63.242188 183.496094 63.222656 C 184.554688 63.589844 187.078125 63.589844 187.464844 64.175781 C 188.828125 64.21875 189.46875 64.441406 191.390625 64.398438 C 191.953125 64.515625 192.253906 64.691406 192.351562 64.90625 C 194.402344 65.097656 193.976562 64.914062 195.550781 65.140625 C 197.886719 65.058594 197.273438 64.28125 199.84375 64.3125 C 199.148438 63.875 200.699219 64.019531 200.007812 63.582031 C 200.515625 63.527344 201.355469 63.570312 202.457031 63.695312 C 202.246094 63.300781 203.851562 63.421875 203.914062 63.113281 C 206.792969 63.625 209.0625 63.933594 211.296875 64.265625 C 213.527344 64.601562 215.71875 64.980469 218.378906 65.761719 C 219.371094 66.734375 215.800781 65.738281 217.140625 66.855469 C 218.070312 67.472656 219.199219 67.222656 220.824219 67.808594 C 222.21875 68.671875 219.6875 68.570312 219.671875 69.15625 C 217.625 68.945312 215.382812 68.738281 214.785156 69.222656 C 215.425781 69.835938 216.574219 69.574219 217.894531 70.222656 C 219.246094 70.554688 219.050781 70.1875 219.480469 70.128906 C 219.679688 70.101562 220.421875 70.195312 220.578125 70.171875 C 220.683594 70.152344 220.304688 69.871094 220.480469 69.886719 C 221.335938 69.964844 223.144531 70.007812 223.042969 69.472656 C 225.996094 70.609375 226.605469 70.503906 228.941406 71.15625 C 229.5 70.699219 228.632812 69.429688 230.726562 69.839844 C 232.839844 70.742188 232.976562 70.5 234.871094 71.335938 C 235.742188 71.503906 237.589844 72.3125 238.316406 72.429688 C 240.1875 73.347656 241.195312 74.015625 243.578125 75.101562 C 244.046875 75.320312 244.125 75.242188 244.703125 75.550781 C 246.222656 76.34375 248.1875 77.761719 250.34375 78.722656 C 251.164062 79.589844 251.09375 79.867188 250.980469 80.121094 C 250.886719 80.339844 250.257812 79.988281 249.933594 80.058594 C 249.464844 80.164062 249.660156 80.75 249.496094 81.09375 C 247.722656 80.386719 244.871094 78.90625 243.5625 78.714844 C 240.96875 77.296875 239.164062 76.585938 237.429688 75.953125 L 237.585938 76.84375 C 239.222656 77.734375 240.070312 77.859375 240.902344 78.171875 C 241.941406 78.566406 242.910156 79.011719 243.617188 79.160156 C 244.988281 79.84375 245.371094 80.265625 246.375 80.832031 C 247.671875 81.570312 248.53125 81.636719 250.128906 82.929688 C 251.003906 83.285156 250.261719 82.1875 251.136719 82.542969 C 253.652344 84.058594 255.148438 84.953125 257.421875 86.808594 C 258.171875 86.957031 256.109375 85.488281 255.875 85.253906 C 255.152344 84.492188 255.777344 84.773438 254.816406 83.921875 C 255.1875 83.835938 256.394531 84.550781 257.429688 85.140625 C 256.167969 83.621094 257.636719 84.21875 258.46875 84.371094 C 260.320312 85.640625 259.75 85.84375 261.570312 87.148438 C 263.707031 88.699219 264.882812 89.222656 267.109375 91.058594 C 267.113281 91.21875 267.699219 91.703125 268.070312 92.070312 C 268.441406 92.808594 268.617188 93.457031 268.410156 93.871094 C 266.109375 92.105469 265.285156 92.277344 264.859375 92.867188 C 265.042969 93.375 267.203125 94.988281 268.144531 95.976562 C 269.453125 97.054688 269.757812 96.824219 270.140625 96.675781 C 270.703125 97.160156 271.425781 98.003906 271.960938 98.46875 C 272.738281 99.140625 272.917969 98.75 274.300781 100.167969 C 274.238281 99.730469 273.171875 98.628906 272.589844 97.875 C 273.238281 98.117188 272.945312 97.027344 273.71875 97.4375 C 274.839844 98.414062 275.671875 99.601562 276.382812 100.410156 C 276.976562 101.066406 277.789062 101.703125 278.132812 102.339844 C 277.917969 103.179688 277.742188 103.988281 279.796875 106.578125 C 280.835938 107.839844 280.738281 107.082031 280.847656 106.699219 C 281.175781 107.085938 281.308594 107.039062 281.695312 107.558594 C 281.828125 107.734375 282.28125 108.46875 282.058594 108.21875 C 283.292969 109.621094 283.097656 108.773438 284.589844 110.734375 C 285.089844 111.554688 284.472656 111.371094 285.164062 112.371094 C 286.332031 114.207031 285.851562 112.640625 286.484375 113.382812 C 287.101562 114.195312 287.070312 114.464844 287.535156 115.140625 C 288.082031 115.953125 288.417969 116.042969 289.070312 117.039062 C 289.484375 117.664062 290.085938 118.589844 290.453125 119.257812 C 290.722656 119.753906 290.734375 119.933594 291.070312 120.519531 C 292.296875 122.667969 293.871094 125.4375 295.164062 127.996094 C 296.460938 130.550781 297.484375 132.882812 297.820312 134.039062 C 298.058594 134.835938 297.960938 135.464844 298.351562 136.242188 C 298.214844 138.089844 296.515625 134.992188 296.894531 137.585938 C 298.378906 140.457031 299.75 143.808594 300.515625 143.46875 C 301.289062 145.839844 301.847656 147.992188 302.242188 149.9375 L 301.664062 150.652344 C 301.652344 151.035156 301.648438 151.410156 301.804688 152.136719 C 301.953125 152.84375 301.726562 152.792969 301.921875 153.625 C 302.648438 155.1875 302.367188 152.015625 303 152.332031 C 303.558594 153.570312 303.617188 153.800781 303.757812 155.503906 C 304.035156 156.003906 304.265625 155.707031 304.542969 156.207031 C 304.878906 157.644531 304.738281 158.703125 305.3125 160.066406 C 305.515625 160.5625 305.402344 160.292969 305.757812 162.652344 C 306.070312 164.789062 306.5625 167.410156 306.570312 169.917969 C 306.003906 170.152344 306 170.285156 305.414062 169.539062 C 305.125 169.226562 305.277344 171.230469 305.25 171.757812 C 305.308594 172 305.542969 172.886719 305.542969 173.011719 C 305.546875 173.085938 305.429688 173.039062 305.445312 173.128906 C 305.480469 173.382812 305.730469 174.234375 305.730469 174.425781 C 305.742188 175.152344 305.882812 174.992188 306.136719 176.367188 C 306.121094 176.304688 306.082031 176.707031 306.15625 177.132812 C 306.398438 178.484375 306.519531 179.390625 306.835938 181.804688 C 307.082031 183.710938 307.183594 185.765625 307.359375 187.933594 C 307.480469 189.484375 307.519531 189.875 307.523438 191.320312 C 307.546875 192.367188 307.726562 195.90625 307.566406 197.453125 Z M 246.167969 266.457031 C 243.746094 267.449219 243.359375 268.398438 243.832031 266.644531 C 240.90625 268.859375 241.101562 269.417969 238.050781 271.480469 C 238.730469 271.554688 240.4375 270.746094 242.125 269.664062 C 243.8125 268.585938 245.472656 267.246094 246.167969 266.457031 Z M 260.171875 253.210938 C 256.757812 257.5 252.546875 261.953125 247.972656 265.800781 C 243.40625 269.65625 238.492188 272.890625 234.03125 275.078125 C 234.636719 273.757812 239.042969 270.292969 243.425781 266.386719 C 245.632812 264.445312 247.847656 262.410156 249.761719 260.648438 C 251.667969 258.886719 253.277344 257.40625 254.335938 256.644531 C 255.527344 255.773438 254.828125 258.195312 256.890625 256.164062 C 254.019531 259.460938 251.929688 260.65625 250.015625 261.582031 C 248.28125 263.3125 250.105469 262.78125 248.328125 264.5 C 249.667969 264.078125 252.050781 261.859375 254.3125 259.402344 C 256.597656 256.957031 258.75 254.277344 260.171875 253.210938 Z M 232.121094 276.410156 C 232.875 276.242188 233.730469 275.976562 235.367188 274.757812 C 235.589844 275.59375 233.394531 276.128906 230.640625 277.992188 C 230.328125 277.320312 228.269531 278.535156 229.378906 277.382812 C 230.707031 276.648438 231.367188 276.578125 232.121094 276.410156 " fill-opacity="1" fill-rule="evenodd"/></g><path fill="#f6f4f1" d="M 156.261719 105.066406 C 155.753906 104.886719 155.0625 104.65625 154.21875 104.40625 C 151.195312 103.289062 148.132812 102.738281 145.199219 102.550781 L 145.199219 89.550781 C 147.339844 88.9375 148.796875 87.703125 148.796875 86.261719 C 148.796875 84.226562 145.847656 82.574219 142.195312 82.574219 C 138.550781 82.574219 135.59375 84.226562 135.59375 86.261719 C 135.59375 87.695312 137.058594 88.9375 139.191406 89.550781 L 139.191406 102.570312 C 136.453125 102.738281 133.601562 103.226562 130.785156 104.203125 C 129.640625 104.523438 128.722656 104.835938 128.09375 105.058594 C 127.347656 104.40625 126.351562 104.007812 125.257812 104.007812 C 122.9375 104.007812 121.0625 105.777344 121.0625 107.960938 C 121.0625 110.148438 122.9375 111.917969 125.257812 111.917969 C 127.105469 111.917969 128.671875 110.789062 129.230469 109.222656 C 131.90625 108.53125 137.023438 107.386719 142.371094 107.089844 C 147.589844 107.410156 152.53125 108.523438 155.140625 109.199219 C 155.703125 110.761719 157.265625 111.890625 159.113281 111.890625 C 161.433594 111.890625 163.308594 110.121094 163.308594 107.9375 C 163.308594 105.75 161.433594 103.980469 159.113281 103.980469 C 158.003906 103.980469 156.988281 104.390625 156.242188 105.058594 Z M 156.261719 105.066406 " fill-opacity="1" fill-rule="evenodd"/><g clip-path="url(#77fd6d490b)"><path fill="#f6f4f1" d="M 136.882812 110.175781 L 138.792969 194.40625 C 138.792969 201.566406 141.367188 203.15625 141.367188 203.15625 C 145.234375 197.984375 144.371094 194.804688 144.371094 194.804688 L 147.4375 110.148438 C 145.945312 109.917969 144.453125 109.75 142.96875 109.632812 L 142.140625 186.691406 L 141.332031 111.109375 L 140.71875 109.703125 C 139.441406 109.820312 138.160156 109.980469 136.871094 110.175781 Z M 136.882812 110.175781 " fill-opacity="1" fill-rule="evenodd"/></g><path fill="#f6f4f1" d="M 204.273438 106.371094 L 176.078125 106.371094 C 175.5 105.617188 174.601562 105.109375 173.570312 105.109375 C 171.839844 105.109375 170.425781 106.523438 170.425781 108.253906 C 170.425781 109.988281 171.828125 111.402344 173.570312 111.402344 C 174.59375 111.402344 175.5 110.902344 176.078125 110.140625 L 180.875 110.140625 C 182.429688 110.886719 188.3125 113.863281 190.019531 116.972656 C 190.019531 116.972656 195.511719 112.058594 199.242188 110.140625 L 204.8125 110.140625 C 205.382812 110.691406 206.15625 111.035156 207.007812 111.035156 C 208.75 111.035156 210.15625 109.625 210.15625 107.890625 C 210.15625 106.160156 208.742188 104.746094 207.007812 104.746094 C 205.828125 104.746094 204.8125 105.402344 204.273438 106.363281 Z M 180.875 110.148438 L 180.867188 110.140625 L 180.859375 110.128906 L 180.847656 110.121094 L 180.832031 110.105469 L 180.824219 110.09375 L 180.8125 110.085938 L 180.769531 110.042969 L 180.761719 110.042969 L 180.75 110.03125 L 180.503906 110.03125 L 180.882812 110.210938 Z M 190.472656 109.792969 L 200.453125 109.617188 Z M 190.472656 109.792969 " fill-opacity="1" fill-rule="evenodd"/><g clip-path="url(#bfda265d63)"><path fill="#f6f4f1" d="M 190.285156 84.503906 C 191.441406 84.503906 192.375 85.4375 192.375 86.59375 C 192.375 87.746094 191.441406 88.679688 190.285156 88.679688 C 189.128906 88.679688 188.199219 87.746094 188.199219 86.59375 C 188.199219 85.4375 189.128906 84.503906 190.285156 84.503906 Z M 186.980469 91.984375 L 186.800781 109.542969 C 186.800781 109.542969 189.929688 105.546875 193.761719 109.722656 L 193.761719 92.164062 C 193.761719 92.164062 189.9375 94.945312 186.980469 91.984375 Z M 190.285156 91.292969 C 192.878906 91.292969 194.976562 89.195312 194.976562 86.601562 C 194.976562 84.007812 192.871094 81.910156 190.285156 81.910156 C 187.691406 81.910156 185.59375 84.007812 185.59375 86.601562 C 185.59375 89.195312 187.691406 91.292969 190.285156 91.292969 Z M 190.285156 91.292969 " fill-opacity="1" fill-rule="evenodd"/></g><g clip-path="url(#017af55a42)"><path fill="#f6f4f1" d="M 185.433594 177.210938 C 184.597656 191.605469 189.816406 203.707031 189.816406 203.707031 C 193.992188 198.28125 195.246094 177.414062 195.246094 177.414062 L 193.46875 123.789062 L 195.972656 119.933594 L 196.417969 114.824219 L 196.152344 115.019531 L 196.152344 115.828125 L 195.714844 115.347656 C 194.3125 116.421875 192.917969 117.578125 191.609375 118.742188 L 190.820312 119.453125 L 190.027344 187.546875 L 189.253906 120.519531 L 187.929688 118.121094 C 187.453125 117.25 186.421875 116.316406 185.210938 115.4375 L 184.359375 116.519531 L 184.375 114.859375 C 184.269531 114.785156 184.164062 114.714844 184.046875 114.644531 L 184.5 120.660156 L 186.898438 124 L 185.441406 177.210938 Z M 185.433594 177.210938 " fill-opacity="1" fill-rule="evenodd"/></g><path fill="#f6f4f1" d="M 217.066406 111.082031 L 218.257812 111.578125 C 222.933594 112.8125 226.160156 112.910156 231.570312 115.828125 C 233.203125 116.707031 234.429688 117.800781 235.632812 118.402344 C 237.984375 116.511719 240.277344 115.152344 243.832031 113.925781 L 251.339844 111.855469 C 252.382812 111.660156 253.128906 111.640625 253.917969 111.035156 C 245.636719 107.960938 241.414062 109.5625 238.484375 110.699219 L 238.492188 91.941406 C 239.417969 90.359375 240.25 86.441406 240.617188 84.546875 C 237.027344 81.792969 234.15625 81.382812 230.378906 84.566406 L 232.261719 92.011719 L 232.582031 92.011719 L 232.503906 110.683594 C 230.558594 110.105469 228.15625 109.417969 226.613281 109.3125 C 222.472656 109.046875 220.265625 109.765625 217.058594 111.082031 Z M 217.066406 111.082031 " fill-opacity="1" fill-rule="evenodd"/><g clip-path="url(#5979dccb3a)"><path fill="#f6f4f1" d="M 227.75 139.4375 C 227.5 142.234375 230.148438 186.808594 230.351562 187.757812 C 231.667969 193.90625 233.425781 198.464844 235.335938 203.992188 C 235.550781 203.789062 235.542969 203.832031 235.753906 203.488281 L 236.476562 201.761719 C 236.777344 200.964844 237.089844 200.207031 237.363281 199.40625 C 238.554688 195.988281 243.59375 144.964844 243.246094 139.488281 C 242.4375 139.855469 242.117188 140.34375 240.785156 140.210938 C 238.058594 138.351562 239.378906 129.34375 239.691406 125.714844 C 239.933594 122.960938 240.25 120.171875 240.542969 117.390625 C 239.273438 118.074219 238.066406 118.875 236.832031 119.871094 L 236.234375 120.347656 C 236.253906 121.433594 236.324219 122.714844 236.304688 124.402344 L 235.53125 179.359375 C 235.070312 175.683594 234.785156 132.675781 234.699219 125.203125 C 234.679688 124.039062 234.777344 121.976562 234.734375 120.074219 C 233.3125 119.355469 232.085938 118.261719 230.664062 117.496094 C 230.636719 117.480469 230.609375 117.46875 230.582031 117.453125 C 231.4375 125.121094 232.546875 136.148438 231.25 139.046875 C 230.246094 141.285156 228.949219 140.015625 227.738281 139.4375 Z M 227.75 139.4375 " fill-opacity="1" fill-rule="evenodd"/></g><g fill="#ffffff" fill-opacity="1"><g transform="translate(101.457149, 251.36023)"><g><path d="M 18.890625 -29.90625 C 18.109375 -30.957031 16.4375 -31.484375 13.875 -31.484375 C 11.320312 -31.484375 9.5625 -30.628906 8.59375 -28.921875 C 8.257812 -28.328125 8.09375 -27.601562 8.09375 -26.75 C 8.09375 -25.175781 8.796875 -23.738281 10.203125 -22.4375 C 11.140625 -21.570312 12.425781 -20.679688 14.0625 -19.765625 C 15.707031 -18.847656 17.09375 -18.03125 18.21875 -17.3125 C 22.457031 -14.613281 24.578125 -11.660156 24.578125 -8.453125 C 24.578125 -5.609375 23.53125 -3.410156 21.4375 -1.859375 C 19.34375 -0.316406 16.632812 0.453125 13.3125 0.453125 C 10 0.453125 7.34375 -0.203125 5.34375 -1.515625 C 3.34375 -2.828125 2.34375 -4.332031 2.34375 -6.03125 C 2.34375 -7.738281 3.023438 -8.890625 4.390625 -9.484375 C 4.804688 -9.679688 5.257812 -9.78125 5.75 -9.78125 C 6.695312 -9.78125 7.472656 -9.460938 8.078125 -8.828125 C 8.691406 -8.203125 9 -7.410156 9 -6.453125 C 9 -5.492188 8.5625 -4.675781 7.6875 -4 C 8.851562 -2.832031 10.789062 -2.25 13.5 -2.25 C 16.207031 -2.25 18.0625 -3.160156 19.0625 -4.984375 C 19.425781 -5.617188 19.609375 -6.351562 19.609375 -7.1875 C 19.609375 -8.644531 18.859375 -9.992188 17.359375 -11.234375 C 16.578125 -11.878906 15.257812 -12.710938 13.40625 -13.734375 C 11.5625 -14.765625 10.101562 -15.628906 9.03125 -16.328125 C 5.125 -18.835938 3.171875 -21.804688 3.171875 -25.234375 C 3.171875 -27.898438 4.175781 -30.054688 6.1875 -31.703125 C 8.207031 -33.347656 10.703125 -34.171875 13.671875 -34.171875 C 16.648438 -34.171875 19.09375 -33.535156 21 -32.265625 C 22.914062 -30.992188 23.875 -29.441406 23.875 -27.609375 C 23.875 -26.617188 23.570312 -25.789062 22.96875 -25.125 C 22.363281 -24.457031 21.59375 -24.125 20.65625 -24.125 C 19.238281 -24.125 18.25 -24.742188 17.6875 -25.984375 C 17.53125 -26.359375 17.453125 -26.757812 17.453125 -27.1875 C 17.453125 -28.34375 17.929688 -29.25 18.890625 -29.90625 Z M 18.890625 -29.90625 "/></g></g></g><g fill="#ffffff" fill-opacity="1"><g transform="translate(127.224931, 251.36023)"><g><path d="M 2.75 -28.796875 C 2.394531 -29.742188 1.984375 -30.390625 1.515625 -30.734375 C 1.046875 -31.078125 0.203125 -31.25 -1.015625 -31.25 L -1.015625 -33.71875 L 12.140625 -33.71875 L 12.140625 -31.25 C 10.160156 -31.25 9 -31.113281 8.65625 -30.84375 C 8.3125 -30.570312 8.144531 -30.28125 8.15625 -29.96875 C 8.175781 -29.65625 8.257812 -29.265625 8.40625 -28.796875 L 14.75 -8 L 22.890625 -33.71875 L 25.828125 -33.71875 L 34.125 -8.09375 L 40.3125 -28.796875 C 40.382812 -29.066406 40.421875 -29.382812 40.421875 -29.75 C 40.421875 -30.125 40.144531 -30.46875 39.59375 -30.78125 C 39.050781 -31.09375 37.910156 -31.25 36.171875 -31.25 L 36.171875 -33.71875 L 47.796875 -33.71875 L 47.796875 -31.25 C 46.671875 -31.25 45.804688 -31.066406 45.203125 -30.703125 C 44.609375 -30.335938 44.171875 -29.703125 43.890625 -28.796875 L 34.671875 0 L 31.75 0 L 23.421875 -24.625 L 15.421875 0 L 12.796875 0 Z M 2.75 -28.796875 "/></g></g></g><g fill="#ffffff" fill-opacity="1"><g transform="translate(173.093618, 251.36023)"><g><path d="M 1.75 -16.859375 C 1.75 -19.710938 2.179688 -22.242188 3.046875 -24.453125 C 3.921875 -26.660156 5.09375 -28.484375 6.5625 -29.921875 C 9.457031 -32.753906 13.148438 -34.171875 17.640625 -34.171875 C 22.140625 -34.171875 25.835938 -32.78125 28.734375 -30 C 31.941406 -26.925781 33.546875 -22.582031 33.546875 -16.96875 C 33.546875 -11.363281 32.070312 -7.054688 29.125 -4.046875 C 26.175781 -1.046875 22.351562 0.453125 17.65625 0.453125 C 12.957031 0.453125 9.128906 -1.066406 6.171875 -4.109375 C 3.222656 -7.148438 1.75 -11.398438 1.75 -16.859375 Z M 17.71875 -2.46875 C 20.34375 -2.46875 22.546875 -3.441406 24.328125 -5.390625 C 26.578125 -7.847656 27.703125 -11.585938 27.703125 -16.609375 C 27.703125 -21.628906 26.738281 -25.320312 24.8125 -27.6875 C 22.894531 -30.0625 20.484375 -31.25 17.578125 -31.25 C 14.691406 -31.25 12.304688 -30.066406 10.421875 -27.703125 C 8.535156 -25.347656 7.59375 -21.8125 7.59375 -17.09375 C 7.59375 -10.300781 9.453125 -5.828125 13.171875 -3.671875 C 14.535156 -2.867188 16.050781 -2.46875 17.71875 -2.46875 Z M 17.71875 -2.46875 "/></g></g></g><g fill="#ffffff" fill-opacity="1"><g transform="translate(207.472862, 251.36023)"><g><path d="M 28.921875 -2.78125 C 30.085938 -2.78125 30.671875 -4.128906 30.671875 -6.828125 L 32.828125 -6.828125 C 32.992188 -6.296875 33.078125 -5.828125 33.078125 -5.421875 C 33.078125 -5.015625 33.066406 -4.570312 33.046875 -4.09375 C 33.035156 -3.625 32.859375 -3.007812 32.515625 -2.25 C 31.691406 -0.445312 30.144531 0.453125 27.875 0.453125 C 25.613281 0.453125 24.019531 -0.113281 23.09375 -1.25 C 22.175781 -2.394531 21.519531 -3.554688 21.125 -4.734375 C 20.738281 -5.910156 20.425781 -6.941406 20.1875 -7.828125 C 19.5 -10.234375 18.945312 -11.804688 18.53125 -12.546875 C 17.757812 -13.953125 16.71875 -14.65625 15.40625 -14.65625 L 10.453125 -14.65625 L 10.453125 -6.046875 C 10.453125 -5.285156 10.488281 -4.671875 10.5625 -4.203125 C 10.644531 -3.734375 10.910156 -3.328125 11.359375 -2.984375 C 11.816406 -2.640625 13.21875 -2.46875 15.5625 -2.46875 L 15.5625 0 L 1.640625 0 L 1.640625 -2.46875 C 3.210938 -2.46875 4.191406 -2.609375 4.578125 -2.890625 C 4.972656 -3.171875 5.207031 -3.46875 5.28125 -3.78125 C 5.351562 -4.09375 5.390625 -4.472656 5.390625 -4.921875 L 5.390625 -28.796875 C 5.390625 -29.773438 5.226562 -30.382812 4.90625 -30.625 C 4.300781 -31.039062 3.207031 -31.25 1.625 -31.25 L 1.625 -33.71875 L 15.421875 -33.71875 C 22.796875 -33.71875 26.894531 -31.441406 27.71875 -26.890625 C 27.851562 -26.140625 27.921875 -25.265625 27.921875 -24.265625 C 27.921875 -22.097656 27.242188 -20.253906 25.890625 -18.734375 C 24.535156 -17.210938 22.6875 -16.117188 20.34375 -15.453125 C 22.375 -14.835938 23.878906 -13.21875 24.859375 -10.59375 C 25.191406 -9.738281 25.550781 -8.632812 25.9375 -7.28125 C 26.332031 -5.9375 26.648438 -5.007812 26.890625 -4.5 C 27.410156 -3.351562 28.085938 -2.78125 28.921875 -2.78125 Z M 15.46875 -16.90625 C 18.03125 -16.90625 19.84375 -17.523438 20.90625 -18.765625 C 21.96875 -20.003906 22.5 -21.785156 22.5 -24.109375 C 22.5 -26.441406 21.878906 -28.210938 20.640625 -29.421875 C 19.398438 -30.640625 17.21875 -31.25 14.09375 -31.25 L 10.453125 -31.25 L 10.453125 -16.90625 Z M 15.46875 -16.90625 "/></g></g></g><g fill="#ffffff" fill-opacity="1"><g transform="translate(239.716108, 251.36023)"><g><path d="M 1.625 -2.46875 C 3.207031 -2.46875 4.191406 -2.609375 4.578125 -2.890625 C 4.972656 -3.171875 5.207031 -3.46875 5.28125 -3.78125 C 5.351562 -4.09375 5.390625 -4.472656 5.390625 -4.921875 L 5.390625 -28.796875 C 5.390625 -29.773438 5.226562 -30.382812 4.90625 -30.625 C 4.300781 -31.039062 3.207031 -31.25 1.625 -31.25 L 1.625 -33.71875 L 13.6875 -33.71875 C 23.375 -33.71875 29.195312 -30.539062 31.15625 -24.1875 C 31.757812 -22.207031 32.0625 -20.082031 32.0625 -17.8125 C 32.0625 -15.539062 31.835938 -13.546875 31.390625 -11.828125 C 30.941406 -10.117188 30.3125 -8.601562 29.5 -7.28125 C 27.957031 -4.78125 25.835938 -2.941406 23.140625 -1.765625 C 20.453125 -0.585938 17.453125 0 14.140625 0 L 1.625 0 Z M 14.640625 -2.5 C 22.335938 -2.5 26.1875 -7.519531 26.1875 -17.5625 C 26.1875 -21.84375 25.125 -25.234375 23 -27.734375 C 20.875 -30.234375 17.703125 -31.484375 13.484375 -31.484375 L 10.453125 -31.484375 L 10.453125 -2.5 Z M 14.640625 -2.5 "/></g></g></g><g fill="#ffffff" fill-opacity="1"><g transform="translate(150.578299, 279.501577)"><g><path d="M 5.34375 0.140625 C 4.445312 0.140625 3.65625 -0.0351562 2.96875 -0.390625 C 2.289062 -0.753906 1.757812 -1.257812 1.375 -1.90625 C 1 -2.550781 0.8125 -3.296875 0.8125 -4.140625 L 0.8125 -8.03125 C 0.8125 -8.875 1 -9.617188 1.375 -10.265625 C 1.757812 -10.921875 2.289062 -11.425781 2.96875 -11.78125 C 3.65625 -12.132812 4.445312 -12.3125 5.34375 -12.3125 C 6.21875 -12.3125 6.992188 -12.132812 7.671875 -11.78125 C 8.359375 -11.4375 8.890625 -10.96875 9.265625 -10.375 C 9.640625 -9.78125 9.828125 -9.113281 9.828125 -8.375 L 9.828125 -8.34375 C 9.828125 -8.144531 9.726562 -8.046875 9.53125 -8.046875 L 7.671875 -8.046875 C 7.578125 -8.046875 7.503906 -8.0625 7.453125 -8.09375 C 7.398438 -8.125 7.375 -8.15625 7.375 -8.1875 L 7.375 -8.3125 C 7.375 -8.84375 7.1875 -9.289062 6.8125 -9.65625 C 6.445312 -10.019531 5.957031 -10.203125 5.34375 -10.203125 C 4.71875 -10.203125 4.210938 -10.007812 3.828125 -9.625 C 3.453125 -9.238281 3.265625 -8.734375 3.265625 -8.109375 L 3.265625 -4.0625 C 3.265625 -3.4375 3.46875 -2.929688 3.875 -2.546875 C 4.28125 -2.160156 4.796875 -1.96875 5.421875 -1.96875 C 6.023438 -1.96875 6.503906 -2.125 6.859375 -2.4375 C 7.222656 -2.757812 7.40625 -3.207031 7.40625 -3.78125 L 7.40625 -4.53125 C 7.40625 -4.601562 7.367188 -4.640625 7.296875 -4.640625 L 5.453125 -4.640625 C 5.265625 -4.640625 5.171875 -4.738281 5.171875 -4.9375 L 5.171875 -6.359375 C 5.171875 -6.554688 5.265625 -6.65625 5.453125 -6.65625 L 9.53125 -6.65625 C 9.726562 -6.65625 9.828125 -6.554688 9.828125 -6.359375 L 9.828125 -4.15625 C 9.828125 -3.269531 9.640625 -2.503906 9.265625 -1.859375 C 8.898438 -1.210938 8.375 -0.71875 7.6875 -0.375 C 7.007812 -0.03125 6.226562 0.140625 5.34375 0.140625 Z M 5.34375 0.140625 "/></g></g></g><g fill="#ffffff" fill-opacity="1"><g transform="translate(166.2576, 279.501577)"><g><path d="M 7.8125 0 C 7.65625 0 7.535156 -0.0703125 7.453125 -0.21875 L 5.328125 -4.953125 C 5.296875 -5.015625 5.253906 -5.046875 5.203125 -5.046875 L 3.625 -5.046875 C 3.550781 -5.046875 3.515625 -5.007812 3.515625 -4.9375 L 3.515625 -0.296875 C 3.515625 -0.0976562 3.414062 0 3.21875 0 L 1.359375 0 C 1.160156 0 1.0625 -0.0976562 1.0625 -0.296875 L 1.0625 -11.890625 C 1.0625 -12.085938 1.160156 -12.1875 1.359375 -12.1875 L 6.25 -12.1875 C 6.988281 -12.1875 7.640625 -12.03125 8.203125 -11.71875 C 8.765625 -11.414062 9.195312 -10.984375 9.5 -10.421875 C 9.8125 -9.867188 9.96875 -9.234375 9.96875 -8.515625 C 9.96875 -7.734375 9.769531 -7.054688 9.375 -6.484375 C 8.976562 -5.921875 8.429688 -5.519531 7.734375 -5.28125 C 7.703125 -5.269531 7.679688 -5.25 7.671875 -5.21875 C 7.660156 -5.195312 7.664062 -5.171875 7.6875 -5.140625 L 9.984375 -0.34375 C 10.015625 -0.300781 10.03125 -0.25 10.03125 -0.1875 C 10.03125 -0.132812 10.003906 -0.0859375 9.953125 -0.046875 C 9.910156 -0.015625 9.851562 0 9.78125 0 Z M 3.625 -10.0625 C 3.550781 -10.0625 3.515625 -10.03125 3.515625 -9.96875 L 3.515625 -7.046875 C 3.515625 -6.972656 3.550781 -6.9375 3.625 -6.9375 L 5.875 -6.9375 C 6.363281 -6.9375 6.757812 -7.078125 7.0625 -7.359375 C 7.375 -7.648438 7.53125 -8.023438 7.53125 -8.484375 C 7.53125 -8.953125 7.375 -9.332031 7.0625 -9.625 C 6.757812 -9.914062 6.363281 -10.0625 5.875 -10.0625 Z M 3.625 -10.0625 "/></g></g></g><g fill="#ffffff" fill-opacity="1"><g transform="translate(182.05858, 279.501577)"><g><path d="M 5.390625 0.1875 C 4.484375 0.1875 3.6875 0.00390625 3 -0.359375 C 2.3125 -0.734375 1.773438 -1.253906 1.390625 -1.921875 C 1.003906 -2.585938 0.8125 -3.351562 0.8125 -4.21875 L 0.8125 -7.953125 C 0.8125 -8.804688 1.003906 -9.5625 1.390625 -10.21875 C 1.773438 -10.882812 2.3125 -11.398438 3 -11.765625 C 3.6875 -12.128906 4.484375 -12.3125 5.390625 -12.3125 C 6.304688 -12.3125 7.109375 -12.128906 7.796875 -11.765625 C 8.484375 -11.398438 9.019531 -10.882812 9.40625 -10.21875 C 9.789062 -9.5625 9.984375 -8.804688 9.984375 -7.953125 L 9.984375 -4.21875 C 9.984375 -3.351562 9.789062 -2.582031 9.40625 -1.90625 C 9.019531 -1.238281 8.484375 -0.722656 7.796875 -0.359375 C 7.109375 0.00390625 6.304688 0.1875 5.390625 0.1875 Z M 5.390625 -1.90625 C 6.023438 -1.90625 6.539062 -2.109375 6.9375 -2.515625 C 7.332031 -2.921875 7.53125 -3.460938 7.53125 -4.140625 L 7.53125 -7.96875 C 7.53125 -8.632812 7.332031 -9.171875 6.9375 -9.578125 C 6.550781 -9.992188 6.035156 -10.203125 5.390625 -10.203125 C 4.753906 -10.203125 4.238281 -9.992188 3.84375 -9.578125 C 3.457031 -9.171875 3.265625 -8.632812 3.265625 -7.96875 L 3.265625 -4.140625 C 3.265625 -3.460938 3.457031 -2.921875 3.84375 -2.515625 C 4.238281 -2.109375 4.753906 -1.90625 5.390625 -1.90625 Z M 5.390625 -1.90625 "/></g></g></g><g fill="#ffffff" fill-opacity="1"><g transform="translate(197.981234, 279.501577)"><g><path d="M 5.484375 0.140625 C 4.585938 0.140625 3.800781 -0.03125 3.125 -0.375 C 2.445312 -0.726562 1.914062 -1.21875 1.53125 -1.84375 C 1.15625 -2.476562 0.96875 -3.207031 0.96875 -4.03125 L 0.96875 -11.875 C 0.96875 -12.070312 1.066406 -12.171875 1.265625 -12.171875 L 3.125 -12.171875 C 3.320312 -12.171875 3.421875 -12.070312 3.421875 -11.875 L 3.421875 -4.015625 C 3.421875 -3.398438 3.609375 -2.90625 3.984375 -2.53125 C 4.367188 -2.15625 4.867188 -1.96875 5.484375 -1.96875 C 6.097656 -1.96875 6.59375 -2.15625 6.96875 -2.53125 C 7.34375 -2.90625 7.53125 -3.398438 7.53125 -4.015625 L 7.53125 -11.875 C 7.53125 -12.070312 7.628906 -12.171875 7.828125 -12.171875 L 9.6875 -12.171875 C 9.882812 -12.171875 9.984375 -12.070312 9.984375 -11.875 L 9.984375 -4.03125 C 9.984375 -3.207031 9.796875 -2.476562 9.421875 -1.84375 C 9.046875 -1.21875 8.515625 -0.726562 7.828125 -0.375 C 7.148438 -0.03125 6.367188 0.140625 5.484375 0.140625 Z M 5.484375 0.140625 "/></g></g></g><g fill="#ffffff" fill-opacity="1"><g transform="translate(214.042943, 279.501577)"><g><path d="M 6.09375 -12.1875 C 6.851562 -12.1875 7.519531 -12.03125 8.09375 -11.71875 C 8.675781 -11.40625 9.128906 -10.960938 9.453125 -10.390625 C 9.773438 -9.816406 9.9375 -9.160156 9.9375 -8.421875 C 9.9375 -7.691406 9.769531 -7.046875 9.4375 -6.484375 C 9.101562 -5.929688 8.632812 -5.5 8.03125 -5.1875 C 7.4375 -4.882812 6.753906 -4.734375 5.984375 -4.734375 L 3.53125 -4.734375 C 3.457031 -4.734375 3.421875 -4.695312 3.421875 -4.625 L 3.421875 -0.296875 C 3.421875 -0.0976562 3.320312 0 3.125 0 L 1.265625 0 C 1.066406 0 0.96875 -0.0976562 0.96875 -0.296875 L 0.96875 -11.890625 C 0.96875 -12.085938 1.066406 -12.1875 1.265625 -12.1875 Z M 5.71875 -6.703125 C 6.25 -6.703125 6.675781 -6.851562 7 -7.15625 C 7.332031 -7.457031 7.5 -7.859375 7.5 -8.359375 C 7.5 -8.867188 7.332031 -9.28125 7 -9.59375 C 6.675781 -9.90625 6.25 -10.0625 5.71875 -10.0625 L 3.53125 -10.0625 C 3.457031 -10.0625 3.421875 -10.03125 3.421875 -9.96875 L 3.421875 -6.796875 C 3.421875 -6.734375 3.457031 -6.703125 3.53125 -6.703125 Z M 5.71875 -6.703125 "/></g></g></g></svg>