<svg xmlns="http://www.w3.org/2000/svg" xmlns:xlink="http://www.w3.org/1999/xlink" width="24" zoomAndPan="magnify" viewBox="0 0 375 374.999991" height="24" preserveAspectRatio="xMidYMid meet" version="1.0"><path fill="#00bf63" d="M 187.5 364.386719 C 90.210938 364.386719 10.613281 284.789062 10.613281 187.5 C 10.613281 90.210938 90.210938 10.613281 187.5 10.613281 C 284.789062 10.613281 364.386719 90.210938 364.386719 187.5 C 364.386719 284.789062 284.789062 364.386719 187.5 364.386719 Z M 187.5 0 C 84.109375 0 0 84.109375 0 187.5 C 0 290.886719 84.109375 375 187.5 375 C 290.886719 375 375 290.886719 375 187.5 C 375 84.109375 290.886719 0 187.5 0 " fill-opacity="1" fill-rule="nonzero"/><path fill="#00bf63" d="M 215.800781 215.800781 L 107.898438 267.097656 L 159.199219 159.199219 L 267.097656 107.898438 Z M 187.5 45.988281 C 109.667969 45.988281 45.992188 109.667969 45.992188 187.5 C 45.992188 265.328125 109.667969 329.007812 187.5 329.007812 C 265.328125 329.007812 329.007812 265.328125 329.007812 187.5 C 329.007812 109.667969 265.328125 45.988281 187.5 45.988281 " fill-opacity="1" fill-rule="nonzero"/></svg>